<svg width="414" height="404" viewBox="0 0 414 404" fill="none" xmlns="http://www.w3.org/2000/svg">
<path d="M70.1695 393.754C41.6612 391.132 25.6786 385.401 0 361.551V0H414V404C349.912 361.551 323.247 339.594 247.932 339.594C158.165 337.193 128.036 399.075 70.1695 393.754Z" fill="url(#paint0_linear_552_78)"/>
<path d="M369.256 148.554C369.083 147.601 368.071 148.135 367.483 147.861C367.424 147.205 368.426 146.494 367.578 145.979C366.667 145.432 366.061 146.307 365.564 146.945C365.108 147.515 364.871 147.446 364.556 146.858C364.392 146.601 364.193 146.368 363.964 146.166C363.681 145.878 363.348 145.614 362.929 145.883C362.759 145.985 362.63 146.144 362.567 146.332C362.503 146.52 362.509 146.724 362.583 146.909C362.606 147.037 362.639 147.164 362.683 147.287C363.681 149.297 362.843 150.76 361.416 152.196C360.076 153.541 358.913 155.063 357.523 156.69C357.268 155.218 357.131 153.956 356.835 152.761C352.874 136.484 342.353 126.83 326.295 123.133C316.117 120.781 306.093 121.579 296.872 126.843C284.647 133.827 277.892 144.347 277.372 158.605C277.372 158.778 277.349 158.947 277.331 159.211C276.451 159.033 275.913 158.372 275.248 157.949C273.926 157.105 272.645 156.189 271.314 155.364C271.04 155.238 270.816 155.025 270.675 154.757C270.535 154.49 270.487 154.184 270.539 153.887C270.578 153.191 270.564 152.493 270.498 151.8C270.471 151.312 270.229 150.924 269.714 150.92C269.258 150.92 269.026 151.257 268.962 151.69C268.748 153.103 268.233 152.784 267.503 152C267.04 151.54 266.523 151.137 265.963 150.801C265.616 150.573 265.202 150.273 264.782 150.687C264.363 151.102 264.559 151.48 264.759 151.891C264.873 152.119 264.965 152.347 265.065 152.593C264.573 152.944 264.094 152.679 263.638 152.716C263.182 152.752 262.772 152.916 262.726 153.436C262.681 153.956 263.046 154.12 263.433 154.234C263.962 154.389 264.504 154.507 265.197 154.689C264.741 155.081 264.367 155.396 264.003 155.729C263.844 155.848 263.731 156.018 263.684 156.211C263.638 156.405 263.66 156.608 263.747 156.786C263.934 157.174 264.304 157.151 264.659 157.137C265.662 157.074 266.645 156.825 267.558 156.403C267.864 156.252 268.208 156.196 268.546 156.244C268.883 156.292 269.199 156.441 269.45 156.672C271.597 158.245 273.757 159.795 275.982 161.23C276.474 161.528 276.884 161.944 277.174 162.441C277.464 162.938 277.624 163.5 277.641 164.075C278.265 171.104 280.744 177.841 284.825 183.597C290.262 191.296 297.469 196.488 306.704 198.703C307.351 198.858 307.529 199.086 307.479 199.747C307.214 203.011 306.977 206.27 306.804 209.538C306.763 210.327 306.558 210.6 305.756 210.564C304.708 210.507 303.66 210.649 302.665 210.983C302.292 211.115 301.849 211.216 301.918 211.726C301.927 211.95 302.021 212.163 302.181 212.32C302.341 212.478 302.555 212.568 302.779 212.574C304.603 212.574 306.426 212.633 308.249 212.237C309.129 212.045 309.038 211.288 309.042 210.655C309.042 207.254 309.106 203.85 309.042 200.449C309.042 199.36 309.357 199.186 310.373 199.323C313.41 199.673 316.477 199.689 319.517 199.369C320.574 199.278 320.766 199.547 320.693 200.545C320.425 203.411 320.318 206.29 320.374 209.169C320.41 210.081 320.123 210.459 319.198 210.299C318.683 210.202 318.162 210.146 317.639 210.131C317.238 210.131 316.727 210.044 316.664 210.705C316.627 211.211 316.664 211.676 317.252 211.867C318.752 212.346 320.336 212.501 321.901 212.323C322.717 212.237 322.79 211.626 322.785 210.983C322.762 207.578 322.835 204.173 322.667 200.777C322.594 199.296 323.122 198.922 324.444 198.699C331.163 197.564 337.371 195.143 342.841 191.014C350.918 184.919 355.372 176.687 356.994 166.814C357.366 164.707 357.553 162.572 357.555 160.433C357.546 159.997 357.71 159.576 358.011 159.261C360.03 156.914 362.049 154.571 364.014 152.178C364.497 151.585 364.875 151.458 365.523 151.85C366.233 152.292 367.062 152.507 367.898 152.465C368.413 152.438 369.01 152.424 369.178 151.786C369.37 151.066 368.75 150.943 368.267 150.733C368.071 150.642 367.879 150.537 367.674 150.432C368.176 149.744 369.452 149.653 369.256 148.554ZM332.549 223.509C332.312 224.598 331.865 225.332 330.643 225.61C329.531 225.879 329.486 226.522 330.489 227.197C331.327 227.753 331.979 228.322 332.107 229.389C332.113 229.614 332.199 229.828 332.35 229.995C332.5 230.162 332.705 230.271 332.927 230.301C333.483 230.346 333.697 229.845 333.766 229.453C334.021 228.053 335.024 227.516 336.209 227.11C336.524 227.005 336.929 226.896 336.92 226.463C336.911 226.03 336.514 225.929 336.186 225.838C335.047 225.515 334.313 224.876 334.103 223.637C334.101 223.395 334.023 223.161 333.879 222.967C333.736 222.773 333.535 222.629 333.305 222.556C332.745 222.629 332.622 223.126 332.549 223.509ZM369.329 179.044C369.611 177.758 370.418 177.061 371.644 176.701C371.963 176.605 372.492 176.487 372.474 175.994C372.456 175.502 371.95 175.365 371.626 175.311C370.35 175.078 369.871 174.221 369.598 173.091C369.507 172.708 369.429 172.179 368.832 172.179C368.235 172.179 368.098 172.703 368.043 173.091C367.875 174.267 367.287 174.873 366.102 175.151C365.144 175.375 365.103 176.09 365.919 176.628C366.854 177.243 367.629 177.891 367.706 179.126C367.732 179.324 367.833 179.506 367.988 179.633C368.143 179.76 368.34 179.823 368.54 179.81C368.733 179.776 368.912 179.685 369.053 179.548C369.193 179.412 369.29 179.236 369.329 179.044ZM349.031 109.586C348.908 110.552 348.484 111.058 347.513 111.195C347.058 111.264 346.511 111.487 346.415 111.997C346.319 112.508 346.834 112.736 347.181 112.955C348.051 113.502 348.739 114.131 348.799 115.234C348.814 115.431 348.902 115.616 349.046 115.752C349.19 115.888 349.38 115.965 349.578 115.968C349.754 115.965 349.922 115.898 350.053 115.781C350.183 115.664 350.267 115.504 350.289 115.329C350.636 113.871 351.62 113.119 352.979 112.686C353.434 112.544 354.018 112.016 353.207 111.747C351.625 111.227 350.886 110.124 350.444 108.665C350.376 108.437 350.262 108.155 349.911 108.21C349.653 108.337 349.434 108.532 349.279 108.775C349.124 109.018 349.038 109.298 349.031 109.586ZM250.775 159.015C251.687 159.539 252.325 160.196 252.402 161.294C252.403 161.495 252.475 161.689 252.605 161.842C252.735 161.994 252.915 162.096 253.113 162.128C253.596 162.192 253.843 161.759 253.92 161.426C254.262 160 255.178 159.243 256.55 158.906C256.833 158.833 257.147 158.673 257.179 158.318C257.184 158.162 257.13 158.01 257.026 157.893C256.923 157.776 256.779 157.703 256.623 157.689C255.183 157.406 254.572 156.403 254.225 155.109C254.139 154.794 253.998 154.389 253.587 154.366C253.177 154.343 252.945 154.735 252.904 155.045C252.73 156.435 252.033 157.288 250.624 157.534C250.48 157.563 250.346 157.631 250.236 157.729C250.126 157.828 250.045 157.954 250 158.094C250.058 158.293 250.157 158.478 250.29 158.637C250.424 158.795 250.589 158.924 250.775 159.015ZM289.775 96.0802C289.656 97.2107 289.114 97.8032 287.951 98.0676C286.789 98.332 286.739 98.9793 287.728 99.6447C288.603 100.219 289.296 100.803 289.419 101.924C289.407 102.135 289.478 102.343 289.619 102.502C289.76 102.66 289.957 102.757 290.169 102.769C290.381 102.782 290.589 102.71 290.747 102.57C290.906 102.429 291.002 102.231 291.015 102.02C291.107 101.42 291.388 100.866 291.818 100.439C292.248 100.012 292.803 99.7332 293.403 99.6447C293.754 99.5673 294.242 99.4305 294.224 98.9382C294.224 98.528 293.768 98.4095 293.458 98.3366C292.15 98.022 291.571 97.1013 291.284 95.8934C291.26 95.6973 291.185 95.5111 291.064 95.3547C290.944 95.1982 290.783 95.0772 290.6 95.0045C290.379 95.0935 290.185 95.2402 290.04 95.4295C289.895 95.6187 289.803 95.8435 289.775 96.0802ZM292.473 212.478C292.848 212.492 293.213 212.36 293.492 212.11C293.77 211.86 293.941 211.512 293.968 211.138C294.041 210.172 293.221 209.771 292.441 209.725C291.662 209.679 291.174 210.208 291.165 211.211C291.156 211.383 291.184 211.555 291.247 211.715C291.31 211.875 291.406 212.02 291.529 212.14C291.653 212.26 291.8 212.353 291.962 212.411C292.124 212.469 292.297 212.492 292.469 212.478H292.473ZM250.707 197.477C250.685 197.653 250.702 197.83 250.757 197.998C250.811 198.167 250.901 198.321 251.02 198.451C251.14 198.581 251.286 198.683 251.449 198.751C251.612 198.819 251.788 198.851 251.965 198.845C252.161 198.854 252.357 198.825 252.542 198.758C252.726 198.691 252.896 198.588 253.04 198.455C253.184 198.321 253.301 198.161 253.382 197.982C253.464 197.803 253.509 197.61 253.514 197.413C253.56 196.529 252.894 196.164 252.069 196.087C251.149 196.101 250.734 196.648 250.702 197.477H250.707ZM373.49 207.874C374.311 207.82 374.972 207.314 374.972 206.534C374.974 206.337 374.933 206.142 374.853 205.961C374.772 205.781 374.653 205.621 374.505 205.491C374.356 205.361 374.181 205.265 373.992 205.209C373.803 205.153 373.604 205.139 373.408 205.167C372.602 205.199 372.15 205.659 372.159 206.607C372.21 207.332 372.542 207.938 373.486 207.874H373.49ZM269.86 131.297C269.86 132.177 270.384 132.728 271.227 132.664C271.993 132.61 272.682 132.154 272.645 131.26C272.609 130.367 271.916 130.071 271.232 129.934C270.339 130.039 269.855 130.472 269.855 131.288L269.86 131.297ZM271.392 171.135C271.58 171.146 271.769 171.12 271.946 171.056C272.124 170.993 272.287 170.895 272.426 170.767C272.565 170.64 272.677 170.485 272.756 170.314C272.834 170.142 272.877 169.957 272.882 169.768C272.909 168.879 272.176 168.483 271.419 168.423C270.662 168.364 270.134 168.843 270.051 169.745C270.129 170.515 270.498 171.154 271.387 171.122L271.392 171.135ZM381.166 140.482C381.135 141.275 381.517 141.954 382.456 141.908C383.245 141.867 383.92 141.493 383.938 140.591C383.956 139.688 383.277 139.365 382.602 139.178C381.672 139.214 381.194 139.725 381.166 140.482Z" fill="#0287CC"/>
<path d="M368.258 150.751C368.713 150.961 369.343 151.084 369.169 151.804C369.001 152.442 368.404 152.456 367.888 152.483C367.053 152.525 366.224 152.311 365.514 151.868C364.866 151.476 364.488 151.604 364.005 152.196C362.04 154.589 360.021 156.932 358.002 159.28C357.701 159.594 357.537 160.016 357.546 160.451C357.544 162.59 357.357 164.726 356.985 166.832C355.363 176.706 350.909 184.938 342.832 191.032C337.362 195.162 331.154 197.582 324.435 198.717C323.104 198.94 322.585 199.314 322.658 200.796C322.826 204.191 322.753 207.596 322.776 211.001C322.776 211.644 322.708 212.255 321.892 212.341C320.327 212.519 318.743 212.364 317.242 211.886C316.668 211.69 316.613 211.234 316.668 210.705C316.718 210.044 317.242 210.126 317.644 210.131C318.167 210.146 318.688 210.202 319.202 210.299C320.114 210.459 320.415 210.09 320.378 209.169C320.323 206.291 320.429 203.411 320.698 200.545C320.77 199.547 320.579 199.278 319.522 199.369C316.481 199.689 313.415 199.673 310.378 199.323C309.361 199.187 309.01 199.36 309.047 200.449C309.101 203.85 309.047 207.254 309.047 210.655C309.047 211.288 309.133 212.022 308.254 212.237C306.43 212.633 304.607 212.588 302.784 212.574C302.559 212.568 302.346 212.478 302.186 212.32C302.026 212.163 301.932 211.95 301.922 211.726C301.854 211.216 302.296 211.115 302.67 210.983C303.664 210.649 304.713 210.507 305.76 210.564C306.563 210.6 306.768 210.327 306.809 209.538C306.982 206.27 307.219 203.011 307.483 199.747C307.533 199.086 307.356 198.858 306.708 198.703C297.478 196.488 290.272 191.296 284.829 183.598C280.748 177.841 278.269 171.104 277.645 164.075C277.629 163.5 277.469 162.938 277.179 162.441C276.889 161.944 276.479 161.528 275.986 161.23C273.762 159.772 271.601 158.222 269.454 156.672C269.203 156.441 268.888 156.292 268.55 156.244C268.213 156.196 267.868 156.252 267.563 156.403C266.65 156.825 265.667 157.074 264.664 157.137C264.308 157.137 263.939 157.174 263.752 156.786C263.665 156.608 263.642 156.405 263.689 156.211C263.736 156.018 263.848 155.848 264.007 155.729C264.372 155.396 264.755 155.081 265.202 154.689C264.509 154.516 263.966 154.398 263.438 154.234C263.05 154.12 262.663 153.937 262.731 153.436C262.799 152.935 263.187 152.752 263.643 152.716C264.098 152.679 264.577 152.944 265.069 152.593C264.969 152.356 264.878 152.137 264.764 151.891C264.563 151.481 264.404 151.066 264.787 150.687C265.17 150.309 265.621 150.573 265.967 150.801C266.528 151.137 267.045 151.54 267.508 152C268.237 152.784 268.752 153.103 268.967 151.69C269.03 151.234 269.272 150.915 269.719 150.92C270.234 150.92 270.475 151.312 270.503 151.8C270.569 152.493 270.582 153.191 270.544 153.887C270.492 154.184 270.54 154.49 270.68 154.757C270.82 155.025 271.045 155.238 271.319 155.364C272.65 156.189 273.931 157.105 275.252 157.949C275.918 158.372 276.456 159.033 277.335 159.211C277.335 158.947 277.372 158.755 277.377 158.605C277.896 144.347 284.67 133.827 296.876 126.843C306.098 121.579 316.121 120.781 326.3 123.133C342.353 126.843 352.874 136.498 356.839 152.761C357.136 153.969 357.272 155.218 357.528 156.691C358.918 155.063 360.08 153.541 361.42 152.196C362.847 150.76 363.699 149.297 362.688 147.287C362.644 147.164 362.61 147.037 362.587 146.909C362.514 146.724 362.508 146.52 362.572 146.332C362.635 146.144 362.763 145.985 362.934 145.883C363.353 145.614 363.686 145.883 363.968 146.166C364.197 146.368 364.397 146.601 364.561 146.859C364.875 147.447 365.122 147.515 365.568 146.945C366.065 146.307 366.658 145.432 367.583 145.979C368.431 146.476 367.428 147.205 367.487 147.861C368.075 148.135 369.087 147.601 369.26 148.554C369.456 149.653 368.157 149.744 367.67 150.45C367.87 150.555 368.062 150.66 368.258 150.751ZM327.498 126.78C327.065 126.903 327.147 127.235 327.17 127.555C326.837 127.682 326.856 127.974 326.837 128.252C326.248 129.054 325.444 129.674 324.519 130.04C323.593 130.406 322.583 130.503 321.605 130.321C319.845 129.943 319.868 129.952 319.326 131.634C318.876 132.869 318.831 134.215 319.198 135.477C319.439 136.279 319.531 137.086 318.646 137.683C317.443 138.494 316.987 138.49 316.226 137.227C315.465 135.964 314.27 135.376 313.126 134.697C312.183 134.137 311.759 133.412 312.215 132.418C313.227 130.198 311.718 128.202 311.759 126.069C311.759 125.481 311.171 125.727 310.82 125.786C305.908 126.594 301.178 128.266 296.849 130.723C293.703 132.522 290.855 134.8 288.407 137.473C287.669 137.195 287.901 137.738 287.897 138.084L287.874 138.763H286.817L287.596 139.292C287.231 139.337 286.789 139.155 286.575 139.638C284.414 142.583 282.377 145.6 281.237 149.119C281.143 149.362 281.063 149.61 281 149.862C280.9 150.318 280.44 150.911 281.06 151.23C281.607 151.526 282.144 151.23 282.55 150.747C283.006 150.209 283.498 149.479 283.954 150.747C283.753 151.202 282.928 150.915 282.896 151.599C282.609 151.781 282.322 152.123 282.03 152.123C280.162 152.123 280.143 153.491 279.979 154.785C279.624 157.52 279.628 157.566 282.286 156.937C284.856 156.33 287.409 155.975 290.035 156.763C290.901 157.023 291.539 157.42 291.826 158.272C292.288 159.597 293.122 160.76 294.228 161.622C295.354 162.534 295.947 163.687 295.514 165.192C295.484 165.363 295.469 165.537 295.468 165.711C295.144 169.358 293.877 172.439 290.108 173.761C288.102 174.463 287.523 176.04 287.263 177.863C287.159 178.018 287.104 178.199 287.104 178.385C287.104 178.571 287.159 178.753 287.263 178.907L287.345 179.568C287.226 180.25 287.252 180.95 287.421 181.622C287.591 182.293 287.901 182.922 288.33 183.465C293.316 190.366 300.181 194.218 308.386 195.8C317.309 197.569 326.562 196.471 334.823 192.664C341.606 189.605 346.383 184.432 349.911 178.009C350.321 177.262 350.891 176.555 350.968 175.648C353.81 170.136 355.026 163.929 354.474 157.753C354.172 153.36 352.89 149.091 350.722 145.259C350.697 145.236 350.669 145.216 350.64 145.199C350.64 145.199 350.604 145.199 350.586 145.199L350.741 145.231C351.032 147.989 349.683 150.619 350.13 153.39C348.708 153.687 349.419 152.228 348.849 151.827C348.577 151.226 348.506 150.553 348.644 149.908C349.232 147.419 348.667 144.99 348.461 142.533C348.33 141.497 347.875 140.529 347.162 139.766C343.113 134.621 337.848 130.563 331.842 127.956L331.496 127.769H331.09L331.026 127.664L331.086 127.769C331.086 129.045 331.222 130.349 330.283 131.415L329.96 131.566L330.156 131.721L329.727 132.464L329.481 132.778C328.57 134.602 328.305 134.697 326.869 133.79V132.496C326.972 132.491 327.075 132.514 327.166 132.562C327.258 132.61 327.335 132.681 327.389 132.769C327.466 132.892 327.521 133.084 327.635 133.125C327.749 133.166 327.89 133.006 327.927 132.847L328.665 131.935C329.29 131.889 329.226 131.452 329.185 131.023C329.178 131.011 329.174 130.997 329.174 130.982C329.174 130.968 329.178 130.954 329.185 130.941C329.191 130.928 329.201 130.918 329.213 130.91C329.225 130.902 329.239 130.897 329.253 130.896C329.336 130.845 329.403 130.771 329.446 130.684C329.49 130.598 329.508 130.5 329.499 130.403C329.627 129.774 329.759 129.15 329.887 128.525C330.274 128.042 330.657 127.564 329.727 127.249L329.499 127.062C329.171 126.606 328.802 126.26 328.2 126.661H327.658C327.48 126.538 327.466 126.661 327.485 126.789L327.498 126.78ZM291.033 171.682C291.603 171.483 292.106 171.128 292.483 170.656C292.86 170.184 293.097 169.616 293.166 169.016C293.394 167.735 293.763 166.482 294.009 165.196C294.119 164.751 294.102 164.284 293.96 163.849C293.818 163.413 293.557 163.025 293.207 162.73C292.184 161.727 291.267 160.621 290.472 159.43C289.36 157.862 287.523 157.789 285.859 157.908C284.036 158.04 282.277 158.582 280.485 158.933C279.815 159.061 279.838 159.612 279.842 160.05C279.893 164.33 280.148 168.574 282.067 172.521C282.122 172.686 282.155 172.858 282.167 173.032C282.755 175.251 283.927 177.134 285.394 179.299C285.563 178.31 285.677 177.654 285.786 176.997C286.379 174.089 288.54 172.694 291.033 171.682V171.682ZM314.549 125.353C312.999 125.462 312.269 126.456 313.113 127.764C314.024 129.196 313.742 130.499 313.363 131.867C313.113 132.778 313.322 133.325 314.161 133.772C315.232 134.342 316.335 134.893 317.005 136.001C317.147 136.233 317.265 136.735 317.721 136.507C317.81 136.464 317.89 136.403 317.954 136.328C318.018 136.252 318.065 136.164 318.093 136.069C318.121 135.974 318.129 135.874 318.116 135.776C318.103 135.678 318.069 135.584 318.017 135.499C317.238 133.612 317.885 131.853 318.414 130.03C318.715 129.013 319.239 128.74 320.237 128.913C321.828 129.196 323.428 129.405 324.896 128.389C325.237 128.202 325.531 127.94 325.757 127.623C326.409 126.493 326.263 126.164 324.964 125.936C323.893 125.75 322.817 125.549 321.737 125.44C320.306 125.298 318.865 125.239 317.484 125.148C316.463 125.225 315.506 125.285 314.549 125.353V125.353ZM349.432 151.79H349.601C349.601 151.749 349.628 151.699 349.601 151.667C349.566 151.616 349.528 151.568 349.487 151.522L349.432 151.79ZM265.161 152.707C265.137 152.726 265.123 152.754 265.12 152.784C265.174 152.894 265.233 152.894 265.284 152.784C265.284 152.784 265.256 152.729 265.243 152.702C265.229 152.675 265.161 152.698 265.161 152.707Z" fill="#060807"/>
<path d="M333.305 222.547C332.745 222.634 332.631 223.126 332.549 223.509C332.312 224.598 331.865 225.332 330.643 225.61C329.531 225.879 329.486 226.522 330.488 227.196C331.327 227.753 331.979 228.322 332.107 229.389C332.113 229.613 332.199 229.828 332.35 229.995C332.5 230.162 332.704 230.27 332.927 230.301C333.483 230.346 333.697 229.845 333.766 229.453C334.021 228.053 335.024 227.516 336.209 227.11C336.523 227.005 336.929 226.896 336.92 226.463C336.911 226.03 336.514 225.929 336.186 225.838C335.047 225.514 334.313 224.876 334.103 223.637C334.103 223.394 334.025 223.157 333.882 222.962C333.739 222.766 333.537 222.621 333.305 222.547V222.547Z" fill="white"/>
<path d="M368.54 179.828C368.736 179.793 368.916 179.699 369.057 179.559C369.198 179.419 369.293 179.239 369.329 179.044C369.611 177.759 370.418 177.061 371.644 176.701C371.963 176.605 372.492 176.487 372.474 175.995C372.456 175.502 371.95 175.365 371.626 175.311C370.35 175.078 369.871 174.221 369.598 173.091C369.506 172.708 369.429 172.179 368.832 172.179C368.235 172.179 368.098 172.704 368.043 173.091C367.875 174.267 367.287 174.873 366.102 175.151C365.144 175.375 365.103 176.09 365.919 176.628C366.854 177.243 367.628 177.891 367.706 179.126C367.728 179.328 367.827 179.514 367.982 179.644C368.138 179.775 368.337 179.841 368.54 179.828V179.828Z" fill="white"/>
<path d="M349.911 108.219C349.654 108.345 349.436 108.539 349.281 108.78C349.126 109.021 349.04 109.3 349.031 109.586C348.908 110.553 348.484 111.059 347.513 111.195C347.057 111.264 346.51 111.487 346.415 111.997C346.319 112.508 346.834 112.736 347.181 112.955C348.051 113.502 348.739 114.131 348.799 115.234C348.813 115.431 348.902 115.616 349.046 115.752C349.19 115.888 349.38 115.965 349.578 115.968C349.754 115.965 349.922 115.898 350.053 115.781C350.183 115.664 350.267 115.504 350.289 115.33C350.636 113.871 351.62 113.119 352.979 112.686C353.434 112.544 354.018 112.016 353.206 111.747C351.625 111.227 350.886 110.124 350.444 108.665C350.399 108.456 350.262 108.173 349.911 108.219Z" fill="white"/>
<path d="M250 158.113C250.059 158.31 250.158 158.493 250.292 158.65C250.425 158.807 250.59 158.934 250.775 159.024C251.687 159.549 252.325 160.205 252.402 161.303C252.403 161.504 252.475 161.698 252.605 161.851C252.735 162.004 252.915 162.105 253.113 162.138C253.596 162.201 253.843 161.768 253.92 161.436C254.262 160.009 255.178 159.252 256.55 158.915C256.833 158.842 257.147 158.682 257.179 158.327C257.184 158.171 257.13 158.019 257.026 157.902C256.923 157.785 256.779 157.712 256.623 157.698C255.183 157.415 254.572 156.412 254.225 155.118C254.139 154.803 253.998 154.398 253.587 154.375C253.177 154.352 252.945 154.744 252.904 155.054C252.73 156.444 252.033 157.297 250.624 157.543C250.479 157.573 250.344 157.642 250.234 157.742C250.124 157.843 250.043 157.97 250 158.113Z" fill="white"/>
<path d="M290.6 95C290.376 95.0894 290.18 95.238 290.034 95.4298C289.888 95.6217 289.797 95.8497 289.77 96.0894C289.652 97.2198 289.109 97.8124 287.947 98.0768C286.785 98.3412 286.734 98.9884 287.724 99.6539C288.599 100.228 289.292 100.812 289.415 101.933C289.408 102.038 289.423 102.143 289.457 102.242C289.491 102.341 289.545 102.433 289.614 102.511C289.684 102.59 289.768 102.654 289.863 102.7C289.957 102.745 290.06 102.772 290.164 102.779C290.269 102.785 290.374 102.77 290.473 102.736C290.573 102.702 290.664 102.648 290.743 102.579C290.821 102.509 290.885 102.425 290.931 102.33C290.977 102.236 291.004 102.133 291.01 102.029C291.102 101.43 291.383 100.876 291.813 100.448C292.243 100.021 292.799 99.7424 293.398 99.6539C293.749 99.5764 294.237 99.4397 294.219 98.9474C294.219 98.5372 293.763 98.4186 293.453 98.3457C292.145 98.0312 291.566 97.1104 291.279 95.9025C291.259 95.7045 291.185 95.5159 291.065 95.3568C290.945 95.1978 290.784 95.0744 290.6 95V95Z" fill="white"/>
<path d="M291.142 211.234C291.133 211.406 291.161 211.579 291.224 211.739C291.287 211.9 291.384 212.045 291.508 212.165C291.632 212.285 291.78 212.377 291.943 212.435C292.105 212.493 292.278 212.516 292.45 212.501C292.825 212.515 293.19 212.383 293.469 212.133C293.747 211.883 293.918 211.535 293.945 211.161C294.018 210.195 293.198 209.794 292.418 209.748C291.639 209.702 291.169 210.208 291.142 211.234Z" fill="white"/>
<path d="M252.065 196.087C251.153 196.087 250.734 196.629 250.697 197.477C250.676 197.653 250.693 197.83 250.747 197.999C250.801 198.167 250.891 198.321 251.011 198.451C251.131 198.581 251.277 198.684 251.44 198.752C251.603 198.819 251.779 198.851 251.955 198.845C252.152 198.855 252.348 198.825 252.532 198.758C252.717 198.691 252.887 198.588 253.031 198.455C253.175 198.321 253.292 198.161 253.373 197.982C253.454 197.803 253.499 197.61 253.505 197.413C253.555 196.529 252.89 196.165 252.065 196.087Z" fill="white"/>
<path d="M372.155 206.603C372.209 207.332 372.542 207.938 373.486 207.875C374.306 207.82 374.967 207.314 374.967 206.534C374.969 206.337 374.928 206.142 374.848 205.962C374.767 205.781 374.648 205.621 374.5 205.491C374.351 205.361 374.177 205.265 373.987 205.209C373.798 205.153 373.599 205.139 373.404 205.167C372.597 205.194 372.146 205.655 372.155 206.603Z" fill="white"/>
<path d="M271.237 129.925C270.325 130.039 269.869 130.472 269.869 131.292C269.869 132.113 270.393 132.724 271.237 132.66C272.002 132.605 272.691 132.149 272.654 131.256C272.618 130.363 271.92 130.062 271.237 129.925Z" fill="white"/>
<path d="M270.056 169.754C270.129 170.516 270.512 171.154 271.387 171.122C271.575 171.133 271.764 171.106 271.942 171.043C272.119 170.98 272.283 170.881 272.422 170.754C272.561 170.626 272.673 170.472 272.751 170.3C272.829 170.129 272.872 169.943 272.877 169.754C272.905 168.866 272.171 168.469 271.414 168.41C270.658 168.35 270.129 168.843 270.056 169.754Z" fill="white"/>
<path d="M382.602 139.178C381.691 139.21 381.194 139.725 381.166 140.482C381.139 141.238 381.517 141.954 382.456 141.908C383.245 141.867 383.92 141.494 383.938 140.591C383.956 139.689 383.277 139.365 382.602 139.178Z" fill="white"/>
<path d="M329.495 127.076L329.723 127.263L329.882 128.539L329.495 130.417C329.411 130.467 329.343 130.54 329.3 130.627C329.256 130.715 329.238 130.812 329.248 130.909C329.234 130.911 329.22 130.916 329.208 130.923C329.196 130.931 329.187 130.942 329.18 130.955C329.173 130.967 329.17 130.982 329.17 130.996C329.17 131.01 329.173 131.024 329.18 131.037C328.913 131.277 328.731 131.597 328.66 131.949L327.922 132.86L327.384 132.783C327.33 132.695 327.253 132.623 327.162 132.575C327.07 132.527 326.968 132.504 326.865 132.509C325.561 131.935 324.33 132.382 323.027 133.818C322.165 134.77 322.721 135.595 323.182 136.434C323.409 136.849 323.71 137.227 323.97 137.628C324.918 139.082 324.658 140.167 323.195 141.038C322.575 141.407 322.375 140.91 322.252 140.545C322.01 139.807 321.896 139.023 321.696 138.266C321.468 137.405 320.934 137.14 320.328 137.842C319.476 138.715 318.464 139.414 317.347 139.903C316.303 140.422 315.56 143.18 316.107 144.21C316.197 144.361 316.325 144.486 316.477 144.574C316.63 144.662 316.802 144.709 316.978 144.712C319.257 144.981 320.547 146.745 322.17 148.016C322.22 148.058 322.262 148.109 322.293 148.167C322.323 148.225 322.342 148.288 322.347 148.354C322.347 150.259 323.715 151.376 324.791 152.666C325.351 153.349 325.506 154.033 325.046 154.808C324.043 156.536 324.244 158.455 324.385 160.278C324.421 160.788 324.294 161.55 325.055 161.673C325.816 161.796 326.659 162.015 327.402 161.358C328.483 160.415 328.733 159.143 328.92 157.844C329.007 157.256 329.153 156.932 329.832 156.855C332.567 156.581 335.302 156.321 338.037 156.795C339.258 157.005 339.814 157.748 339.7 158.965C339.655 159.467 339.313 159.462 338.985 159.558C337.718 159.927 337.394 160.469 337.945 161.613C338.333 162.429 338.091 162.589 337.33 162.612C336.195 162.644 335.051 162.785 333.934 162.748C333.458 162.695 332.975 162.762 332.531 162.943C332.087 163.123 331.695 163.412 331.391 163.783C329.75 165.812 327.466 166.887 325.219 168.05C322.972 169.212 322.881 169.604 323.852 171.938C324.479 173.379 325.321 174.718 326.349 175.908C327.003 176.566 327.381 177.447 327.407 178.374C327.261 181.46 328.478 184.368 328.519 187.417C328.519 187.636 328.519 187.873 328.519 188.069C328.437 188.488 328.309 188.912 328.697 189.259C328.722 189.285 328.739 189.318 328.746 189.354C328.752 189.389 328.748 189.426 328.733 189.459C327.776 190.476 326.418 190.28 325.233 190.526C322.069 191.178 318.851 191.16 315.619 191.096C310.788 190.979 306.015 190.01 301.521 188.233C296.477 186.341 291.893 183.4 288.07 179.605C287.833 179.363 287.582 179.605 287.34 179.568L287.258 178.907C287.258 178.561 287.258 178.21 287.258 177.863C287.518 176.04 288.097 174.458 290.103 173.761C293.872 172.439 295.117 169.371 295.463 165.711C295.464 165.537 295.48 165.363 295.509 165.192C295.942 163.687 295.349 162.552 294.223 161.623C293.117 160.76 292.283 159.597 291.821 158.272C291.534 157.42 290.91 157.023 290.03 156.763C287.418 155.975 284.865 156.33 282.281 156.937C279.623 157.566 279.619 157.529 279.974 154.785C280.139 153.495 280.157 152.128 282.026 152.123C282.317 152.123 282.605 151.781 282.892 151.599C283.297 151.476 283.516 151.64 283.694 152.023C283.976 152.542 284.418 152.955 284.955 153.202C285.491 153.448 286.093 153.514 286.67 153.39C287.518 153.158 287.072 152.547 286.88 152.16C286.493 151.385 285.968 150.687 285.741 149.821C285.513 148.955 285.741 148.55 286.68 148.705C287.368 148.819 288.047 148.901 288.749 148.996C289.784 149.142 290.426 149.616 290.367 150.783C290.308 151.95 291.279 152.119 292.122 152.31C292.965 152.502 293.945 152.843 294.515 151.704C294.688 151.353 294.843 150.993 295.039 150.656C295.659 149.58 295.431 148.768 294.328 148.19C293.512 147.761 293.248 147.278 293.872 146.366C294.871 144.844 293.904 142.396 292.2 141.808C291.954 141.72 291.705 141.646 291.452 141.585C290.176 141.316 289.077 140.828 288.548 139.497C288.371 139.205 288.149 138.942 287.892 138.718L287.915 138.038C288.039 137.98 288.15 137.895 288.238 137.79C288.326 137.684 288.39 137.561 288.425 137.428C290.866 134.754 293.706 132.476 296.844 130.672C301.173 128.215 305.903 126.544 310.815 125.736C311.166 125.677 311.763 125.43 311.754 126.018C311.727 128.152 313.236 130.148 312.21 132.368C311.754 133.344 312.173 134.068 313.122 134.647C314.266 135.326 315.478 135.937 316.221 137.177C316.964 138.417 317.438 138.444 318.642 137.633C319.526 137.036 319.435 136.229 319.193 135.427C318.827 134.165 318.871 132.819 319.321 131.584C319.881 129.902 319.859 129.893 321.6 130.271C322.578 130.453 323.588 130.356 324.514 129.99C325.44 129.624 326.243 129.004 326.833 128.202C326.936 128.117 327.019 128.011 327.077 127.89C327.134 127.77 327.164 127.638 327.165 127.504C327.272 127.406 327.357 127.286 327.413 127.153C327.47 127.019 327.497 126.875 327.494 126.73V126.766C327.533 126.771 327.574 126.761 327.606 126.737C327.638 126.713 327.66 126.678 327.667 126.638H328.209C328.591 126.896 329.035 127.047 329.495 127.076ZM311.581 167.644C312.362 166.824 312.965 165.851 313.349 164.786C313.536 164.33 313.732 163.829 313.126 163.564C312.52 163.3 312.215 163.665 312.019 164.157C311.737 164.936 311.334 165.665 310.824 166.317C309.826 167.443 308.732 167.366 308.007 166.039C307.681 165.33 307.394 164.603 307.15 163.861C306.954 163.368 306.64 163.013 306.056 163.25C305.473 163.487 305.601 163.906 305.742 164.348C306.061 165.435 306.547 166.465 307.182 167.402C307.72 168.136 308.427 168.601 309.808 168.61C310.489 168.506 311.114 168.174 311.581 167.667V167.644ZM294.634 141.384C296.142 141.48 297.533 140.591 297.232 139.447C296.776 137.692 295.408 136.302 294.784 134.533C294.529 133.808 293.221 134.264 293.011 135.267C292.756 136.489 292.66 137.747 292.555 138.626C292.418 140.249 293.376 141.329 294.634 141.407V141.384ZM317.662 159.389C318.573 159.425 319.284 158.546 319.266 157.406C319.248 156.267 318.432 155.268 317.589 155.255C316.745 155.241 315.966 156.33 315.957 157.452C315.935 157.935 316.1 158.408 316.417 158.773C316.734 159.138 317.18 159.367 317.662 159.412V159.389ZM301.284 155.428C300.809 155.485 300.376 155.726 300.078 156.1C299.78 156.473 299.64 156.949 299.689 157.424C299.784 158.336 300.012 159.298 301.206 159.389C302.159 159.462 302.838 158.532 302.82 157.265C302.802 155.998 302.273 155.419 301.284 155.451V155.428ZM297.478 135.021C296.853 135.067 296.425 135.308 296.498 136.074C296.594 137.013 297.546 138.084 298.412 138.057C299.278 138.029 299.091 137.227 299.265 136.799C299.256 135.882 298.317 134.98 297.478 135.044V135.021Z" fill="#0287CC"/>
<path d="M348.844 151.863C348.573 151.262 348.501 150.59 348.639 149.944C349.227 147.456 348.662 145.026 348.457 142.569C348.325 141.533 347.87 140.565 347.158 139.802C343.108 134.658 337.844 130.599 331.837 127.992L331.491 127.805H331.085C331.085 129.082 331.222 130.385 330.283 131.452L330.156 131.757L329.727 132.5L329.481 132.815C328.569 134.638 328.305 134.734 326.869 133.827C326.204 133.672 325.647 132.979 324.836 133.635C323.706 134.547 323.555 135.139 324.553 136.594C326.787 139.848 325.401 140.582 323.273 142.382C322.767 142.811 322.338 142.747 321.983 142.168C321.476 141.456 321.162 140.626 321.071 139.757C321.035 138.959 320.615 138.736 320.014 139.347C319.389 139.887 318.704 140.354 317.971 140.737C317.11 141.252 317.146 142.205 316.978 143.016C316.96 143.092 316.96 143.171 316.976 143.247C316.992 143.324 317.025 143.396 317.072 143.458C317.119 143.521 317.179 143.572 317.247 143.609C317.316 143.646 317.392 143.668 317.47 143.672C319.512 143.932 320.784 145.496 322.366 146.539C322.821 146.849 323.359 147.264 323.387 147.843C323.469 149.748 324.667 151.006 325.834 152.283C326.197 152.628 326.437 153.081 326.519 153.574C326.601 154.067 326.521 154.574 326.29 155.018C325.734 156.294 325.205 157.598 325.301 159.043C325.333 159.53 325.151 160.141 325.962 160.223C326.664 160.296 327.147 160.082 327.366 159.371C327.584 158.616 327.685 157.832 327.667 157.046C327.667 156.007 328.195 155.515 329.189 155.51C331.892 155.51 334.595 155.419 337.298 155.51C339.896 155.601 341.168 157.333 340.726 159.941C340.662 160.319 340.516 160.396 340.156 160.478C338.739 160.72 338.565 160.98 339.29 162.201C339.846 163.113 339.541 163.437 338.643 163.528C337.437 163.721 336.218 163.821 334.996 163.829C334.234 163.778 333.47 163.915 332.773 164.227C332.075 164.539 331.464 165.017 330.994 165.62C329.995 166.715 328.771 167.583 327.407 168.164C323.947 169.804 323.911 170.119 326.008 173.424C326.919 174.846 328.109 176.077 328.528 177.818C328.802 178.957 328.41 180.097 328.756 181.186C329.595 183.825 329.13 186.916 329.768 189.582L330.224 190.722L332.731 191.406L334.554 187.987C336.232 185.074 337.531 182.098 337.745 178.643C337.756 178.068 338.046 177.704 338.429 177.275C339.956 175.666 341.405 174.18 343.443 173.173C345.266 172.261 346.046 169.636 345.494 167.703C344.942 165.77 343.621 164.708 341.847 164.057C340.767 163.655 340.977 163.282 341.62 162.689C342.745 161.707 343.513 160.3 343.671 158.815C343.704 158.247 343.779 157.898 344.127 157.447C344.474 156.996 344.926 156.741 345.467 156.563C345.945 156.367 346.378 156.075 346.861 155.852C348.448 155.123 349.191 153.714 348.844 151.863Z" fill="#B1DDB2"/>
<path d="M336.77 186.62C337.339 184.628 338.638 182.864 338.734 180.73C338.885 177.389 341.141 175.675 343.748 174.349C345.017 173.738 346.008 172.669 346.521 171.358C347.034 170.046 347.032 168.589 346.515 167.279C345.927 165.729 345.262 164.348 343.461 163.897C342.709 163.71 342.499 163.282 343.169 162.634C343.581 162.247 343.911 161.782 344.141 161.265C344.37 160.748 344.494 160.191 344.505 159.626C344.546 158.541 345.12 157.83 346.16 157.347C347.21 156.821 348.216 156.212 349.168 155.524C349.893 155.068 350.371 154.384 350.134 153.431C348.712 153.728 349.423 152.269 348.853 151.868C349.2 153.719 348.279 154.835 346.706 155.583C346.251 155.806 345.795 156.098 345.312 156.294C344.771 156.472 344.297 156.808 343.949 157.26C343.602 157.711 343.399 158.256 343.365 158.824C343.207 160.309 342.494 161.68 341.369 162.662C340.744 163.254 340.557 163.715 341.638 164.116C343.415 164.768 344.719 165.866 345.284 167.849C345.85 169.832 345.175 171.951 343.329 172.886C341.291 173.893 339.769 175.502 338.242 177.111C337.859 177.54 337.642 178.091 337.631 178.666C337.417 182.121 335.872 185.083 334.199 187.996C334.039 188.826 333.488 189.455 333.073 190.143C332.562 190.995 331.705 190.913 330.885 190.79C330.065 190.667 330.01 189.974 330.01 189.309C329.372 186.642 329.618 183.839 328.779 181.209C328.433 180.12 328.825 178.98 328.551 177.84C328.132 176.099 326.933 174.869 326.031 173.446C323.934 170.142 323.97 169.827 327.43 168.186C328.794 167.606 330.018 166.738 331.017 165.643C331.487 165.04 332.098 164.562 332.796 164.25C333.493 163.937 334.257 163.801 335.019 163.851C336.241 163.844 337.46 163.743 338.666 163.551C339.577 163.459 339.869 163.159 339.313 162.224C338.588 161.003 338.762 160.743 340.179 160.501C340.539 160.442 340.685 160.342 340.749 159.963C341.205 157.37 339.919 155.624 337.321 155.533C334.618 155.442 331.915 155.533 329.212 155.533C328.218 155.533 327.681 156.03 327.69 157.069C327.708 157.855 327.607 158.638 327.389 159.394C327.17 160.105 326.687 160.305 325.985 160.246C325.174 160.164 325.356 159.553 325.324 159.065C325.228 157.62 325.757 156.33 326.313 155.04C326.544 154.597 326.624 154.09 326.542 153.597C326.46 153.104 326.22 152.65 325.857 152.306C324.69 151.029 323.492 149.771 323.41 147.866C323.382 147.287 322.863 146.872 322.389 146.562C320.807 145.523 319.535 143.955 317.493 143.695C317.415 143.69 317.339 143.669 317.27 143.632C317.202 143.595 317.142 143.543 317.095 143.481C317.048 143.418 317.015 143.347 316.999 143.27C316.983 143.194 316.983 143.115 317.001 143.039C317.169 142.205 317.133 141.252 317.994 140.76C318.727 140.377 319.412 139.91 320.037 139.369C320.656 138.759 321.058 138.982 321.094 139.78C321.185 140.648 321.499 141.479 322.006 142.191C322.361 142.77 322.79 142.834 323.296 142.405C325.424 140.605 326.81 139.871 324.576 136.616C323.578 135.162 323.729 134.57 324.859 133.658C325.67 133.002 326.227 133.694 326.892 133.849V132.555C325.588 131.981 324.358 132.427 323.054 133.863C322.193 134.816 322.749 135.641 323.209 136.479C323.437 136.894 323.738 137.273 323.998 137.674C324.946 139.128 324.686 140.213 323.223 141.083C322.603 141.452 322.402 140.956 322.279 140.591C322.038 139.853 321.924 139.069 321.723 138.312C321.495 137.45 320.962 137.186 320.356 137.888C319.504 138.76 318.492 139.46 317.375 139.948C316.331 140.468 315.588 143.226 316.135 144.256C316.225 144.407 316.352 144.532 316.505 144.62C316.657 144.708 316.829 144.755 317.005 144.757C319.284 145.026 320.574 146.79 322.197 148.062C322.248 148.103 322.29 148.154 322.32 148.212C322.351 148.27 322.369 148.334 322.375 148.399C322.375 150.304 323.742 151.421 324.818 152.711C325.379 153.395 325.534 154.079 325.073 154.854C324.071 156.581 324.271 158.5 324.412 160.323C324.449 160.834 324.321 161.595 325.082 161.718C325.844 161.841 326.687 162.06 327.43 161.404C328.51 160.46 328.761 159.188 328.948 157.889C329.034 157.301 329.18 156.978 329.859 156.9C332.594 156.627 335.329 156.367 338.064 156.841C339.286 157.051 339.842 157.794 339.728 159.011C339.682 159.512 339.34 159.507 339.012 159.603C337.745 159.972 337.421 160.515 337.973 161.659C338.36 162.475 338.119 162.634 337.358 162.657C336.223 162.689 335.079 162.83 333.962 162.794C333.485 162.741 333.003 162.807 332.559 162.988C332.114 163.169 331.722 163.458 331.418 163.829C329.777 165.857 327.494 166.933 325.247 168.095C322.999 169.257 322.908 169.649 323.879 171.983C324.507 173.425 325.349 174.764 326.377 175.953C327.03 176.611 327.408 177.493 327.434 178.419C327.289 181.505 328.506 184.413 328.547 187.463C328.547 187.682 328.547 187.919 328.547 188.115C328.734 188.481 328.797 188.899 328.724 189.304C328.75 189.33 328.767 189.363 328.773 189.399C328.78 189.435 328.775 189.472 328.761 189.505C328.813 189.574 328.855 189.651 328.884 189.733C329.103 190.603 328.825 191.77 330.142 192.012C331.637 192.285 333.123 192.377 334.103 190.881C335.015 189.464 335.881 188.028 336.77 186.62Z" fill="#061111"/>
<path d="M285.772 176.997C286.379 174.089 288.539 172.694 291.033 171.682C291.603 171.483 292.105 171.128 292.483 170.656C292.86 170.184 293.097 169.616 293.166 169.016C293.394 167.735 293.763 166.481 294.009 165.196C294.119 164.751 294.102 164.284 293.96 163.849C293.818 163.413 293.557 163.025 293.207 162.73C292.184 161.727 291.267 160.621 290.472 159.43C289.36 157.862 287.523 157.789 285.859 157.908C284.036 158.04 282.276 158.582 280.485 158.933C279.815 159.061 279.838 159.612 279.842 160.05C279.892 164.33 280.148 168.574 282.067 172.521C282.121 172.686 282.155 172.858 282.167 173.032C282.445 173.086 282.568 173.328 282.755 173.487C283.881 174.554 284.305 176.231 285.772 176.997Z" fill="#B1DDB2"/>
<path d="M286.584 139.638C284.423 142.583 282.386 145.6 281.246 149.119C281.152 149.362 281.072 149.61 281.009 149.862C280.909 150.318 280.449 150.911 281.069 151.23C281.616 151.526 282.153 151.23 282.559 150.747C283.015 150.209 283.507 149.48 283.963 150.747C284.492 151.202 284.309 152.597 285.677 151.987C285.258 150.952 284.715 149.958 284.524 148.837C284.369 147.925 284.711 147.406 285.691 147.437C287.305 147.436 288.903 147.771 290.381 148.422C290.969 148.709 291.58 149.078 291.507 149.867C291.434 150.656 291.899 150.906 292.573 151.025C293.357 151.157 293.631 150.678 293.941 150.09C294.296 149.379 293.941 148.992 293.398 148.723C292.108 148.062 292.172 147.264 292.824 146.097C293.736 144.438 293.111 143.098 291.27 142.706C289.579 142.346 288.125 141.74 287.295 140.108C287.14 139.871 286.958 139.593 286.584 139.638Z" fill="#B1DDB2"/>
<path d="M317.479 125.161C316.463 125.225 315.506 125.285 314.548 125.353C312.999 125.462 312.269 126.456 313.113 127.764C314.024 129.196 313.742 130.499 313.363 131.867C313.113 132.778 313.322 133.325 314.161 133.772C315.232 134.342 316.335 134.893 317.005 136.001C317.147 136.233 317.265 136.735 317.721 136.507C317.81 136.464 317.889 136.403 317.954 136.328C318.018 136.252 318.065 136.164 318.093 136.069C318.121 135.974 318.129 135.874 318.116 135.776C318.103 135.678 318.069 135.584 318.017 135.499C317.238 133.612 317.885 131.853 318.414 130.03C318.715 129.013 319.239 128.74 320.237 128.913C321.828 129.196 323.428 129.405 324.895 128.389C325.237 128.202 325.531 127.94 325.757 127.623C326.409 126.493 326.263 126.164 324.964 125.936C323.893 125.75 322.817 125.549 321.737 125.44C320.314 125.312 318.86 125.253 317.479 125.161Z" fill="#F6F6F6"/>
<path d="M286.584 139.638C286.962 139.593 287.145 139.871 287.277 140.131C288.107 141.763 289.556 142.369 291.252 142.729C293.075 143.121 293.731 144.461 292.806 146.12C292.154 147.287 292.09 148.085 293.38 148.746C293.909 149.019 294.292 149.407 293.923 150.113C293.631 150.701 293.358 151.18 292.555 151.048C291.881 150.929 291.411 150.724 291.489 149.89C291.566 149.056 290.951 148.732 290.363 148.445C288.885 147.795 287.287 147.462 285.673 147.465C284.692 147.433 284.351 147.921 284.506 148.864C284.697 149.985 285.239 150.979 285.659 152.014C284.291 152.625 284.474 151.225 283.945 150.774C283.744 151.23 282.919 150.943 282.887 151.626C283.293 151.503 283.512 151.667 283.69 152.05C283.972 152.569 284.414 152.983 284.951 153.229C285.487 153.475 286.089 153.542 286.666 153.418C287.514 153.185 287.067 152.575 286.876 152.187C286.488 151.412 285.964 150.715 285.736 149.849C285.508 148.983 285.736 148.577 286.675 148.732C287.364 148.846 288.043 148.928 288.745 149.024C289.779 149.17 290.422 149.644 290.363 150.811C290.304 151.977 291.275 152.146 292.118 152.338C292.961 152.529 293.941 152.871 294.511 151.731C294.684 151.38 294.839 151.02 295.035 150.683C295.655 149.607 295.427 148.796 294.324 148.217C293.508 147.788 293.244 147.305 293.868 146.394C294.866 144.871 293.9 142.423 292.195 141.835C291.95 141.748 291.701 141.673 291.448 141.612C290.171 141.343 289.073 140.855 288.544 139.524C288.366 139.233 288.145 138.97 287.888 138.745H286.83L287.61 139.274L287.664 139.374L287.605 139.274C287.236 139.338 286.794 139.155 286.584 139.638Z" fill="#071312"/>
<path d="M285.773 176.997C284.3 176.231 284.186 174.454 283.047 173.401C282.86 173.228 282.819 172.717 282.154 173.045C282.742 175.265 283.913 177.148 285.381 179.313C285.549 178.31 285.672 177.654 285.773 176.997Z" fill="#B1DDB2"/>
<path d="M328.196 126.675C328.585 126.922 329.034 127.06 329.495 127.076C329.166 126.611 328.797 126.274 328.196 126.675Z" fill="#061111"/>
<path d="M329.723 127.263L329.882 128.539C330.27 128.056 330.653 127.577 329.723 127.263Z" fill="#061111"/>
<path d="M287.906 138.084C288.03 138.026 288.141 137.941 288.229 137.835C288.317 137.73 288.381 137.606 288.416 137.473C287.678 137.195 287.91 137.738 287.906 138.084Z" fill="#071312"/>
<path d="M329.18 131.037C328.913 131.277 328.731 131.597 328.661 131.949C329.285 131.921 329.221 131.465 329.18 131.037Z" fill="#061111"/>
<path d="M327.922 132.874L327.384 132.797C327.462 132.92 327.516 133.111 327.63 133.152C327.744 133.193 327.886 133.034 327.922 132.874Z" fill="#061111"/>
<path d="M327.152 127.555C327.259 127.456 327.343 127.336 327.4 127.203C327.456 127.069 327.484 126.925 327.48 126.78C327.065 126.907 327.152 127.24 327.152 127.555Z" fill="#061111"/>
<path d="M349.487 151.522L349.437 151.822H349.606C349.606 151.781 349.633 151.731 349.606 151.699C349.571 151.637 349.531 151.578 349.487 151.522Z" fill="#061111"/>
<path d="M287.272 178.939C287.272 178.593 287.272 178.242 287.272 177.895C287.168 178.05 287.113 178.231 287.113 178.417C287.113 178.603 287.168 178.785 287.272 178.939Z" fill="#0287CC"/>
<path d="M326.851 128.229C326.954 128.144 327.037 128.038 327.095 127.918C327.152 127.797 327.183 127.665 327.184 127.532C326.851 127.659 326.869 127.951 326.851 128.229Z" fill="#061111"/>
<path d="M330.151 131.748L330.279 131.443L329.955 131.593L330.151 131.748Z" fill="#061111"/>
<path d="M329.495 130.417C329.411 130.467 329.343 130.54 329.3 130.627C329.256 130.714 329.238 130.812 329.249 130.909C329.331 130.858 329.398 130.785 329.442 130.698C329.485 130.611 329.503 130.514 329.495 130.417Z" fill="#061111"/>
<path d="M327.48 126.816C327.52 126.821 327.56 126.811 327.593 126.787C327.625 126.764 327.647 126.728 327.653 126.689C327.476 126.565 327.462 126.675 327.48 126.816Z" fill="#061111"/>
<path d="M350.718 145.291C350.692 145.268 350.665 145.248 350.636 145.231C350.636 145.231 350.599 145.231 350.581 145.231L350.736 145.263L350.718 145.291Z" fill="#02ABEB"/>
<path d="M331.491 127.819L331.838 128.006L331.491 127.819Z" fill="#061111"/>
<path d="M331.086 127.819L331.022 127.714L331.081 127.819H331.086Z" fill="#061111"/>
<path d="M329.477 132.806L329.723 132.491L329.477 132.806Z" fill="#061111"/>
<path d="M265.242 152.707C265.215 152.707 265.179 152.707 265.16 152.707C265.137 152.726 265.123 152.754 265.119 152.784C265.174 152.894 265.233 152.894 265.283 152.784C265.288 152.766 265.256 152.73 265.242 152.707Z" fill="#BFD52E"/>
<path d="M309.831 168.633C310.515 168.523 311.141 168.182 311.604 167.667C312.385 166.847 312.988 165.874 313.372 164.809C313.559 164.353 313.755 163.852 313.149 163.587C312.543 163.323 312.237 163.687 312.041 164.18C311.76 164.959 311.357 165.688 310.847 166.34C309.849 167.466 308.755 167.389 308.03 166.062C307.703 165.353 307.417 164.625 307.173 163.883C306.977 163.391 306.663 163.036 306.079 163.273C305.496 163.51 305.623 163.929 305.765 164.371C306.084 165.457 306.57 166.488 307.205 167.425C307.72 168.159 308.427 168.624 309.831 168.633Z" fill="#050D15"/>
<path d="M293.011 135.29C293.22 134.287 294.529 133.831 294.784 134.556C295.413 136.324 296.767 137.715 297.232 139.47C297.533 140.614 296.142 141.503 294.634 141.407C293.375 141.329 292.418 140.249 292.546 138.672C292.66 137.769 292.756 136.511 293.011 135.29ZM295.527 140.304C296.329 140.153 296.648 139.47 296.065 138.936C295.235 138.148 294.337 137.482 294.565 136.147C294.588 136.037 294.387 135.805 294.264 135.778C293.982 135.718 293.927 135.964 293.895 136.188L293.644 138.13C293.576 140.012 294.169 140.582 295.527 140.317V140.304Z" fill="#071312"/>
<path d="M315.957 157.475C315.941 157.954 316.108 158.421 316.425 158.781C316.742 159.141 317.184 159.367 317.661 159.412C318.573 159.448 319.284 158.569 319.266 157.429C319.248 156.29 318.432 155.291 317.588 155.278C316.745 155.264 315.966 156.353 315.957 157.475Z" fill="#050D15"/>
<path d="M302.82 157.288C302.82 156.052 302.273 155.419 301.284 155.464C300.81 155.522 300.376 155.763 300.078 156.136C299.78 156.51 299.64 156.985 299.689 157.461C299.784 158.372 300.012 159.334 301.207 159.425C302.159 159.485 302.838 158.555 302.82 157.288Z" fill="#050D15"/>
<path d="M298.435 138.079C297.569 138.107 296.612 137.036 296.521 136.097C296.448 135.331 296.876 135.089 297.501 135.044C298.34 134.98 299.278 135.882 299.288 136.821C299.092 137.25 299.306 138.052 298.435 138.079ZM298.175 137.081C298.535 137.168 298.599 136.876 298.595 136.625C298.595 136.088 298.171 135.919 297.765 135.768C297.359 135.618 297.309 135.837 297.309 136.147C297.268 136.721 297.674 136.963 298.153 137.081H298.175Z" fill="#071312"/>
<path d="M328.711 189.291C328.783 188.885 328.72 188.468 328.533 188.101C328.451 188.52 328.323 188.944 328.711 189.291Z" fill="#0287CC"/>
<path d="M287.6 139.292L287.66 139.392L287.605 139.292H287.6Z" fill="#060807"/>
<path d="M293.645 138.125C293.576 140.012 294.169 140.577 295.527 140.317C296.329 140.167 296.649 139.483 296.065 138.95C295.235 138.161 294.338 137.496 294.565 136.16C294.588 136.051 294.388 135.819 294.265 135.791C293.982 135.732 293.927 135.978 293.895 136.201L293.645 138.125Z" fill="#B1DDB2"/>
<path d="M297.268 136.129C297.268 136.721 297.674 136.963 298.153 137.081C298.513 137.168 298.577 136.876 298.572 136.625C298.572 136.088 298.148 135.919 297.742 135.768C297.337 135.618 297.277 135.819 297.268 136.129Z" fill="#B1DDB2"/>
<g filter="url(#filter0_f_552_78)">
<ellipse cx="336.5" cy="201.5" rx="35.5" ry="7.5" fill="black" fill-opacity="0.1"/>
</g>
<defs>
<filter id="filter0_f_552_78" x="297" y="190" width="79" height="23" filterUnits="userSpaceOnUse" color-interpolation-filters="sRGB">
<feFlood flood-opacity="0" result="BackgroundImageFix"/>
<feBlend mode="normal" in="SourceGraphic" in2="BackgroundImageFix" result="shape"/>
<feGaussianBlur stdDeviation="2" result="effect1_foregroundBlur_552_78"/>
</filter>
<linearGradient id="paint0_linear_552_78" x1="207" y1="7.5907e-08" x2="206.427" y2="343.985" gradientUnits="userSpaceOnUse">
<stop stop-color="#428A49"/>
<stop offset="1" stop-color="#90DF98"/>
</linearGradient>
</defs>
</svg>
