<svg width="294" height="220" viewBox="0 0 294 220" fill="none" xmlns="http://www.w3.org/2000/svg">
<g filter="url(#filter0_d_456_3)">
<rect x="4" y="3" width="252" height="200" rx="10" fill="white"/>
</g>
<rect x="24.5" y="42.5" width="21" height="21" rx="4.5" stroke="#5BA563"/>
<rect x="24.5" y="74.5" width="21" height="21" rx="4.5" stroke="#5BA563"/>
<rect x="88.5" y="74.5" width="21" height="21" rx="4.5" stroke="#5BA563"/>
<rect x="24.5" y="106.5" width="21" height="21" rx="4.5" stroke="#5BA563"/>
<rect x="88.5" y="106.5" width="21" height="21" rx="4.5" stroke="#5BA563"/>
<rect x="56" y="42" width="22" height="22" rx="5" fill="#353535"/>
<rect x="56" y="74" width="22" height="22" rx="5" fill="#353535"/>
<rect x="56" y="106" width="22" height="22" rx="5" fill="#353535"/>
<rect x="56" y="138" width="22" height="22" rx="5" fill="#353535"/>
<rect x="24.5" y="138.5" width="21" height="21" rx="4.5" stroke="#5BA563"/>
<rect x="24.5" y="170.5" width="21" height="21" rx="4.5" stroke="#5BA563"/>
<rect x="56" y="170" width="22" height="22" rx="5" fill="#353535"/>
<rect x="88.5" y="42.5" width="21" height="21" rx="4.5" stroke="#5BA563"/>
<rect x="88" y="138" width="22" height="22" rx="5" fill="#7AA37E"/>
<rect x="120" y="42" width="22" height="22" rx="5" fill="#7AA37E"/>
<rect x="120.5" y="74.5" width="21" height="21" rx="4.5" stroke="#5BA563"/>
<rect x="120" y="106" width="22" height="22" rx="5" fill="#7AA37E"/>
<rect x="120" y="138" width="22" height="22" rx="5" fill="#7AA37E"/>
<rect x="152.5" y="42.5" width="21" height="21" rx="4.5" fill="#FFE600" stroke="#FFE600"/>
<rect x="152" y="74" width="22" height="22" rx="5" fill="#FFE600"/>
<rect x="153" y="106" width="22" height="22" rx="5" fill="#FFE600"/>
<rect x="152" y="138" width="22" height="22" rx="5" fill="#FFE600"/>
<rect x="184" y="42" width="22" height="22" rx="5" fill="#353535"/>
<rect x="184" y="74" width="22" height="22" rx="5" fill="#353535"/>
<rect x="184" y="106" width="22" height="22" rx="5" fill="#353535"/>
<rect x="184.5" y="138.5" width="21" height="21" rx="4.5" stroke="#5BA563"/>
<rect x="216.5" y="42.5" width="21" height="21" rx="4.5" stroke="#5BA563"/>
<rect x="216" y="74" width="22" height="22" rx="5" fill="#7AA37E"/>
<rect x="216.5" y="106.5" width="21" height="21" rx="4.5" fill="#FFE600" stroke="#FFE600"/>
<rect x="216" y="138" width="22" height="22" rx="5" fill="#7AA37E"/>
<path d="M33.342 51.24V50.493H35.034V57H34.206V51.24H33.342Z" fill="#458D4C"/>
<path d="M33.746 85.616C33.41 85.484 33.152 85.292 32.972 85.04C32.792 84.788 32.702 84.482 32.702 84.122C32.702 83.798 32.783 83.507 32.945 83.249C33.107 82.985 33.347 82.778 33.665 82.628C33.989 82.472 34.379 82.394 34.835 82.394C35.291 82.394 35.678 82.472 35.996 82.628C36.32 82.778 36.563 82.985 36.725 83.249C36.893 83.507 36.977 83.798 36.977 84.122C36.977 84.47 36.884 84.776 36.698 85.04C36.512 85.298 36.257 85.49 35.933 85.616C36.305 85.73 36.599 85.931 36.815 86.219C37.037 86.501 37.148 86.843 37.148 87.245C37.148 87.635 37.052 87.977 36.86 88.271C36.668 88.559 36.395 88.784 36.041 88.946C35.693 89.102 35.291 89.18 34.835 89.18C34.379 89.18 33.977 89.102 33.629 88.946C33.287 88.784 33.02 88.559 32.828 88.271C32.636 87.977 32.54 87.635 32.54 87.245C32.54 86.843 32.648 86.498 32.864 86.21C33.08 85.922 33.374 85.724 33.746 85.616ZM36.185 84.221C36.185 83.855 36.065 83.573 35.825 83.375C35.585 83.177 35.255 83.078 34.835 83.078C34.421 83.078 34.094 83.177 33.854 83.375C33.614 83.573 33.494 83.858 33.494 84.23C33.494 84.566 33.617 84.836 33.863 85.04C34.115 85.244 34.439 85.346 34.835 85.346C35.237 85.346 35.561 85.244 35.807 85.04C36.059 84.83 36.185 84.557 36.185 84.221ZM34.835 85.976C34.391 85.976 34.028 86.081 33.746 86.291C33.464 86.495 33.323 86.804 33.323 87.218C33.323 87.602 33.458 87.911 33.728 88.145C34.004 88.379 34.373 88.496 34.835 88.496C35.297 88.496 35.663 88.379 35.933 88.145C36.203 87.911 36.338 87.602 36.338 87.218C36.338 86.816 36.2 86.51 35.924 86.3C35.648 86.084 35.285 85.976 34.835 85.976Z" fill="#458D4C"/>
<path d="M95.342 83.24V82.493H97.034V89H96.206V83.24H95.342ZM98.4408 85.679C98.4408 84.647 98.6088 83.843 98.9448 83.267C99.2808 82.685 99.8688 82.394 100.709 82.394C101.543 82.394 102.128 82.685 102.464 83.267C102.8 83.843 102.968 84.647 102.968 85.679C102.968 86.729 102.8 87.545 102.464 88.127C102.128 88.709 101.543 89 100.709 89C99.8688 89 99.2808 88.709 98.9448 88.127C98.6088 87.545 98.4408 86.729 98.4408 85.679ZM102.158 85.679C102.158 85.157 102.122 84.716 102.05 84.356C101.984 83.99 101.843 83.696 101.627 83.474C101.417 83.252 101.111 83.141 100.709 83.141C100.301 83.141 99.9888 83.252 99.7728 83.474C99.5628 83.696 99.4218 83.99 99.3498 84.356C99.2838 84.716 99.2508 85.157 99.2508 85.679C99.2508 86.219 99.2838 86.672 99.3498 87.038C99.4218 87.404 99.5628 87.698 99.7728 87.92C99.9888 88.142 100.301 88.253 100.709 88.253C101.111 88.253 101.417 88.142 101.627 87.92C101.843 87.698 101.984 87.404 102.05 87.038C102.122 86.672 102.158 86.219 102.158 85.679Z" fill="#458D4C"/>
<path d="M31.342 115.24V114.493H33.034V121H32.206V115.24H31.342ZM38.5898 115.204H35.4308V117.256C35.5688 117.064 35.7728 116.908 36.0428 116.788C36.3128 116.662 36.6038 116.599 36.9158 116.599C37.4138 116.599 37.8188 116.704 38.1308 116.914C38.4428 117.118 38.6648 117.385 38.7968 117.715C38.9348 118.039 39.0038 118.384 39.0038 118.75C39.0038 119.182 38.9228 119.569 38.7608 119.911C38.5988 120.253 38.3498 120.523 38.0138 120.721C37.6838 120.919 37.2728 121.018 36.7808 121.018C36.1508 121.018 35.6408 120.856 35.2508 120.532C34.8608 120.208 34.6238 119.776 34.5398 119.236H35.3408C35.4188 119.578 35.5838 119.845 35.8358 120.037C36.0878 120.229 36.4058 120.325 36.7898 120.325C37.2638 120.325 37.6208 120.184 37.8608 119.902C38.1008 119.614 38.2208 119.236 38.2208 118.768C38.2208 118.3 38.1008 117.94 37.8608 117.688C37.6208 117.43 37.2668 117.301 36.7988 117.301C36.4808 117.301 36.2018 117.379 35.9618 117.535C35.7278 117.685 35.5568 117.892 35.4488 118.156H34.6748V114.484H38.5898V115.204Z" fill="#458D4C"/>
<path d="M95.342 115.24V114.493H97.034V121H96.206V115.24H95.342ZM102.446 115.132L99.9438 121H99.1158L101.654 115.213H98.1798V114.511H102.446V115.132Z" fill="#458D4C"/>
<path d="M65.459 56.343C66.221 55.731 66.818 55.23 67.25 54.84C67.682 54.444 68.045 54.033 68.339 53.607C68.639 53.175 68.789 52.752 68.789 52.338C68.789 51.948 68.693 51.642 68.501 51.42C68.315 51.192 68.012 51.078 67.592 51.078C67.184 51.078 66.866 51.207 66.638 51.465C66.416 51.717 66.296 52.056 66.278 52.482H65.486C65.51 51.81 65.714 51.291 66.098 50.925C66.482 50.559 66.977 50.376 67.583 50.376C68.201 50.376 68.69 50.547 69.05 50.889C69.416 51.231 69.599 51.702 69.599 52.302C69.599 52.8 69.449 53.286 69.149 53.76C68.855 54.228 68.519 54.642 68.141 55.002C67.763 55.356 67.28 55.77 66.692 56.244H69.788V56.928H65.459V56.343Z" fill="white"/>
<path d="M65.611 87.254C65.671 87.596 65.809 87.86 66.025 88.046C66.247 88.232 66.544 88.325 66.916 88.325C67.414 88.325 67.78 88.13 68.014 87.74C68.254 87.35 68.368 86.693 68.356 85.769C68.23 86.039 68.02 86.252 67.726 86.408C67.432 86.558 67.105 86.633 66.745 86.633C66.343 86.633 65.983 86.552 65.665 86.39C65.353 86.222 65.107 85.979 64.927 85.661C64.747 85.343 64.657 84.959 64.657 84.509C64.657 83.867 64.843 83.351 65.215 82.961C65.587 82.565 66.115 82.367 66.799 82.367C67.639 82.367 68.227 82.64 68.563 83.186C68.905 83.732 69.076 84.545 69.076 85.625C69.076 86.381 69.007 87.005 68.869 87.497C68.737 87.989 68.509 88.364 68.185 88.622C67.867 88.88 67.429 89.009 66.871 89.009C66.259 89.009 65.782 88.844 65.44 88.514C65.098 88.184 64.903 87.764 64.855 87.254H65.611ZM66.88 85.94C67.282 85.94 67.612 85.817 67.87 85.571C68.128 85.319 68.257 84.98 68.257 84.554C68.257 84.104 68.131 83.741 67.879 83.465C67.627 83.189 67.273 83.051 66.817 83.051C66.397 83.051 66.061 83.183 65.809 83.447C65.563 83.711 65.44 84.059 65.44 84.491C65.44 84.929 65.563 85.28 65.809 85.544C66.055 85.808 66.412 85.94 66.88 85.94Z" fill="white"/>
<path d="M63.342 115.24V114.493H65.034V121H64.206V115.24H63.342ZM70.0678 116.041C69.9358 115.375 69.5248 115.042 68.8348 115.042C68.3008 115.042 67.9018 115.249 67.6378 115.663C67.3738 116.071 67.2448 116.746 67.2508 117.688C67.3888 117.376 67.6168 117.133 67.9348 116.959C68.2588 116.779 68.6188 116.689 69.0148 116.689C69.6328 116.689 70.1248 116.881 70.4908 117.265C70.8628 117.649 71.0488 118.18 71.0488 118.858C71.0488 119.266 70.9678 119.632 70.8058 119.956C70.6498 120.28 70.4098 120.538 70.0858 120.73C69.7678 120.922 69.3808 121.018 68.9248 121.018C68.3068 121.018 67.8238 120.88 67.4758 120.604C67.1278 120.328 66.8848 119.947 66.7468 119.461C66.6088 118.975 66.5398 118.375 66.5398 117.661C66.5398 115.459 67.3078 114.358 68.8438 114.358C69.4318 114.358 69.8938 114.517 70.2298 114.835C70.5658 115.153 70.7638 115.555 70.8238 116.041H70.0678ZM68.8438 117.382C68.5858 117.382 68.3428 117.436 68.1148 117.544C67.8868 117.646 67.7008 117.805 67.5568 118.021C67.4188 118.231 67.3498 118.489 67.3498 118.795C67.3498 119.251 67.4818 119.623 67.7458 119.911C68.0098 120.193 68.3878 120.334 68.8798 120.334C69.2998 120.334 69.6328 120.205 69.8788 119.947C70.1308 119.683 70.2568 119.329 70.2568 118.885C70.2568 118.417 70.1368 118.051 69.8968 117.787C69.6568 117.517 69.3058 117.382 68.8438 117.382Z" fill="white"/>
<path d="M62.459 152.343C63.221 151.731 63.818 151.23 64.25 150.84C64.682 150.444 65.045 150.033 65.339 149.607C65.639 149.175 65.789 148.752 65.789 148.338C65.789 147.948 65.693 147.642 65.501 147.42C65.315 147.192 65.012 147.078 64.592 147.078C64.184 147.078 63.866 147.207 63.638 147.465C63.416 147.717 63.296 148.056 63.278 148.482H62.486C62.51 147.81 62.714 147.291 63.098 146.925C63.482 146.559 63.977 146.376 64.583 146.376C65.201 146.376 65.69 146.547 66.05 146.889C66.416 147.231 66.599 147.702 66.599 148.302C66.599 148.8 66.449 149.286 66.149 149.76C65.855 150.228 65.519 150.642 65.141 151.002C64.763 151.356 64.28 151.77 63.692 152.244H66.788V152.928H62.459V152.343ZM67.7168 148.131C67.7588 147.579 67.9718 147.147 68.3558 146.835C68.7398 146.523 69.2378 146.367 69.8498 146.367C70.2578 146.367 70.6088 146.442 70.9028 146.592C71.2028 146.736 71.4278 146.934 71.5778 147.186C71.7338 147.438 71.8118 147.723 71.8118 148.041C71.8118 148.413 71.7038 148.734 71.4878 149.004C71.2778 149.274 71.0018 149.448 70.6598 149.526V149.571C71.0498 149.667 71.3588 149.856 71.5868 150.138C71.8148 150.42 71.9288 150.789 71.9288 151.245C71.9288 151.587 71.8508 151.896 71.6948 152.172C71.5388 152.442 71.3048 152.655 70.9928 152.811C70.6808 152.967 70.3058 153.045 69.8678 153.045C69.2318 153.045 68.7098 152.88 68.3018 152.55C67.8938 152.214 67.6658 151.74 67.6178 151.128H68.4098C68.4518 151.488 68.5988 151.782 68.8508 152.01C69.1028 152.238 69.4388 152.352 69.8588 152.352C70.2788 152.352 70.5968 152.244 70.8128 152.028C71.0348 151.806 71.1458 151.521 71.1458 151.173C71.1458 150.723 70.9958 150.399 70.6958 150.201C70.3958 150.003 69.9428 149.904 69.3368 149.904H69.1298V149.22H69.3458C69.8978 149.214 70.3148 149.124 70.5968 148.95C70.8788 148.77 71.0198 148.494 71.0198 148.122C71.0198 147.804 70.9148 147.549 70.7048 147.357C70.5008 147.165 70.2068 147.069 69.8228 147.069C69.4508 147.069 69.1508 147.165 68.9228 147.357C68.6948 147.549 68.5598 147.807 68.5178 148.131H67.7168Z" fill="white"/>
<path d="M30.459 152.343C31.221 151.731 31.818 151.23 32.25 150.84C32.682 150.444 33.045 150.033 33.339 149.607C33.639 149.175 33.789 148.752 33.789 148.338C33.789 147.948 33.693 147.642 33.501 147.42C33.315 147.192 33.012 147.078 32.592 147.078C32.184 147.078 31.866 147.207 31.638 147.465C31.416 147.717 31.296 148.056 31.278 148.482H30.486C30.51 147.81 30.714 147.291 31.098 146.925C31.482 146.559 31.977 146.376 32.583 146.376C33.201 146.376 33.69 146.547 34.05 146.889C34.416 147.231 34.599 147.702 34.599 148.302C34.599 148.8 34.449 149.286 34.149 149.76C33.855 150.228 33.519 150.642 33.141 151.002C32.763 151.356 32.28 151.77 31.692 152.244H34.788V152.928H30.459V152.343ZM35.6358 152.343C36.3978 151.731 36.9948 151.23 37.4268 150.84C37.8588 150.444 38.2218 150.033 38.5158 149.607C38.8158 149.175 38.9658 148.752 38.9658 148.338C38.9658 147.948 38.8698 147.642 38.6778 147.42C38.4918 147.192 38.1888 147.078 37.7688 147.078C37.3608 147.078 37.0428 147.207 36.8148 147.465C36.5928 147.717 36.4728 148.056 36.4548 148.482H35.6628C35.6868 147.81 35.8908 147.291 36.2748 146.925C36.6588 146.559 37.1538 146.376 37.7598 146.376C38.3778 146.376 38.8668 146.547 39.2268 146.889C39.5928 147.231 39.7758 147.702 39.7758 148.302C39.7758 148.8 39.6258 149.286 39.3258 149.76C39.0318 150.228 38.6958 150.642 38.3178 151.002C37.9398 151.356 37.4568 151.77 36.8688 152.244H39.9648V152.928H35.6358V152.343Z" fill="#458D4C"/>
<path d="M30.459 184.343C31.221 183.731 31.818 183.23 32.25 182.84C32.682 182.444 33.045 182.033 33.339 181.607C33.639 181.175 33.789 180.752 33.789 180.338C33.789 179.948 33.693 179.642 33.501 179.42C33.315 179.192 33.012 179.078 32.592 179.078C32.184 179.078 31.866 179.207 31.638 179.465C31.416 179.717 31.296 180.056 31.278 180.482H30.486C30.51 179.81 30.714 179.291 31.098 178.925C31.482 178.559 31.977 178.376 32.583 178.376C33.201 178.376 33.69 178.547 34.05 178.889C34.416 179.231 34.599 179.702 34.599 180.302C34.599 180.8 34.449 181.286 34.149 181.76C33.855 182.228 33.519 182.642 33.141 183.002C32.763 183.356 32.28 183.77 31.692 184.244H34.788V184.928H30.459V184.343ZM36.7878 183.254C36.8478 183.596 36.9858 183.86 37.2018 184.046C37.4238 184.232 37.7208 184.325 38.0928 184.325C38.5908 184.325 38.9568 184.13 39.1908 183.74C39.4308 183.35 39.5448 182.693 39.5328 181.769C39.4068 182.039 39.1968 182.252 38.9028 182.408C38.6088 182.558 38.2818 182.633 37.9218 182.633C37.5198 182.633 37.1598 182.552 36.8418 182.39C36.5298 182.222 36.2838 181.979 36.1038 181.661C35.9238 181.343 35.8338 180.959 35.8338 180.509C35.8338 179.867 36.0198 179.351 36.3918 178.961C36.7638 178.565 37.2918 178.367 37.9758 178.367C38.8158 178.367 39.4038 178.64 39.7398 179.186C40.0818 179.732 40.2528 180.545 40.2528 181.625C40.2528 182.381 40.1838 183.005 40.0458 183.497C39.9138 183.989 39.6858 184.364 39.3618 184.622C39.0438 184.88 38.6058 185.009 38.0478 185.009C37.4358 185.009 36.9588 184.844 36.6168 184.514C36.2748 184.184 36.0798 183.764 36.0318 183.254H36.7878ZM38.0568 181.94C38.4588 181.94 38.7888 181.817 39.0468 181.571C39.3048 181.319 39.4338 180.98 39.4338 180.554C39.4338 180.104 39.3078 179.741 39.0558 179.465C38.8038 179.189 38.4498 179.051 37.9938 179.051C37.5738 179.051 37.2378 179.183 36.9858 179.447C36.7398 179.711 36.6168 180.059 36.6168 180.491C36.6168 180.929 36.7398 181.28 36.9858 181.544C37.2318 181.808 37.5888 181.94 38.0568 181.94Z" fill="#458D4C"/>
<path d="M62.54 180.131C62.582 179.579 62.795 179.147 63.179 178.835C63.563 178.523 64.061 178.367 64.673 178.367C65.081 178.367 65.432 178.442 65.726 178.592C66.026 178.736 66.251 178.934 66.401 179.186C66.557 179.438 66.635 179.723 66.635 180.041C66.635 180.413 66.527 180.734 66.311 181.004C66.101 181.274 65.825 181.448 65.483 181.526V181.571C65.873 181.667 66.182 181.856 66.41 182.138C66.638 182.42 66.752 182.789 66.752 183.245C66.752 183.587 66.674 183.896 66.518 184.172C66.362 184.442 66.128 184.655 65.816 184.811C65.504 184.967 65.129 185.045 64.691 185.045C64.055 185.045 63.533 184.88 63.125 184.55C62.717 184.214 62.489 183.74 62.441 183.128H63.233C63.275 183.488 63.422 183.782 63.674 184.01C63.926 184.238 64.262 184.352 64.682 184.352C65.102 184.352 65.42 184.244 65.636 184.028C65.858 183.806 65.969 183.521 65.969 183.173C65.969 182.723 65.819 182.399 65.519 182.201C65.219 182.003 64.766 181.904 64.16 181.904H63.953V181.22H64.169C64.721 181.214 65.138 181.124 65.42 180.95C65.702 180.77 65.843 180.494 65.843 180.122C65.843 179.804 65.738 179.549 65.528 179.357C65.324 179.165 65.03 179.069 64.646 179.069C64.274 179.069 63.974 179.165 63.746 179.357C63.518 179.549 63.383 179.807 63.341 180.131H62.54ZM67.8578 181.679C67.8578 180.647 68.0258 179.843 68.3618 179.267C68.6978 178.685 69.2858 178.394 70.1258 178.394C70.9598 178.394 71.5448 178.685 71.8808 179.267C72.2168 179.843 72.3848 180.647 72.3848 181.679C72.3848 182.729 72.2168 183.545 71.8808 184.127C71.5448 184.709 70.9598 185 70.1258 185C69.2858 185 68.6978 184.709 68.3618 184.127C68.0258 183.545 67.8578 182.729 67.8578 181.679ZM71.5748 181.679C71.5748 181.157 71.5388 180.716 71.4668 180.356C71.4008 179.99 71.2598 179.696 71.0438 179.474C70.8338 179.252 70.5278 179.141 70.1258 179.141C69.7178 179.141 69.4058 179.252 69.1898 179.474C68.9798 179.696 68.8388 179.99 68.7668 180.356C68.7008 180.716 68.6678 181.157 68.6678 181.679C68.6678 182.219 68.7008 182.672 68.7668 183.038C68.8388 183.404 68.9798 183.698 69.1898 183.92C69.4058 184.142 69.7178 184.253 70.1258 184.253C70.5278 184.253 70.8338 184.142 71.0438 183.92C71.2598 183.698 71.4008 183.404 71.4668 183.038C71.5388 182.672 71.5748 182.219 71.5748 181.679Z" fill="white"/>
<path d="M97.54 52.131C97.582 51.579 97.795 51.147 98.179 50.835C98.563 50.523 99.061 50.367 99.673 50.367C100.081 50.367 100.432 50.442 100.726 50.592C101.026 50.736 101.251 50.934 101.401 51.186C101.557 51.438 101.635 51.723 101.635 52.041C101.635 52.413 101.527 52.734 101.311 53.004C101.101 53.274 100.825 53.448 100.483 53.526V53.571C100.873 53.667 101.182 53.856 101.41 54.138C101.638 54.42 101.752 54.789 101.752 55.245C101.752 55.587 101.674 55.896 101.518 56.172C101.362 56.442 101.128 56.655 100.816 56.811C100.504 56.967 100.129 57.045 99.691 57.045C99.055 57.045 98.533 56.88 98.125 56.55C97.717 56.214 97.489 55.74 97.441 55.128H98.233C98.275 55.488 98.422 55.782 98.674 56.01C98.926 56.238 99.262 56.352 99.682 56.352C100.102 56.352 100.42 56.244 100.636 56.028C100.858 55.806 100.969 55.521 100.969 55.173C100.969 54.723 100.819 54.399 100.519 54.201C100.219 54.003 99.766 53.904 99.16 53.904H98.953V53.22H99.169C99.721 53.214 100.138 53.124 100.42 52.95C100.702 52.77 100.843 52.494 100.843 52.122C100.843 51.804 100.738 51.549 100.528 51.357C100.324 51.165 100.03 51.069 99.646 51.069C99.274 51.069 98.974 51.165 98.746 51.357C98.518 51.549 98.383 51.807 98.341 52.131H97.54Z" fill="#458D4C"/>
<path d="M94.459 152.343C95.221 151.731 95.818 151.23 96.25 150.84C96.682 150.444 97.045 150.033 97.339 149.607C97.639 149.175 97.789 148.752 97.789 148.338C97.789 147.948 97.693 147.642 97.501 147.42C97.315 147.192 97.012 147.078 96.592 147.078C96.184 147.078 95.866 147.207 95.638 147.465C95.416 147.717 95.296 148.056 95.278 148.482H94.486C94.51 147.81 94.714 147.291 95.098 146.925C95.482 146.559 95.977 146.376 96.583 146.376C97.201 146.376 97.69 146.547 98.05 146.889C98.416 147.231 98.599 147.702 98.599 148.302C98.599 148.8 98.449 149.286 98.149 149.76C97.855 150.228 97.519 150.642 97.141 151.002C96.763 151.356 96.28 151.77 95.692 152.244H98.788V152.928H94.459V152.343ZM99.5368 151.551V150.93L102.696 146.556H103.677V150.84H104.577V151.551H103.677V153H102.867V151.551H99.5368ZM102.903 147.411L100.482 150.84H102.903V147.411Z" fill="white"/>
<path d="M128.36 55.551V54.93L131.519 50.556H132.5V54.84H133.4V55.551H132.5V57H131.69V55.551H128.36ZM131.726 51.411L129.305 54.84H131.726V51.411Z" fill="white"/>
<path d="M128.342 83.24V82.493H130.034V89H129.206V83.24H128.342ZM131.225 83.24V82.493H132.917V89H132.089V83.24H131.225Z" fill="#458D4C"/>
<path d="M127.342 115.24V114.493H129.034V121H128.206V115.24H127.342ZM131.629 117.616C131.293 117.484 131.035 117.292 130.855 117.04C130.675 116.788 130.585 116.482 130.585 116.122C130.585 115.798 130.666 115.507 130.828 115.249C130.99 114.985 131.23 114.778 131.548 114.628C131.872 114.472 132.262 114.394 132.718 114.394C133.174 114.394 133.561 114.472 133.879 114.628C134.203 114.778 134.446 114.985 134.608 115.249C134.776 115.507 134.86 115.798 134.86 116.122C134.86 116.47 134.767 116.776 134.581 117.04C134.395 117.298 134.14 117.49 133.816 117.616C134.188 117.73 134.482 117.931 134.698 118.219C134.92 118.501 135.031 118.843 135.031 119.245C135.031 119.635 134.935 119.977 134.743 120.271C134.551 120.559 134.278 120.784 133.924 120.946C133.576 121.102 133.174 121.18 132.718 121.18C132.262 121.18 131.86 121.102 131.512 120.946C131.17 120.784 130.903 120.559 130.711 120.271C130.519 119.977 130.423 119.635 130.423 119.245C130.423 118.843 130.531 118.498 130.747 118.21C130.963 117.922 131.257 117.724 131.629 117.616ZM134.068 116.221C134.068 115.855 133.948 115.573 133.708 115.375C133.468 115.177 133.138 115.078 132.718 115.078C132.304 115.078 131.977 115.177 131.737 115.375C131.497 115.573 131.377 115.858 131.377 116.23C131.377 116.566 131.5 116.836 131.746 117.04C131.998 117.244 132.322 117.346 132.718 117.346C133.12 117.346 133.444 117.244 133.69 117.04C133.942 116.83 134.068 116.557 134.068 116.221ZM132.718 117.976C132.274 117.976 131.911 118.081 131.629 118.291C131.347 118.495 131.206 118.804 131.206 119.218C131.206 119.602 131.341 119.911 131.611 120.145C131.887 120.379 132.256 120.496 132.718 120.496C133.18 120.496 133.546 120.379 133.816 120.145C134.086 119.911 134.221 119.602 134.221 119.218C134.221 118.816 134.083 118.51 133.807 118.3C133.531 118.084 133.168 117.976 132.718 117.976Z" fill="white"/>
<path d="M125.459 152.343C126.221 151.731 126.818 151.23 127.25 150.84C127.682 150.444 128.045 150.033 128.339 149.607C128.639 149.175 128.789 148.752 128.789 148.338C128.789 147.948 128.693 147.642 128.501 147.42C128.315 147.192 128.012 147.078 127.592 147.078C127.184 147.078 126.866 147.207 126.638 147.465C126.416 147.717 126.296 148.056 126.278 148.482H125.486C125.51 147.81 125.714 147.291 126.098 146.925C126.482 146.559 126.977 146.376 127.583 146.376C128.201 146.376 128.69 146.547 129.05 146.889C129.416 147.231 129.599 147.702 129.599 148.302C129.599 148.8 129.449 149.286 129.149 149.76C128.855 150.228 128.519 150.642 128.141 151.002C127.763 151.356 127.28 151.77 126.692 152.244H129.788V152.928H125.459V152.343ZM134.884 147.204H131.725V149.256C131.863 149.064 132.067 148.908 132.337 148.788C132.607 148.662 132.898 148.599 133.21 148.599C133.708 148.599 134.113 148.704 134.425 148.914C134.737 149.118 134.959 149.385 135.091 149.715C135.229 150.039 135.298 150.384 135.298 150.75C135.298 151.182 135.217 151.569 135.055 151.911C134.893 152.253 134.644 152.523 134.308 152.721C133.978 152.919 133.567 153.018 133.075 153.018C132.445 153.018 131.935 152.856 131.545 152.532C131.155 152.208 130.918 151.776 130.834 151.236H131.635C131.713 151.578 131.878 151.845 132.13 152.037C132.382 152.229 132.7 152.325 133.084 152.325C133.558 152.325 133.915 152.184 134.155 151.902C134.395 151.614 134.515 151.236 134.515 150.768C134.515 150.3 134.395 149.94 134.155 149.688C133.915 149.43 133.561 149.301 133.093 149.301C132.775 149.301 132.496 149.379 132.256 149.535C132.022 149.685 131.851 149.892 131.743 150.156H130.969V146.484H134.884V147.204Z" fill="white"/>
<path d="M164.707 51.204H161.548V53.256C161.686 53.064 161.89 52.908 162.16 52.788C162.43 52.662 162.721 52.599 163.033 52.599C163.531 52.599 163.936 52.704 164.248 52.914C164.56 53.118 164.782 53.385 164.914 53.715C165.052 54.039 165.121 54.384 165.121 54.75C165.121 55.182 165.04 55.569 164.878 55.911C164.716 56.253 164.467 56.523 164.131 56.721C163.801 56.919 163.39 57.018 162.898 57.018C162.268 57.018 161.758 56.856 161.368 56.532C160.978 56.208 160.741 55.776 160.657 55.236H161.458C161.536 55.578 161.701 55.845 161.953 56.037C162.205 56.229 162.523 56.325 162.907 56.325C163.381 56.325 163.738 56.184 163.978 55.902C164.218 55.614 164.338 55.236 164.338 54.768C164.338 54.3 164.218 53.94 163.978 53.688C163.738 53.43 163.384 53.301 162.916 53.301C162.598 53.301 162.319 53.379 162.079 53.535C161.845 53.685 161.674 53.892 161.566 54.156H160.792V50.484H164.707V51.204Z" fill="white"/>
<path d="M159.342 83.24V82.493H161.034V89H160.206V83.24H159.342ZM162.342 88.343C163.104 87.731 163.701 87.23 164.133 86.84C164.565 86.444 164.928 86.033 165.222 85.607C165.522 85.175 165.672 84.752 165.672 84.338C165.672 83.948 165.576 83.642 165.384 83.42C165.198 83.192 164.895 83.078 164.475 83.078C164.067 83.078 163.749 83.207 163.521 83.465C163.299 83.717 163.179 84.056 163.161 84.482H162.369C162.393 83.81 162.597 83.291 162.981 82.925C163.365 82.559 163.86 82.376 164.466 82.376C165.084 82.376 165.573 82.547 165.933 82.889C166.299 83.231 166.482 83.702 166.482 84.302C166.482 84.8 166.332 85.286 166.032 85.76C165.738 86.228 165.402 86.642 165.024 87.002C164.646 87.356 164.163 87.77 163.575 88.244H166.671V88.928H162.342V88.343Z" fill="white"/>
<path d="M159.342 115.24V114.493H161.034V121H160.206V115.24H159.342ZM163.494 119.254C163.554 119.596 163.692 119.86 163.908 120.046C164.13 120.232 164.427 120.325 164.799 120.325C165.297 120.325 165.663 120.13 165.897 119.74C166.137 119.35 166.251 118.693 166.239 117.769C166.113 118.039 165.903 118.252 165.609 118.408C165.315 118.558 164.988 118.633 164.628 118.633C164.226 118.633 163.866 118.552 163.548 118.39C163.236 118.222 162.99 117.979 162.81 117.661C162.63 117.343 162.54 116.959 162.54 116.509C162.54 115.867 162.726 115.351 163.098 114.961C163.47 114.565 163.998 114.367 164.682 114.367C165.522 114.367 166.11 114.64 166.446 115.186C166.788 115.732 166.959 116.545 166.959 117.625C166.959 118.381 166.89 119.005 166.752 119.497C166.62 119.989 166.392 120.364 166.068 120.622C165.75 120.88 165.312 121.009 164.754 121.009C164.142 121.009 163.665 120.844 163.323 120.514C162.981 120.184 162.786 119.764 162.738 119.254H163.494ZM164.763 117.94C165.165 117.94 165.495 117.817 165.753 117.571C166.011 117.319 166.14 116.98 166.14 116.554C166.14 116.104 166.014 115.741 165.762 115.465C165.51 115.189 165.156 115.051 164.7 115.051C164.28 115.051 163.944 115.183 163.692 115.447C163.446 115.711 163.323 116.059 163.323 116.491C163.323 116.929 163.446 117.28 163.692 117.544C163.938 117.808 164.295 117.94 164.763 117.94Z" fill="white"/>
<path d="M158.459 152.343C159.221 151.731 159.818 151.23 160.25 150.84C160.682 150.444 161.045 150.033 161.339 149.607C161.639 149.175 161.789 148.752 161.789 148.338C161.789 147.948 161.693 147.642 161.501 147.42C161.315 147.192 161.012 147.078 160.592 147.078C160.184 147.078 159.866 147.207 159.638 147.465C159.416 147.717 159.296 148.056 159.278 148.482H158.486C158.51 147.81 158.714 147.291 159.098 146.925C159.482 146.559 159.977 146.376 160.583 146.376C161.201 146.376 161.69 146.547 162.05 146.889C162.416 147.231 162.599 147.702 162.599 148.302C162.599 148.8 162.449 149.286 162.149 149.76C161.855 150.228 161.519 150.642 161.141 151.002C160.763 151.356 160.28 151.77 159.692 152.244H162.788V152.928H158.459V152.343ZM167.362 148.041C167.23 147.375 166.819 147.042 166.129 147.042C165.595 147.042 165.196 147.249 164.932 147.663C164.668 148.071 164.539 148.746 164.545 149.688C164.683 149.376 164.911 149.133 165.229 148.959C165.553 148.779 165.913 148.689 166.309 148.689C166.927 148.689 167.419 148.881 167.785 149.265C168.157 149.649 168.343 150.18 168.343 150.858C168.343 151.266 168.262 151.632 168.1 151.956C167.944 152.28 167.704 152.538 167.38 152.73C167.062 152.922 166.675 153.018 166.219 153.018C165.601 153.018 165.118 152.88 164.77 152.604C164.422 152.328 164.179 151.947 164.041 151.461C163.903 150.975 163.834 150.375 163.834 149.661C163.834 147.459 164.602 146.358 166.138 146.358C166.726 146.358 167.188 146.517 167.524 146.835C167.86 147.153 168.058 147.555 168.118 148.041H167.362ZM166.138 149.382C165.88 149.382 165.637 149.436 165.409 149.544C165.181 149.646 164.995 149.805 164.851 150.021C164.713 150.231 164.644 150.489 164.644 150.795C164.644 151.251 164.776 151.623 165.04 151.911C165.304 152.193 165.682 152.334 166.174 152.334C166.594 152.334 166.927 152.205 167.173 151.947C167.425 151.683 167.551 151.329 167.551 150.885C167.551 150.417 167.431 150.051 167.191 149.787C166.951 149.517 166.6 149.382 166.138 149.382Z" fill="white"/>
<path d="M196.185 52.041C196.053 51.375 195.642 51.042 194.952 51.042C194.418 51.042 194.019 51.249 193.755 51.663C193.491 52.071 193.362 52.746 193.368 53.688C193.506 53.376 193.734 53.133 194.052 52.959C194.376 52.779 194.736 52.689 195.132 52.689C195.75 52.689 196.242 52.881 196.608 53.265C196.98 53.649 197.166 54.18 197.166 54.858C197.166 55.266 197.085 55.632 196.923 55.956C196.767 56.28 196.527 56.538 196.203 56.73C195.885 56.922 195.498 57.018 195.042 57.018C194.424 57.018 193.941 56.88 193.593 56.604C193.245 56.328 193.002 55.947 192.864 55.461C192.726 54.975 192.657 54.375 192.657 53.661C192.657 51.459 193.425 50.358 194.961 50.358C195.549 50.358 196.011 50.517 196.347 50.835C196.683 51.153 196.881 51.555 196.941 52.041H196.185ZM194.961 53.382C194.703 53.382 194.46 53.436 194.232 53.544C194.004 53.646 193.818 53.805 193.674 54.021C193.536 54.231 193.467 54.489 193.467 54.795C193.467 55.251 193.599 55.623 193.863 55.911C194.127 56.193 194.505 56.334 194.997 56.334C195.417 56.334 195.75 56.205 195.996 55.947C196.248 55.683 196.374 55.329 196.374 54.885C196.374 54.417 196.254 54.051 196.014 53.787C195.774 53.517 195.423 53.382 194.961 53.382Z" fill="white"/>
<path d="M190.342 83.24V82.493H192.034V89H191.206V83.24H190.342ZM193.423 84.131C193.465 83.579 193.678 83.147 194.062 82.835C194.446 82.523 194.944 82.367 195.556 82.367C195.964 82.367 196.315 82.442 196.609 82.592C196.909 82.736 197.134 82.934 197.284 83.186C197.44 83.438 197.518 83.723 197.518 84.041C197.518 84.413 197.41 84.734 197.194 85.004C196.984 85.274 196.708 85.448 196.366 85.526V85.571C196.756 85.667 197.065 85.856 197.293 86.138C197.521 86.42 197.635 86.789 197.635 87.245C197.635 87.587 197.557 87.896 197.401 88.172C197.245 88.442 197.011 88.655 196.699 88.811C196.387 88.967 196.012 89.045 195.574 89.045C194.938 89.045 194.416 88.88 194.008 88.55C193.6 88.214 193.372 87.74 193.324 87.128H194.116C194.158 87.488 194.305 87.782 194.557 88.01C194.809 88.238 195.145 88.352 195.565 88.352C195.985 88.352 196.303 88.244 196.519 88.028C196.741 87.806 196.852 87.521 196.852 87.173C196.852 86.723 196.702 86.399 196.402 86.201C196.102 86.003 195.649 85.904 195.043 85.904H194.836V85.22H195.052C195.604 85.214 196.021 85.124 196.303 84.95C196.585 84.77 196.726 84.494 196.726 84.122C196.726 83.804 196.621 83.549 196.411 83.357C196.207 83.165 195.913 83.069 195.529 83.069C195.157 83.069 194.857 83.165 194.629 83.357C194.401 83.549 194.266 83.807 194.224 84.131H193.423Z" fill="white"/>
<path d="M190.459 120.343C191.221 119.731 191.818 119.23 192.25 118.84C192.682 118.444 193.045 118.033 193.339 117.607C193.639 117.175 193.789 116.752 193.789 116.338C193.789 115.948 193.693 115.642 193.501 115.42C193.315 115.192 193.012 115.078 192.592 115.078C192.184 115.078 191.866 115.207 191.638 115.465C191.416 115.717 191.296 116.056 191.278 116.482H190.486C190.51 115.81 190.714 115.291 191.098 114.925C191.482 114.559 191.977 114.376 192.583 114.376C193.201 114.376 193.69 114.547 194.05 114.889C194.416 115.231 194.599 115.702 194.599 116.302C194.599 116.8 194.449 117.286 194.149 117.76C193.855 118.228 193.519 118.642 193.141 119.002C192.763 119.356 192.28 119.77 191.692 120.244H194.788V120.928H190.459V120.343ZM195.735 117.679C195.735 116.647 195.903 115.843 196.239 115.267C196.575 114.685 197.163 114.394 198.003 114.394C198.837 114.394 199.422 114.685 199.758 115.267C200.094 115.843 200.262 116.647 200.262 117.679C200.262 118.729 200.094 119.545 199.758 120.127C199.422 120.709 198.837 121 198.003 121C197.163 121 196.575 120.709 196.239 120.127C195.903 119.545 195.735 118.729 195.735 117.679ZM199.452 117.679C199.452 117.157 199.416 116.716 199.344 116.356C199.278 115.99 199.137 115.696 198.921 115.474C198.711 115.252 198.405 115.141 198.003 115.141C197.595 115.141 197.283 115.252 197.067 115.474C196.857 115.696 196.716 115.99 196.644 116.356C196.578 116.716 196.545 117.157 196.545 117.679C196.545 118.219 196.578 118.672 196.644 119.038C196.716 119.404 196.857 119.698 197.067 119.92C197.283 120.142 197.595 120.253 198.003 120.253C198.405 120.253 198.711 120.142 198.921 119.92C199.137 119.698 199.278 119.404 199.344 119.038C199.416 118.672 199.452 118.219 199.452 117.679Z" fill="white"/>
<path d="M190.459 152.343C191.221 151.731 191.818 151.23 192.25 150.84C192.682 150.444 193.045 150.033 193.339 149.607C193.639 149.175 193.789 148.752 193.789 148.338C193.789 147.948 193.693 147.642 193.501 147.42C193.315 147.192 193.012 147.078 192.592 147.078C192.184 147.078 191.866 147.207 191.638 147.465C191.416 147.717 191.296 148.056 191.278 148.482H190.486C190.51 147.81 190.714 147.291 191.098 146.925C191.482 146.559 191.977 146.376 192.583 146.376C193.201 146.376 193.69 146.547 194.05 146.889C194.416 147.231 194.599 147.702 194.599 148.302C194.599 148.8 194.449 149.286 194.149 149.76C193.855 150.228 193.519 150.642 193.141 151.002C192.763 151.356 192.28 151.77 191.692 152.244H194.788V152.928H190.459V152.343ZM199.74 147.132L197.238 153H196.41L198.948 147.213H195.474V146.511H199.74V147.132Z" fill="#458D4C"/>
<path d="M228.563 51.132L226.061 57H225.233L227.771 51.213H224.297V50.511H228.563V51.132Z" fill="#458D4C"/>
<path d="M223.342 83.24V82.493H225.034V89H224.206V83.24H223.342ZM226.243 87.551V86.93L229.402 82.556H230.383V86.84H231.283V87.551H230.383V89H229.573V87.551H226.243ZM229.609 83.411L227.188 86.84H229.609V83.411Z" fill="white"/>
<path d="M222.459 120.343C223.221 119.731 223.818 119.23 224.25 118.84C224.682 118.444 225.045 118.033 225.339 117.607C225.639 117.175 225.789 116.752 225.789 116.338C225.789 115.948 225.693 115.642 225.501 115.42C225.315 115.192 225.012 115.078 224.592 115.078C224.184 115.078 223.866 115.207 223.638 115.465C223.416 115.717 223.296 116.056 223.278 116.482H222.486C222.51 115.81 222.714 115.291 223.098 114.925C223.482 114.559 223.977 114.376 224.583 114.376C225.201 114.376 225.69 114.547 226.05 114.889C226.416 115.231 226.599 115.702 226.599 116.302C226.599 116.8 226.449 117.286 226.149 117.76C225.855 118.228 225.519 118.642 225.141 119.002C224.763 119.356 224.28 119.77 223.692 120.244H226.788V120.928H222.459V120.343ZM227.519 115.24V114.493H229.211V121H228.383V115.24H227.519Z" fill="white"/>
<path d="M222.459 152.343C223.221 151.731 223.818 151.23 224.25 150.84C224.682 150.444 225.045 150.033 225.339 149.607C225.639 149.175 225.789 148.752 225.789 148.338C225.789 147.948 225.693 147.642 225.501 147.42C225.315 147.192 225.012 147.078 224.592 147.078C224.184 147.078 223.866 147.207 223.638 147.465C223.416 147.717 223.296 148.056 223.278 148.482H222.486C222.51 147.81 222.714 147.291 223.098 146.925C223.482 146.559 223.977 146.376 224.583 146.376C225.201 146.376 225.69 146.547 226.05 146.889C226.416 147.231 226.599 147.702 226.599 148.302C226.599 148.8 226.449 149.286 226.149 149.76C225.855 150.228 225.519 150.642 225.141 151.002C224.763 151.356 224.28 151.77 223.692 152.244H226.788V152.928H222.459V152.343ZM228.923 149.616C228.587 149.484 228.329 149.292 228.149 149.04C227.969 148.788 227.879 148.482 227.879 148.122C227.879 147.798 227.96 147.507 228.122 147.249C228.284 146.985 228.524 146.778 228.842 146.628C229.166 146.472 229.556 146.394 230.012 146.394C230.468 146.394 230.855 146.472 231.173 146.628C231.497 146.778 231.74 146.985 231.902 147.249C232.07 147.507 232.154 147.798 232.154 148.122C232.154 148.47 232.061 148.776 231.875 149.04C231.689 149.298 231.434 149.49 231.11 149.616C231.482 149.73 231.776 149.931 231.992 150.219C232.214 150.501 232.325 150.843 232.325 151.245C232.325 151.635 232.229 151.977 232.037 152.271C231.845 152.559 231.572 152.784 231.218 152.946C230.87 153.102 230.468 153.18 230.012 153.18C229.556 153.18 229.154 153.102 228.806 152.946C228.464 152.784 228.197 152.559 228.005 152.271C227.813 151.977 227.717 151.635 227.717 151.245C227.717 150.843 227.825 150.498 228.041 150.21C228.257 149.922 228.551 149.724 228.923 149.616ZM231.362 148.221C231.362 147.855 231.242 147.573 231.002 147.375C230.762 147.177 230.432 147.078 230.012 147.078C229.598 147.078 229.271 147.177 229.031 147.375C228.791 147.573 228.671 147.858 228.671 148.23C228.671 148.566 228.794 148.836 229.04 149.04C229.292 149.244 229.616 149.346 230.012 149.346C230.414 149.346 230.738 149.244 230.984 149.04C231.236 148.83 231.362 148.557 231.362 148.221ZM230.012 149.976C229.568 149.976 229.205 150.081 228.923 150.291C228.641 150.495 228.5 150.804 228.5 151.218C228.5 151.602 228.635 151.911 228.905 152.145C229.181 152.379 229.55 152.496 230.012 152.496C230.474 152.496 230.84 152.379 231.11 152.145C231.38 151.911 231.515 151.602 231.515 151.218C231.515 150.816 231.377 150.51 231.101 150.3C230.825 150.084 230.462 149.976 230.012 149.976Z" fill="white"/>
<path d="M112.537 28.063C111.955 28.063 111.424 27.928 110.944 27.658C110.464 27.382 110.083 27.001 109.801 26.515C109.525 26.023 109.387 25.471 109.387 24.859C109.387 24.247 109.525 23.698 109.801 23.212C110.083 22.72 110.464 22.339 110.944 22.069C111.424 21.793 111.955 21.655 112.537 21.655C113.125 21.655 113.659 21.793 114.139 22.069C114.619 22.339 114.997 22.717 115.273 23.203C115.549 23.689 115.687 24.241 115.687 24.859C115.687 25.477 115.549 26.029 115.273 26.515C114.997 27.001 114.619 27.382 114.139 27.658C113.659 27.928 113.125 28.063 112.537 28.063ZM112.537 27.352C112.975 27.352 113.368 27.25 113.716 27.046C114.07 26.842 114.346 26.551 114.544 26.173C114.748 25.795 114.85 25.357 114.85 24.859C114.85 24.355 114.748 23.917 114.544 23.545C114.346 23.167 114.073 22.876 113.725 22.672C113.377 22.468 112.981 22.366 112.537 22.366C112.093 22.366 111.697 22.468 111.349 22.672C111.001 22.876 110.725 23.167 110.521 23.545C110.323 23.917 110.224 24.355 110.224 24.859C110.224 25.357 110.323 25.795 110.521 26.173C110.725 26.551 111.001 26.842 111.349 27.046C111.703 27.25 112.099 27.352 112.537 27.352ZM116.462 24.859C116.462 24.247 116.6 23.698 116.876 23.212C117.152 22.72 117.527 22.336 118.001 22.06C118.481 21.784 119.012 21.646 119.594 21.646C120.278 21.646 120.875 21.811 121.385 22.141C121.895 22.471 122.267 22.939 122.501 23.545H121.52C121.346 23.167 121.094 22.876 120.764 22.672C120.44 22.468 120.05 22.366 119.594 22.366C119.156 22.366 118.763 22.468 118.415 22.672C118.067 22.876 117.794 23.167 117.596 23.545C117.398 23.917 117.299 24.355 117.299 24.859C117.299 25.357 117.398 25.795 117.596 26.173C117.794 26.545 118.067 26.833 118.415 27.037C118.763 27.241 119.156 27.343 119.594 27.343C120.05 27.343 120.44 27.244 120.764 27.046C121.094 26.842 121.346 26.551 121.52 26.173H122.501C122.267 26.773 121.895 27.238 121.385 27.568C120.875 27.892 120.278 28.054 119.594 28.054C119.012 28.054 118.481 27.919 118.001 27.649C117.527 27.373 117.152 26.992 116.876 26.506C116.6 26.02 116.462 25.471 116.462 24.859ZM127.581 21.727V22.393H125.871V28H125.052V22.393H123.333V21.727H127.581ZM131.433 28.063C130.851 28.063 130.32 27.928 129.84 27.658C129.36 27.382 128.979 27.001 128.697 26.515C128.421 26.023 128.283 25.471 128.283 24.859C128.283 24.247 128.421 23.698 128.697 23.212C128.979 22.72 129.36 22.339 129.84 22.069C130.32 21.793 130.851 21.655 131.433 21.655C132.021 21.655 132.555 21.793 133.035 22.069C133.515 22.339 133.893 22.717 134.169 23.203C134.445 23.689 134.583 24.241 134.583 24.859C134.583 25.477 134.445 26.029 134.169 26.515C133.893 27.001 133.515 27.382 133.035 27.658C132.555 27.928 132.021 28.063 131.433 28.063ZM131.433 27.352C131.871 27.352 132.264 27.25 132.612 27.046C132.966 26.842 133.242 26.551 133.44 26.173C133.644 25.795 133.746 25.357 133.746 24.859C133.746 24.355 133.644 23.917 133.44 23.545C133.242 23.167 132.969 22.876 132.621 22.672C132.273 22.468 131.877 22.366 131.433 22.366C130.989 22.366 130.593 22.468 130.245 22.672C129.897 22.876 129.621 23.167 129.417 23.545C129.219 23.917 129.12 24.355 129.12 24.859C129.12 25.357 129.219 25.795 129.417 26.173C129.621 26.551 129.897 26.842 130.245 27.046C130.599 27.25 130.995 27.352 131.433 27.352ZM138.806 24.769C139.034 24.805 139.241 24.898 139.427 25.048C139.619 25.198 139.769 25.384 139.877 25.606C139.991 25.828 140.048 26.065 140.048 26.317C140.048 26.635 139.967 26.923 139.805 27.181C139.643 27.433 139.406 27.634 139.094 27.784C138.788 27.928 138.425 28 138.005 28H135.665V21.727H137.915C138.341 21.727 138.704 21.799 139.004 21.943C139.304 22.081 139.529 22.27 139.679 22.51C139.829 22.75 139.904 23.02 139.904 23.32C139.904 23.692 139.802 24.001 139.598 24.247C139.4 24.487 139.136 24.661 138.806 24.769ZM136.484 24.436H137.861C138.245 24.436 138.542 24.346 138.752 24.166C138.962 23.986 139.067 23.737 139.067 23.419C139.067 23.101 138.962 22.852 138.752 22.672C138.542 22.492 138.239 22.402 137.843 22.402H136.484V24.436ZM137.933 27.325C138.341 27.325 138.659 27.229 138.887 27.037C139.115 26.845 139.229 26.578 139.229 26.236C139.229 25.888 139.109 25.615 138.869 25.417C138.629 25.213 138.308 25.111 137.906 25.111H136.484V27.325H137.933ZM142.003 22.393V24.49H144.289V25.165H142.003V27.325H144.559V28H141.184V21.718H144.559V22.393H142.003ZM149.101 28L147.607 25.435H146.617V28H145.798V21.727H147.823C148.297 21.727 148.696 21.808 149.02 21.97C149.35 22.132 149.596 22.351 149.758 22.627C149.92 22.903 150.001 23.218 150.001 23.572C150.001 24.004 149.875 24.385 149.623 24.715C149.377 25.045 149.005 25.264 148.507 25.372L150.082 28H149.101ZM146.617 24.778H147.823C148.267 24.778 148.6 24.67 148.822 24.454C149.044 24.232 149.155 23.938 149.155 23.572C149.155 23.2 149.044 22.912 148.822 22.708C148.606 22.504 148.273 22.402 147.823 22.402H146.617V24.778Z" fill="#458D4C"/>
<path d="M33.5 20L29 24.5L33.5 29.5" stroke="#458D4C"/>
<path d="M224 20L228.5 24.5L224 29.5" stroke="#458D4C"/>
<path d="M285.205 183.679C285.109 183.15 284.547 183.446 284.221 183.294C284.188 182.93 284.745 182.535 284.274 182.249C283.768 181.946 283.431 182.432 283.156 182.786C282.903 183.102 282.771 183.064 282.596 182.738C282.505 182.595 282.395 182.465 282.267 182.353C282.111 182.194 281.926 182.047 281.693 182.196C281.598 182.253 281.527 182.341 281.492 182.445C281.457 182.55 281.46 182.663 281.501 182.766C281.514 182.837 281.532 182.907 281.556 182.976C282.111 184.092 281.645 184.904 280.853 185.701C280.109 186.447 279.464 187.293 278.692 188.196C278.55 187.379 278.474 186.678 278.31 186.015C276.111 176.978 270.27 171.619 261.355 169.566C255.705 168.261 250.14 168.704 245.021 171.626C238.234 175.503 234.484 181.343 234.196 189.259C234.196 189.355 234.183 189.449 234.173 189.595C233.684 189.497 233.386 189.13 233.016 188.894C232.283 188.426 231.571 187.918 230.833 187.46C230.68 187.39 230.556 187.271 230.478 187.123C230.4 186.975 230.374 186.805 230.402 186.64C230.424 186.253 230.416 185.866 230.38 185.481C230.364 185.21 230.23 184.995 229.944 184.992C229.691 184.992 229.562 185.18 229.527 185.42C229.408 186.204 229.122 186.027 228.717 185.592C228.46 185.336 228.173 185.113 227.862 184.927C227.669 184.8 227.439 184.633 227.206 184.863C226.974 185.094 227.082 185.304 227.194 185.531C227.257 185.658 227.308 185.784 227.363 185.921C227.09 186.116 226.824 185.969 226.571 185.989C226.318 186.01 226.09 186.101 226.065 186.389C226.04 186.678 226.242 186.769 226.457 186.832C226.751 186.918 227.052 186.984 227.437 187.085C227.184 187.303 226.976 187.477 226.774 187.662C226.685 187.728 226.623 187.823 226.597 187.93C226.571 188.037 226.583 188.15 226.632 188.249C226.736 188.464 226.941 188.452 227.138 188.444C227.695 188.409 228.241 188.271 228.747 188.037C228.917 187.952 229.108 187.922 229.296 187.948C229.483 187.975 229.658 188.058 229.798 188.186C230.989 189.059 232.189 189.919 233.424 190.716C233.697 190.881 233.925 191.113 234.086 191.388C234.247 191.664 234.336 191.976 234.345 192.295C234.691 196.197 236.068 199.938 238.333 203.134C241.352 207.408 245.353 210.29 250.479 211.52C250.839 211.606 250.937 211.732 250.91 212.099C250.763 213.911 250.631 215.72 250.535 217.535C250.512 217.972 250.398 218.124 249.953 218.104C249.372 218.072 248.789 218.151 248.237 218.337C248.03 218.41 247.784 218.466 247.822 218.749C247.827 218.874 247.88 218.992 247.968 219.079C248.057 219.166 248.176 219.217 248.301 219.22C249.313 219.22 250.325 219.253 251.337 219.033C251.826 218.926 251.775 218.506 251.777 218.155C251.777 216.267 251.813 214.376 251.777 212.489C251.777 211.884 251.952 211.788 252.516 211.864C254.202 212.058 255.905 212.067 257.593 211.889C258.18 211.838 258.286 211.988 258.245 212.542C258.097 214.133 258.037 215.732 258.068 217.33C258.089 217.836 257.929 218.046 257.415 217.957C257.13 217.903 256.84 217.872 256.55 217.864C256.327 217.864 256.044 217.815 256.008 218.182C255.988 218.463 256.008 218.721 256.335 218.828C257.168 219.093 258.047 219.179 258.916 219.081C259.369 219.033 259.409 218.694 259.407 218.337C259.394 216.446 259.435 214.556 259.341 212.671C259.301 211.849 259.594 211.641 260.328 211.517C264.058 210.887 267.505 209.543 270.541 207.251C275.025 203.867 277.497 199.297 278.398 193.816C278.604 192.647 278.709 191.461 278.71 190.274C278.705 190.032 278.796 189.798 278.963 189.623C280.084 188.32 281.205 187.019 282.295 185.691C282.563 185.362 282.774 185.291 283.133 185.509C283.527 185.754 283.987 185.873 284.451 185.85C284.737 185.835 285.069 185.827 285.162 185.473C285.269 185.073 284.924 185.005 284.656 184.889C284.547 184.838 284.441 184.78 284.327 184.722C284.606 184.34 285.314 184.289 285.205 183.679ZM285.246 200.606C285.403 199.892 285.851 199.505 286.531 199.305C286.708 199.252 287.002 199.186 286.992 198.913C286.982 198.639 286.701 198.563 286.521 198.533C285.813 198.404 285.547 197.928 285.395 197.301C285.344 197.088 285.301 196.795 284.97 196.795C284.638 196.795 284.563 197.086 284.532 197.301C284.439 197.954 284.112 198.29 283.454 198.444C282.923 198.568 282.9 198.966 283.353 199.264C283.872 199.606 284.302 199.965 284.345 200.651C284.359 200.761 284.415 200.862 284.501 200.932C284.587 201.003 284.697 201.038 284.808 201.031C284.915 201.012 285.014 200.961 285.092 200.886C285.171 200.81 285.224 200.712 285.246 200.606ZM273.978 162.046C273.909 162.582 273.674 162.863 273.135 162.939C272.882 162.977 272.578 163.101 272.525 163.384C272.472 163.668 272.758 163.794 272.95 163.916C273.433 164.22 273.816 164.569 273.848 165.181C273.857 165.291 273.906 165.393 273.986 165.469C274.066 165.544 274.171 165.587 274.281 165.589C274.379 165.587 274.472 165.55 274.545 165.485C274.617 165.42 274.664 165.331 274.676 165.234C274.868 164.425 275.415 164.007 276.169 163.767C276.422 163.688 276.746 163.395 276.295 163.245C275.417 162.957 275.007 162.344 274.762 161.535C274.724 161.408 274.661 161.251 274.466 161.282C274.322 161.352 274.201 161.461 274.115 161.596C274.029 161.73 273.981 161.886 273.978 162.046ZM219.43 189.487C219.936 189.778 220.291 190.142 220.334 190.752C220.334 190.863 220.374 190.971 220.446 191.056C220.518 191.14 220.618 191.197 220.728 191.215C220.997 191.25 221.133 191.01 221.176 190.825C221.366 190.033 221.875 189.613 222.636 189.426C222.793 189.385 222.968 189.297 222.986 189.099C222.988 189.013 222.958 188.928 222.901 188.863C222.843 188.798 222.763 188.758 222.677 188.75C221.877 188.593 221.538 188.037 221.346 187.318C221.298 187.143 221.219 186.918 220.991 186.905C220.764 186.893 220.635 187.11 220.612 187.282C220.516 188.054 220.129 188.527 219.347 188.664C219.266 188.681 219.192 188.718 219.131 188.773C219.07 188.827 219.025 188.897 219 188.975C219.032 189.086 219.087 189.188 219.161 189.276C219.235 189.364 219.327 189.436 219.43 189.487ZM242.579 219.167C242.787 219.174 242.99 219.101 243.144 218.962C243.299 218.824 243.394 218.63 243.409 218.423C243.45 217.886 242.994 217.664 242.561 217.638C242.129 217.613 241.858 217.907 241.853 218.463C241.848 218.559 241.863 218.654 241.898 218.743C241.933 218.832 241.987 218.913 242.055 218.979C242.124 219.046 242.206 219.097 242.296 219.129C242.386 219.162 242.481 219.174 242.577 219.167H242.579ZM219.392 210.839C219.38 210.936 219.39 211.035 219.42 211.128C219.45 211.222 219.5 211.307 219.566 211.379C219.633 211.452 219.714 211.509 219.805 211.546C219.895 211.584 219.993 211.602 220.091 211.598C220.2 211.603 220.308 211.587 220.411 211.55C220.514 211.513 220.608 211.455 220.688 211.381C220.768 211.307 220.832 211.218 220.878 211.119C220.923 211.02 220.948 210.912 220.951 210.803C220.976 210.313 220.607 210.11 220.149 210.067C219.638 210.075 219.407 210.378 219.39 210.839H219.392ZM287.556 216.611C288.012 216.581 288.379 216.3 288.379 215.867C288.38 215.757 288.357 215.649 288.312 215.549C288.268 215.449 288.202 215.36 288.119 215.288C288.037 215.216 287.94 215.162 287.835 215.131C287.73 215.1 287.619 215.092 287.511 215.108C287.063 215.126 286.812 215.381 286.817 215.907C286.845 216.31 287.03 216.646 287.554 216.611H287.556ZM230.025 174.099C230.025 174.587 230.316 174.893 230.785 174.858C231.21 174.827 231.592 174.574 231.571 174.078C231.551 173.582 231.167 173.418 230.787 173.342C230.291 173.4 230.023 173.641 230.023 174.094L230.025 174.099ZM230.876 196.215C230.98 196.221 231.085 196.206 231.184 196.171C231.282 196.136 231.373 196.082 231.45 196.011C231.527 195.94 231.589 195.854 231.633 195.759C231.676 195.664 231.7 195.561 231.703 195.456C231.718 194.963 231.311 194.742 230.891 194.709C230.471 194.677 230.177 194.942 230.132 195.443C230.175 195.871 230.38 196.225 230.873 196.208L230.876 196.215ZM291.818 179.198C291.8 179.638 292.012 180.015 292.534 179.99C292.971 179.967 293.346 179.759 293.356 179.258C293.366 178.757 292.989 178.578 292.615 178.474C292.098 178.494 291.833 178.778 291.818 179.198Z" fill="#0287CC"/>
<path d="M284.651 184.899C284.904 185.015 285.253 185.083 285.157 185.483C285.064 185.837 284.732 185.845 284.446 185.86C283.982 185.884 283.522 185.764 283.128 185.519C282.768 185.301 282.558 185.372 282.29 185.701C281.199 187.029 280.078 188.33 278.957 189.633C278.79 189.808 278.699 190.042 278.704 190.284C278.704 191.471 278.599 192.657 278.393 193.826C277.492 199.307 275.02 203.877 270.536 207.261C267.499 209.553 264.053 210.897 260.323 211.527C259.584 211.651 259.296 211.859 259.336 212.681C259.43 214.566 259.389 216.456 259.402 218.347C259.402 218.704 259.364 219.043 258.911 219.091C258.042 219.189 257.163 219.103 256.33 218.838C256.011 218.729 255.981 218.476 256.011 218.182C256.039 217.815 256.33 217.861 256.552 217.863C256.843 217.872 257.132 217.903 257.418 217.957C257.924 218.046 258.091 217.841 258.071 217.329C258.04 215.732 258.099 214.133 258.248 212.542C258.288 211.988 258.182 211.838 257.595 211.889C255.907 212.066 254.205 212.058 252.519 211.864C251.955 211.788 251.76 211.884 251.78 212.489C251.81 214.376 251.78 216.267 251.78 218.154C251.78 218.506 251.828 218.914 251.34 219.032C250.327 219.253 249.315 219.227 248.303 219.22C248.179 219.217 248.06 219.166 247.971 219.079C247.882 218.991 247.83 218.874 247.825 218.749C247.787 218.466 248.032 218.41 248.24 218.337C248.792 218.151 249.374 218.072 249.955 218.104C250.401 218.124 250.515 217.972 250.537 217.534C250.634 215.72 250.765 213.911 250.912 212.099C250.94 211.732 250.841 211.605 250.482 211.519C245.358 210.29 241.357 207.407 238.335 203.133C236.07 199.937 234.694 196.197 234.347 192.295C234.338 191.976 234.249 191.664 234.088 191.388C233.927 191.112 233.7 190.881 233.426 190.716C232.191 189.906 230.992 189.046 229.8 188.186C229.661 188.058 229.486 187.975 229.298 187.948C229.111 187.921 228.92 187.952 228.75 188.036C228.243 188.27 227.698 188.409 227.141 188.444C226.943 188.444 226.738 188.464 226.634 188.249C226.586 188.15 226.574 188.037 226.599 187.93C226.625 187.823 226.688 187.728 226.776 187.662C226.979 187.477 227.191 187.303 227.439 187.085C227.055 186.989 226.753 186.923 226.46 186.832C226.245 186.769 226.03 186.667 226.068 186.389C226.106 186.111 226.321 186.01 226.574 185.989C226.827 185.969 227.092 186.116 227.366 185.921C227.31 185.789 227.259 185.668 227.196 185.531C227.085 185.304 226.996 185.073 227.209 184.863C227.421 184.653 227.672 184.8 227.864 184.926C228.175 185.113 228.462 185.336 228.72 185.592C229.124 186.027 229.41 186.204 229.529 185.42C229.565 185.167 229.699 184.99 229.947 184.992C230.233 184.992 230.367 185.21 230.382 185.481C230.419 185.866 230.426 186.253 230.405 186.64C230.376 186.805 230.403 186.974 230.481 187.123C230.558 187.271 230.683 187.389 230.835 187.46C231.574 187.918 232.285 188.426 233.019 188.894C233.388 189.13 233.687 189.497 234.175 189.595C234.175 189.448 234.196 189.342 234.198 189.259C234.487 181.343 238.247 175.503 245.024 171.626C250.143 168.703 255.707 168.261 261.358 169.566C270.27 171.626 276.111 176.986 278.312 186.015C278.477 186.685 278.553 187.379 278.694 188.196C279.466 187.293 280.111 186.447 280.855 185.701C281.647 184.904 282.121 184.091 281.559 182.975C281.535 182.907 281.516 182.837 281.503 182.765C281.462 182.663 281.459 182.55 281.494 182.445C281.53 182.341 281.601 182.253 281.695 182.196C281.928 182.047 282.113 182.196 282.27 182.353C282.397 182.465 282.508 182.595 282.599 182.738C282.773 183.064 282.91 183.102 283.158 182.786C283.434 182.431 283.763 181.946 284.277 182.249C284.747 182.525 284.191 182.93 284.223 183.294C284.55 183.446 285.112 183.15 285.208 183.679C285.317 184.289 284.595 184.339 284.325 184.732C284.436 184.79 284.542 184.848 284.651 184.899ZM262.023 171.591C261.783 171.659 261.829 171.844 261.841 172.021C261.656 172.092 261.667 172.254 261.656 172.408C261.329 172.853 260.883 173.197 260.369 173.401C259.855 173.604 259.295 173.658 258.751 173.557C257.775 173.347 257.787 173.352 257.486 174.286C257.237 174.971 257.212 175.718 257.415 176.419C257.549 176.864 257.6 177.312 257.109 177.644C256.441 178.094 256.188 178.092 255.765 177.391C255.343 176.69 254.68 176.363 254.045 175.986C253.521 175.675 253.286 175.273 253.539 174.721C254.1 173.489 253.263 172.38 253.286 171.196C253.286 170.87 252.959 171.006 252.764 171.039C250.038 171.488 247.412 172.416 245.008 173.78C243.262 174.779 241.681 176.043 240.322 177.527C239.912 177.373 240.041 177.674 240.038 177.866L240.026 178.243H239.439L239.871 178.537C239.669 178.562 239.424 178.461 239.305 178.729C238.105 180.364 236.974 182.039 236.341 183.993C236.289 184.127 236.245 184.265 236.21 184.405C236.154 184.658 235.899 184.987 236.243 185.164C236.546 185.329 236.845 185.164 237.07 184.896C237.323 184.598 237.597 184.193 237.85 184.896C237.738 185.149 237.28 184.99 237.263 185.369C237.103 185.471 236.944 185.66 236.782 185.66C235.744 185.66 235.734 186.419 235.643 187.138C235.446 188.656 235.448 188.682 236.923 188.333C238.351 187.996 239.768 187.799 241.225 188.236C241.706 188.381 242.06 188.601 242.22 189.074C242.476 189.809 242.939 190.455 243.553 190.934C244.178 191.44 244.507 192.08 244.267 192.915C244.251 193.011 244.242 193.107 244.242 193.204C244.062 195.228 243.358 196.939 241.266 197.673C240.152 198.062 239.831 198.938 239.687 199.95C239.629 200.036 239.598 200.137 239.598 200.24C239.598 200.343 239.629 200.444 239.687 200.53L239.732 200.896C239.666 201.275 239.68 201.664 239.774 202.037C239.869 202.409 240.041 202.758 240.279 203.06C243.047 206.891 246.858 209.029 251.413 209.908C256.366 210.89 261.504 210.28 266.09 208.167C269.855 206.469 272.507 203.596 274.466 200.031C274.694 199.616 275.01 199.224 275.053 198.72C276.63 195.66 277.305 192.215 276.999 188.785C276.831 186.347 276.12 183.977 274.916 181.849C274.902 181.837 274.887 181.826 274.871 181.817C274.871 181.817 274.85 181.817 274.84 181.817L274.926 181.834C275.088 183.365 274.339 184.825 274.587 186.364C273.798 186.528 274.193 185.719 273.876 185.496C273.726 185.162 273.686 184.789 273.762 184.431C274.089 183.049 273.775 181.7 273.661 180.336C273.588 179.761 273.336 179.224 272.94 178.8C270.692 175.944 267.769 173.691 264.435 172.244L264.243 172.14H264.017L263.982 172.082L264.015 172.14C264.015 172.848 264.091 173.572 263.57 174.164L263.39 174.248L263.499 174.334L263.261 174.746L263.124 174.921C262.618 175.933 262.471 175.986 261.674 175.483V174.764C261.731 174.761 261.788 174.774 261.839 174.801C261.89 174.827 261.932 174.867 261.963 174.916C262.006 174.984 262.036 175.09 262.099 175.113C262.163 175.136 262.241 175.047 262.261 174.959L262.671 174.453C263.018 174.427 262.982 174.185 262.96 173.947C262.956 173.94 262.954 173.932 262.954 173.924C262.954 173.916 262.956 173.908 262.96 173.901C262.963 173.894 262.969 173.888 262.975 173.884C262.982 173.879 262.99 173.877 262.998 173.876C263.044 173.847 263.081 173.807 263.105 173.759C263.129 173.71 263.139 173.656 263.134 173.603C263.205 173.253 263.279 172.907 263.349 172.56C263.564 172.292 263.777 172.026 263.261 171.851L263.134 171.748C262.952 171.495 262.747 171.302 262.413 171.525H262.112C262.013 171.457 262.006 171.525 262.016 171.596L262.023 171.591ZM241.779 196.519C242.096 196.408 242.375 196.211 242.584 195.949C242.794 195.687 242.925 195.371 242.964 195.038C243.09 194.327 243.295 193.631 243.432 192.918C243.493 192.671 243.483 192.412 243.405 192.17C243.326 191.928 243.181 191.713 242.986 191.549C242.419 190.992 241.91 190.378 241.468 189.717C240.851 188.846 239.831 188.806 238.907 188.872C237.895 188.945 236.918 189.246 235.924 189.441C235.552 189.512 235.565 189.818 235.567 190.061C235.595 192.437 235.737 194.793 236.802 196.984C236.832 197.076 236.851 197.171 236.858 197.268C237.184 198.5 237.834 199.545 238.649 200.747C238.743 200.198 238.806 199.834 238.867 199.469C239.196 197.855 240.395 197.08 241.779 196.519ZM254.834 170.799C253.974 170.859 253.569 171.411 254.037 172.137C254.543 172.932 254.386 173.656 254.176 174.415C254.037 174.921 254.154 175.225 254.619 175.473C255.214 175.789 255.826 176.095 256.198 176.71C256.277 176.839 256.342 177.117 256.595 176.991C256.645 176.967 256.689 176.933 256.725 176.891C256.76 176.849 256.787 176.801 256.802 176.748C256.818 176.695 256.822 176.64 256.815 176.585C256.807 176.531 256.789 176.478 256.76 176.432C256.327 175.384 256.687 174.407 256.98 173.395C257.147 172.831 257.438 172.679 257.992 172.775C258.875 172.932 259.764 173.048 260.578 172.484C260.768 172.38 260.932 172.235 261.057 172.059C261.419 171.431 261.338 171.249 260.616 171.123C260.022 171.019 259.425 170.908 258.825 170.847C258.03 170.768 257.231 170.735 256.464 170.685C255.897 170.728 255.366 170.761 254.834 170.799ZM274.2 185.476H274.294C274.294 185.453 274.309 185.425 274.294 185.407C274.274 185.379 274.253 185.352 274.231 185.326L274.2 185.476ZM227.416 185.984C227.404 185.995 227.395 186.011 227.394 186.027C227.424 186.088 227.457 186.088 227.485 186.027C227.485 186.027 227.47 185.997 227.462 185.982C227.454 185.967 227.416 185.979 227.416 185.984Z" fill="#060807"/>
<path d="M266.089 215.087C265.777 215.135 265.714 215.409 265.669 215.621C265.537 216.226 265.289 216.633 264.611 216.788C263.993 216.937 263.968 217.294 264.525 217.668C264.99 217.977 265.352 218.293 265.423 218.885C265.427 219.01 265.475 219.129 265.558 219.222C265.641 219.315 265.755 219.375 265.879 219.392C266.187 219.417 266.306 219.139 266.344 218.921C266.486 218.144 267.043 217.845 267.701 217.62C267.875 217.562 268.1 217.501 268.095 217.261C268.09 217.021 267.87 216.965 267.688 216.914C267.055 216.735 266.648 216.38 266.531 215.692C266.531 215.557 266.488 215.426 266.409 215.317C266.329 215.209 266.217 215.128 266.089 215.087Z" fill="#FFD460"/>
<path d="M284.808 201.041C284.917 201.021 285.017 200.969 285.095 200.892C285.173 200.814 285.226 200.714 285.246 200.605C285.403 199.892 285.851 199.505 286.531 199.305C286.708 199.252 287.002 199.186 286.992 198.913C286.982 198.639 286.701 198.563 286.521 198.533C285.813 198.404 285.547 197.928 285.395 197.301C285.344 197.088 285.301 196.795 284.97 196.795C284.638 196.795 284.563 197.086 284.532 197.301C284.439 197.953 284.112 198.29 283.454 198.444C282.923 198.568 282.9 198.966 283.353 199.264C283.872 199.606 284.302 199.965 284.345 200.651C284.357 200.763 284.412 200.866 284.498 200.939C284.585 201.011 284.695 201.048 284.808 201.041Z" fill="#FFD460"/>
<path d="M274.466 161.287C274.323 161.357 274.202 161.465 274.116 161.598C274.03 161.732 273.982 161.887 273.977 162.046C273.909 162.582 273.674 162.863 273.135 162.939C272.882 162.977 272.578 163.101 272.525 163.384C272.472 163.668 272.758 163.794 272.95 163.916C273.433 164.219 273.815 164.569 273.848 165.181C273.856 165.291 273.905 165.393 273.985 165.469C274.066 165.544 274.171 165.587 274.281 165.588C274.378 165.587 274.472 165.55 274.544 165.485C274.617 165.42 274.664 165.331 274.676 165.234C274.868 164.424 275.415 164.007 276.169 163.767C276.422 163.688 276.746 163.395 276.295 163.245C275.417 162.957 275.007 162.344 274.762 161.535C274.736 161.418 274.661 161.261 274.466 161.287Z" fill="#FFD460"/>
<path d="M219 188.985C219.033 189.095 219.088 189.197 219.162 189.284C219.236 189.371 219.327 189.442 219.43 189.492C219.936 189.783 220.291 190.147 220.334 190.757C220.334 190.868 220.374 190.976 220.446 191.061C220.518 191.145 220.618 191.202 220.728 191.22C220.997 191.255 221.133 191.015 221.176 190.83C221.366 190.038 221.875 189.618 222.636 189.431C222.793 189.39 222.968 189.302 222.986 189.104C222.988 189.018 222.958 188.933 222.901 188.868C222.843 188.803 222.763 188.763 222.677 188.755C221.877 188.598 221.538 188.042 221.346 187.323C221.298 187.148 221.219 186.923 220.991 186.91C220.764 186.898 220.635 187.115 220.612 187.287C220.516 188.059 220.129 188.532 219.347 188.669C219.266 188.686 219.191 188.724 219.13 188.78C219.069 188.835 219.024 188.906 219 188.985Z" fill="#FFD460"/>
<path d="M238.453 161.955C238.328 162.004 238.22 162.087 238.139 162.193C238.058 162.3 238.007 162.426 237.992 162.559C237.926 163.187 237.625 163.516 236.98 163.663C236.335 163.809 236.307 164.169 236.856 164.538C237.342 164.857 237.726 165.181 237.795 165.803C237.791 165.862 237.799 165.92 237.818 165.975C237.837 166.03 237.867 166.081 237.906 166.124C237.944 166.168 237.991 166.203 238.044 166.229C238.096 166.254 238.153 166.269 238.211 166.273C238.269 166.276 238.327 166.268 238.383 166.249C238.438 166.23 238.488 166.201 238.532 166.162C238.576 166.123 238.611 166.076 238.637 166.024C238.662 165.972 238.677 165.915 238.68 165.857C238.732 165.524 238.888 165.216 239.126 164.979C239.365 164.742 239.674 164.587 240.006 164.538C240.201 164.495 240.472 164.419 240.462 164.146C240.462 163.918 240.209 163.852 240.037 163.812C239.311 163.637 238.989 163.126 238.83 162.456C238.818 162.346 238.777 162.241 238.711 162.153C238.644 162.064 238.555 161.996 238.453 161.955Z" fill="#FFD460"/>
<path d="M241.84 218.476C241.835 218.571 241.851 218.667 241.886 218.756C241.921 218.845 241.974 218.926 242.043 218.993C242.112 219.059 242.194 219.11 242.284 219.143C242.375 219.175 242.471 219.187 242.566 219.179C242.774 219.187 242.977 219.114 243.132 218.975C243.286 218.836 243.381 218.643 243.396 218.435C243.437 217.899 242.981 217.676 242.549 217.651C242.116 217.625 241.855 217.906 241.84 218.476Z" fill="#FFD460"/>
<path d="M220.146 210.067C219.64 210.067 219.407 210.368 219.387 210.839C219.375 210.936 219.385 211.035 219.415 211.128C219.445 211.222 219.495 211.307 219.561 211.379C219.628 211.452 219.709 211.508 219.799 211.546C219.89 211.584 219.987 211.602 220.085 211.598C220.194 211.603 220.303 211.587 220.406 211.55C220.508 211.513 220.602 211.455 220.683 211.381C220.763 211.307 220.827 211.218 220.872 211.119C220.918 211.02 220.943 210.912 220.946 210.803C220.974 210.312 220.604 210.11 220.146 210.067Z" fill="#FFD460"/>
<path d="M286.815 215.905C286.845 216.31 287.03 216.646 287.553 216.611C288.009 216.581 288.376 216.3 288.376 215.867C288.377 215.757 288.354 215.649 288.31 215.549C288.265 215.449 288.199 215.36 288.117 215.288C288.034 215.216 287.937 215.162 287.832 215.131C287.727 215.1 287.616 215.092 287.508 215.108C287.06 215.123 286.809 215.379 286.815 215.905Z" fill="#FFD460"/>
<path d="M230.789 173.337C230.283 173.4 230.03 173.641 230.03 174.096C230.03 174.551 230.321 174.891 230.789 174.855C231.215 174.825 231.597 174.572 231.576 174.076C231.556 173.58 231.169 173.413 230.789 173.337Z" fill="#FFD460"/>
<path d="M230.134 195.448C230.175 195.871 230.387 196.225 230.873 196.208C230.977 196.214 231.082 196.199 231.181 196.164C231.28 196.129 231.37 196.074 231.447 196.003C231.525 195.932 231.587 195.847 231.63 195.752C231.674 195.656 231.698 195.553 231.7 195.448C231.716 194.955 231.308 194.735 230.888 194.702C230.468 194.669 230.175 194.942 230.134 195.448Z" fill="#FFD460"/>
<path d="M292.615 178.474C292.108 178.491 291.833 178.777 291.817 179.198C291.802 179.618 292.012 180.015 292.534 179.99C292.971 179.967 293.346 179.759 293.356 179.258C293.366 178.757 292.989 178.578 292.615 178.474Z" fill="#FFD460"/>
<path d="M263.131 171.755L263.258 171.859L263.347 172.568L263.131 173.61C263.085 173.638 263.047 173.678 263.023 173.727C262.999 173.775 262.989 173.83 262.995 173.883C262.987 173.884 262.979 173.887 262.973 173.891C262.966 173.896 262.96 173.902 262.957 173.909C262.953 173.916 262.951 173.924 262.951 173.932C262.951 173.939 262.953 173.947 262.957 173.954C262.809 174.087 262.707 174.265 262.668 174.46L262.258 174.967L261.96 174.924C261.93 174.875 261.887 174.835 261.836 174.808C261.786 174.782 261.729 174.769 261.671 174.772C260.948 174.453 260.264 174.701 259.541 175.498C259.062 176.027 259.371 176.485 259.627 176.95C259.753 177.181 259.92 177.391 260.065 177.613C260.591 178.421 260.447 179.023 259.634 179.506C259.29 179.711 259.179 179.435 259.111 179.233C258.976 178.823 258.913 178.388 258.802 177.968C258.675 177.489 258.379 177.343 258.043 177.732C257.57 178.217 257.008 178.605 256.388 178.876C255.808 179.165 255.396 180.696 255.699 181.267C255.75 181.351 255.82 181.421 255.905 181.47C255.989 181.518 256.085 181.545 256.183 181.546C257.448 181.695 258.164 182.674 259.065 183.38C259.093 183.403 259.116 183.432 259.133 183.464C259.15 183.496 259.161 183.531 259.164 183.568C259.164 184.625 259.923 185.245 260.52 185.962C260.831 186.341 260.917 186.721 260.662 187.151C260.105 188.11 260.216 189.175 260.295 190.187C260.315 190.471 260.244 190.893 260.667 190.962C261.089 191.03 261.558 191.152 261.97 190.787C262.57 190.263 262.709 189.557 262.813 188.836C262.861 188.51 262.942 188.33 263.319 188.287C264.837 188.135 266.355 187.991 267.874 188.254C268.552 188.371 268.861 188.783 268.797 189.459C268.772 189.737 268.582 189.734 268.4 189.788C267.696 189.993 267.517 190.294 267.823 190.929C268.038 191.382 267.904 191.47 267.481 191.483C266.851 191.501 266.216 191.579 265.596 191.559C265.332 191.529 265.064 191.566 264.817 191.667C264.571 191.767 264.353 191.928 264.184 192.133C263.273 193.259 262.005 193.857 260.758 194.502C259.51 195.147 259.46 195.365 259.999 196.66C260.347 197.461 260.815 198.204 261.385 198.865C261.748 199.23 261.958 199.719 261.973 200.234C261.892 201.947 262.567 203.561 262.59 205.254C262.59 205.375 262.59 205.507 262.59 205.616C262.544 205.849 262.474 206.084 262.689 206.276C262.703 206.291 262.712 206.309 262.716 206.329C262.719 206.349 262.717 206.369 262.709 206.388C262.177 206.952 261.423 206.843 260.765 206.98C259.009 207.342 257.223 207.332 255.429 207.296C252.747 207.231 250.097 206.693 247.602 205.707C244.802 204.656 242.257 203.024 240.134 200.917C240.003 200.783 239.864 200.917 239.729 200.897L239.684 200.53C239.684 200.337 239.684 200.142 239.684 199.95C239.828 198.938 240.15 198.06 241.263 197.673C243.356 196.939 244.046 195.236 244.239 193.204C244.239 193.107 244.248 193.011 244.264 192.915C244.505 192.08 244.176 191.45 243.551 190.934C242.936 190.455 242.473 189.809 242.217 189.074C242.058 188.601 241.711 188.381 241.222 188.236C239.772 187.799 238.355 187.996 236.921 188.333C235.445 188.682 235.443 188.662 235.64 187.138C235.731 186.422 235.741 185.663 236.779 185.66C236.941 185.66 237.1 185.471 237.26 185.369C237.485 185.301 237.606 185.392 237.705 185.605C237.862 185.893 238.107 186.122 238.405 186.259C238.703 186.396 239.037 186.433 239.357 186.364C239.828 186.235 239.58 185.896 239.474 185.681C239.259 185.25 238.968 184.863 238.841 184.383C238.715 183.902 238.841 183.676 239.363 183.763C239.745 183.826 240.122 183.871 240.511 183.924C241.086 184.005 241.443 184.269 241.41 184.916C241.377 185.564 241.916 185.658 242.384 185.764C242.852 185.87 243.396 186.06 243.712 185.428C243.809 185.233 243.895 185.033 244.003 184.846C244.348 184.248 244.221 183.798 243.609 183.477C243.156 183.239 243.009 182.97 243.356 182.464C243.91 181.619 243.373 180.26 242.427 179.934C242.291 179.885 242.152 179.844 242.012 179.81C241.303 179.661 240.694 179.39 240.4 178.651C240.301 178.489 240.178 178.343 240.036 178.218L240.048 177.841C240.118 177.809 240.179 177.762 240.228 177.703C240.277 177.645 240.312 177.576 240.332 177.502C241.687 176.018 243.263 174.753 245.006 173.752C247.409 172.388 250.035 171.46 252.762 171.011C252.956 170.978 253.288 170.842 253.283 171.168C253.268 172.353 254.105 173.461 253.536 174.693C253.283 175.235 253.516 175.637 254.042 175.958C254.677 176.336 255.35 176.675 255.763 177.363C256.175 178.051 256.438 178.066 257.106 177.616C257.597 177.284 257.547 176.837 257.413 176.391C257.209 175.691 257.234 174.944 257.483 174.258C257.795 173.324 257.782 173.319 258.749 173.529C259.292 173.63 259.853 173.576 260.367 173.373C260.88 173.17 261.326 172.826 261.654 172.38C261.711 172.333 261.757 172.274 261.789 172.207C261.821 172.14 261.838 172.067 261.838 171.993C261.898 171.939 261.945 171.872 261.976 171.798C262.008 171.724 262.023 171.644 262.021 171.563V171.583C262.043 171.586 262.065 171.58 262.083 171.567C262.101 171.554 262.113 171.534 262.117 171.512H262.418C262.63 171.655 262.876 171.739 263.131 171.755ZM253.187 194.277C253.621 193.822 253.955 193.281 254.168 192.69C254.272 192.437 254.381 192.159 254.044 192.012C253.708 191.865 253.538 192.068 253.43 192.341C253.273 192.773 253.05 193.178 252.767 193.54C252.212 194.165 251.605 194.122 251.203 193.386C251.021 192.992 250.863 192.588 250.727 192.176C250.618 191.903 250.444 191.706 250.12 191.837C249.796 191.969 249.867 192.202 249.945 192.447C250.123 193.05 250.392 193.622 250.745 194.143C251.043 194.55 251.436 194.808 252.202 194.813C252.58 194.756 252.928 194.571 253.187 194.289V194.277ZM243.778 179.699C244.616 179.752 245.388 179.258 245.221 178.623C244.968 177.649 244.208 176.877 243.862 175.895C243.72 175.493 242.994 175.746 242.877 176.303C242.736 176.981 242.683 177.679 242.624 178.168C242.548 179.068 243.08 179.668 243.778 179.711V179.699ZM256.562 189.694C257.068 189.714 257.463 189.226 257.453 188.593C257.443 187.961 256.99 187.406 256.522 187.399C256.054 187.391 255.621 187.996 255.616 188.619C255.604 188.887 255.695 189.149 255.871 189.352C256.048 189.555 256.295 189.682 256.562 189.707V189.694ZM247.47 187.495C247.207 187.527 246.966 187.661 246.801 187.868C246.635 188.075 246.557 188.339 246.585 188.603C246.638 189.109 246.764 189.643 247.427 189.694C247.956 189.734 248.333 189.218 248.323 188.515C248.313 187.811 248.019 187.49 247.47 187.508V187.495ZM245.357 176.166C245.011 176.191 244.773 176.325 244.813 176.751C244.866 177.272 245.395 177.866 245.876 177.851C246.357 177.836 246.253 177.391 246.349 177.153C246.344 176.644 245.823 176.143 245.357 176.179V176.166Z" fill="#0287CC"/>
<path d="M273.873 185.516C273.723 185.182 273.683 184.809 273.76 184.451C274.086 183.069 273.772 181.72 273.658 180.356C273.585 179.781 273.333 179.244 272.937 178.82C270.689 175.964 267.766 173.711 264.432 172.264L264.24 172.16H264.015C264.015 172.869 264.091 173.592 263.569 174.185L263.498 174.354L263.261 174.767L263.124 174.941C262.618 175.953 262.471 176.007 261.674 175.503C261.304 175.417 260.996 175.032 260.545 175.397C259.918 175.903 259.834 176.232 260.388 177.039C261.628 178.846 260.859 179.253 259.677 180.253C259.396 180.491 259.159 180.455 258.961 180.134C258.68 179.739 258.506 179.277 258.455 178.795C258.435 178.352 258.202 178.228 257.868 178.567C257.521 178.868 257.141 179.127 256.734 179.339C256.256 179.625 256.276 180.154 256.183 180.604C256.173 180.647 256.173 180.691 256.182 180.733C256.191 180.775 256.209 180.815 256.235 180.85C256.261 180.885 256.294 180.913 256.332 180.934C256.371 180.954 256.413 180.966 256.456 180.969C257.59 181.113 258.296 181.981 259.174 182.561C259.427 182.733 259.725 182.963 259.741 183.284C259.786 184.342 260.452 185.04 261.099 185.749C261.301 185.94 261.434 186.192 261.48 186.466C261.525 186.74 261.481 187.021 261.353 187.267C261.044 187.976 260.75 188.7 260.803 189.502C260.821 189.772 260.72 190.112 261.17 190.157C261.56 190.198 261.828 190.079 261.95 189.684C262.071 189.265 262.127 188.829 262.117 188.393C262.117 187.816 262.41 187.543 262.962 187.541C264.463 187.541 265.963 187.49 267.464 187.541C268.906 187.591 269.612 188.553 269.367 190C269.331 190.21 269.25 190.253 269.05 190.299C268.263 190.433 268.167 190.577 268.57 191.255C268.878 191.761 268.709 191.941 268.21 191.992C267.541 192.099 266.864 192.155 266.186 192.159C265.762 192.13 265.339 192.206 264.951 192.38C264.564 192.553 264.225 192.819 263.964 193.153C263.409 193.761 262.73 194.243 261.973 194.565C260.052 195.476 260.032 195.651 261.196 197.485C261.702 198.275 262.362 198.958 262.595 199.925C262.747 200.557 262.529 201.19 262.722 201.795C263.187 203.26 262.929 204.976 263.283 206.456L263.536 207.089L264.928 207.468L265.94 205.57C266.872 203.953 267.593 202.301 267.712 200.383C267.718 200.064 267.879 199.861 268.091 199.624C268.939 198.73 269.744 197.905 270.875 197.346C271.887 196.84 272.32 195.383 272.014 194.31C271.707 193.237 270.974 192.647 269.989 192.285C269.389 192.063 269.506 191.855 269.863 191.526C270.487 190.981 270.914 190.2 271.001 189.375C271.02 189.06 271.062 188.866 271.254 188.616C271.447 188.366 271.698 188.224 271.998 188.125C272.264 188.016 272.505 187.854 272.773 187.73C273.653 187.325 274.066 186.544 273.873 185.516Z" fill="#B1DDB2"/>
<path d="M267.17 204.811C267.487 203.705 268.208 202.726 268.261 201.542C268.345 199.687 269.597 198.735 271.045 197.999C271.749 197.66 272.299 197.067 272.584 196.339C272.869 195.611 272.868 194.802 272.581 194.074C272.254 193.214 271.885 192.447 270.885 192.197C270.468 192.093 270.351 191.855 270.723 191.496C270.952 191.281 271.135 191.022 271.262 190.736C271.39 190.449 271.459 190.139 271.465 189.826C271.487 189.223 271.806 188.829 272.383 188.56C272.966 188.269 273.525 187.93 274.053 187.548C274.456 187.295 274.721 186.916 274.59 186.387C273.8 186.551 274.195 185.741 273.879 185.519C274.071 186.546 273.56 187.166 272.687 187.581C272.434 187.705 272.181 187.867 271.913 187.976C271.612 188.075 271.349 188.261 271.156 188.512C270.964 188.762 270.851 189.065 270.832 189.38C270.744 190.205 270.348 190.966 269.724 191.511C269.377 191.84 269.273 192.095 269.873 192.318C270.86 192.68 271.584 193.29 271.897 194.391C272.211 195.491 271.837 196.668 270.812 197.187C269.681 197.746 268.835 198.639 267.988 199.533C267.775 199.77 267.655 200.077 267.649 200.395C267.53 202.314 266.672 203.958 265.743 205.575C265.655 206.036 265.348 206.385 265.118 206.767C264.835 207.24 264.359 207.195 263.904 207.127C263.448 207.058 263.418 206.674 263.418 206.304C263.063 204.824 263.2 203.268 262.734 201.808C262.542 201.203 262.76 200.57 262.608 199.937C262.375 198.971 261.71 198.288 261.209 197.498C260.045 195.663 260.065 195.489 261.985 194.578C262.743 194.256 263.422 193.774 263.977 193.166C264.238 192.831 264.577 192.566 264.964 192.392C265.351 192.219 265.775 192.143 266.199 192.171C266.877 192.167 267.554 192.111 268.223 192.004C268.729 191.954 268.891 191.787 268.582 191.268C268.18 190.59 268.276 190.446 269.063 190.311C269.263 190.279 269.344 190.223 269.38 190.013C269.633 188.573 268.919 187.604 267.477 187.553C265.976 187.503 264.475 187.553 262.975 187.553C262.423 187.553 262.125 187.829 262.13 188.406C262.14 188.842 262.084 189.277 261.963 189.697C261.841 190.091 261.573 190.203 261.183 190.17C260.733 190.124 260.834 189.785 260.816 189.514C260.763 188.712 261.057 187.996 261.365 187.28C261.494 187.034 261.538 186.752 261.493 186.479C261.447 186.205 261.314 185.953 261.112 185.762C260.465 185.053 259.799 184.355 259.754 183.297C259.738 182.976 259.45 182.745 259.187 182.573C258.309 181.996 257.603 181.126 256.469 180.982C256.426 180.979 256.384 180.967 256.345 180.946C256.307 180.926 256.274 180.897 256.248 180.863C256.222 180.828 256.204 180.788 256.195 180.746C256.186 180.703 256.186 180.659 256.196 180.617C256.289 180.154 256.269 179.625 256.747 179.352C257.154 179.139 257.534 178.88 257.881 178.58C258.225 178.241 258.448 178.365 258.468 178.808C258.519 179.29 258.693 179.751 258.974 180.146C259.172 180.468 259.409 180.503 259.69 180.265C260.872 179.266 261.641 178.858 260.401 177.052C259.847 176.244 259.931 175.915 260.558 175.409C261.009 175.045 261.317 175.43 261.687 175.516V174.797C260.963 174.478 260.28 174.726 259.556 175.523C259.078 176.052 259.387 176.51 259.642 176.976C259.769 177.206 259.936 177.416 260.08 177.639C260.606 178.446 260.462 179.048 259.65 179.532C259.306 179.737 259.194 179.461 259.126 179.258C258.992 178.848 258.929 178.413 258.817 177.993C258.691 177.515 258.395 177.368 258.058 177.758C257.585 178.242 257.023 178.63 256.403 178.901C255.824 179.19 255.411 180.721 255.715 181.293C255.765 181.377 255.836 181.446 255.92 181.495C256.005 181.544 256.101 181.57 256.198 181.571C257.463 181.72 258.18 182.7 259.08 183.406C259.109 183.429 259.132 183.457 259.149 183.489C259.166 183.522 259.176 183.557 259.179 183.593C259.179 184.651 259.938 185.271 260.535 185.987C260.847 186.366 260.933 186.746 260.677 187.176C260.12 188.135 260.232 189.201 260.31 190.213C260.33 190.496 260.26 190.919 260.682 190.987C261.105 191.055 261.573 191.177 261.985 190.813C262.585 190.289 262.724 189.583 262.828 188.861C262.876 188.535 262.957 188.355 263.334 188.312C264.852 188.161 266.371 188.016 267.889 188.279C268.567 188.396 268.876 188.808 268.813 189.484C268.787 189.762 268.598 189.76 268.415 189.813C267.712 190.018 267.532 190.319 267.838 190.954C268.054 191.407 267.919 191.496 267.497 191.508C266.867 191.526 266.232 191.605 265.612 191.584C265.347 191.555 265.079 191.592 264.833 191.692C264.586 191.792 264.368 191.953 264.2 192.159C263.289 193.285 262.021 193.882 260.773 194.527C259.526 195.173 259.475 195.39 260.014 196.686C260.363 197.486 260.83 198.229 261.401 198.89C261.763 199.255 261.973 199.744 261.988 200.259C261.907 201.972 262.583 203.586 262.605 205.279C262.605 205.401 262.605 205.532 262.605 205.641C262.709 205.845 262.744 206.077 262.704 206.302C262.718 206.316 262.728 206.334 262.731 206.354C262.735 206.374 262.732 206.395 262.724 206.413C262.753 206.451 262.776 206.494 262.793 206.54C262.914 207.023 262.76 207.671 263.491 207.805C264.321 207.957 265.146 208.007 265.69 207.177C266.196 206.39 266.677 205.593 267.17 204.811Z" fill="#061111"/>
<path d="M238.859 199.469C239.196 197.855 240.395 197.081 241.779 196.519C242.096 196.408 242.375 196.211 242.584 195.949C242.794 195.687 242.925 195.372 242.964 195.038C243.09 194.327 243.295 193.631 243.432 192.918C243.493 192.671 243.483 192.412 243.405 192.17C243.326 191.928 243.181 191.713 242.986 191.549C242.419 190.992 241.91 190.378 241.468 189.717C240.851 188.846 239.831 188.806 238.907 188.872C237.895 188.945 236.918 189.246 235.924 189.441C235.552 189.512 235.565 189.818 235.567 190.061C235.595 192.437 235.737 194.793 236.802 196.984C236.832 197.076 236.851 197.171 236.858 197.268C237.012 197.298 237.08 197.432 237.184 197.521C237.809 198.113 238.044 199.044 238.859 199.469Z" fill="#B1DDB2"/>
<path d="M239.31 178.729C238.11 180.364 236.979 182.039 236.346 183.993C236.294 184.127 236.25 184.265 236.215 184.405C236.159 184.658 235.904 184.987 236.248 185.165C236.551 185.329 236.85 185.165 237.075 184.896C237.328 184.598 237.602 184.193 237.855 184.896C238.148 185.149 238.047 185.924 238.806 185.585C238.573 185.01 238.272 184.458 238.166 183.836C238.08 183.33 238.27 183.041 238.814 183.059C239.71 183.058 240.597 183.244 241.418 183.606C241.744 183.765 242.083 183.97 242.043 184.408C242.002 184.846 242.26 184.985 242.635 185.051C243.07 185.124 243.222 184.858 243.394 184.532C243.591 184.137 243.394 183.922 243.093 183.773C242.377 183.406 242.412 182.963 242.774 182.315C243.28 181.394 242.933 180.65 241.911 180.432C240.972 180.233 240.165 179.896 239.704 178.99C239.618 178.859 239.517 178.704 239.31 178.729Z" fill="#B1DDB2"/>
<path d="M256.462 170.693C255.897 170.728 255.366 170.761 254.834 170.799C253.974 170.86 253.569 171.411 254.037 172.137C254.543 172.932 254.387 173.656 254.176 174.415C254.037 174.921 254.154 175.225 254.619 175.473C255.214 175.789 255.826 176.095 256.198 176.71C256.277 176.839 256.343 177.117 256.596 176.991C256.645 176.967 256.689 176.933 256.725 176.891C256.76 176.85 256.787 176.801 256.802 176.748C256.818 176.695 256.822 176.64 256.815 176.585C256.808 176.531 256.789 176.479 256.76 176.432C256.327 175.384 256.687 174.407 256.98 173.395C257.147 172.831 257.438 172.679 257.992 172.775C258.876 172.932 259.764 173.048 260.579 172.484C260.768 172.38 260.932 172.235 261.057 172.059C261.419 171.431 261.338 171.249 260.617 171.123C260.022 171.019 259.425 170.908 258.825 170.847C258.035 170.776 257.228 170.743 256.462 170.693Z" fill="#B1DDB2"/>
<path d="M239.31 178.729C239.52 178.704 239.621 178.859 239.694 179.003C240.155 179.909 240.96 180.245 241.901 180.445C242.913 180.663 243.278 181.407 242.764 182.328C242.402 182.976 242.367 183.418 243.083 183.785C243.376 183.937 243.589 184.152 243.384 184.545C243.222 184.871 243.07 185.137 242.625 185.063C242.25 184.997 241.99 184.884 242.033 184.421C242.076 183.957 241.734 183.778 241.408 183.618C240.587 183.258 239.7 183.073 238.804 183.074C238.26 183.057 238.07 183.327 238.156 183.851C238.262 184.474 238.563 185.025 238.796 185.6C238.037 185.939 238.138 185.162 237.845 184.911C237.733 185.164 237.275 185.005 237.258 185.385C237.483 185.316 237.604 185.407 237.703 185.62C237.86 185.908 238.105 186.137 238.403 186.274C238.701 186.411 239.035 186.448 239.355 186.379C239.826 186.25 239.578 185.911 239.472 185.696C239.257 185.266 238.966 184.879 238.839 184.398C238.713 183.917 238.839 183.692 239.36 183.778C239.743 183.841 240.12 183.887 240.509 183.94C241.084 184.021 241.44 184.284 241.408 184.932C241.375 185.579 241.914 185.673 242.382 185.779C242.85 185.886 243.394 186.075 243.71 185.443C243.806 185.248 243.893 185.048 244.001 184.861C244.345 184.264 244.219 183.813 243.607 183.492C243.154 183.254 243.007 182.986 243.354 182.48C243.908 181.634 243.371 180.276 242.425 179.949C242.289 179.901 242.15 179.859 242.01 179.825C241.301 179.676 240.691 179.405 240.398 178.666C240.299 178.504 240.176 178.358 240.034 178.233H239.446L239.879 178.527L239.91 178.583L239.877 178.527C239.672 178.562 239.426 178.461 239.31 178.729Z" fill="#071312"/>
<path d="M238.859 199.469C238.042 199.044 237.979 198.057 237.346 197.473C237.242 197.377 237.22 197.093 236.85 197.275C237.177 198.508 237.827 199.553 238.642 200.755C238.735 200.198 238.804 199.834 238.859 199.469Z" fill="#B1DDB2"/>
<path d="M262.411 171.533C262.627 171.67 262.876 171.747 263.132 171.755C262.95 171.497 262.745 171.31 262.411 171.533Z" fill="#061111"/>
<path d="M263.258 171.859L263.347 172.568C263.562 172.299 263.775 172.034 263.258 171.859Z" fill="#061111"/>
<path d="M240.043 177.867C240.113 177.834 240.174 177.787 240.223 177.728C240.272 177.67 240.307 177.601 240.327 177.527C239.917 177.373 240.046 177.674 240.043 177.867Z" fill="#071312"/>
<path d="M262.957 173.954C262.809 174.087 262.708 174.265 262.668 174.46C263.015 174.445 262.98 174.192 262.957 173.954Z" fill="#061111"/>
<path d="M262.259 174.974L261.96 174.931C262.003 174.999 262.033 175.106 262.097 175.129C262.16 175.151 262.238 175.063 262.259 174.974Z" fill="#061111"/>
<path d="M261.831 172.021C261.89 171.966 261.937 171.9 261.969 171.826C262 171.751 262.015 171.671 262.013 171.591C261.783 171.662 261.831 171.846 261.831 172.021Z" fill="#061111"/>
<path d="M274.23 185.326L274.203 185.493H274.296C274.296 185.471 274.311 185.443 274.296 185.425C274.277 185.391 274.255 185.358 274.23 185.326Z" fill="#061111"/>
<path d="M239.692 200.547C239.692 200.355 239.692 200.16 239.692 199.968C239.634 200.053 239.603 200.154 239.603 200.258C239.603 200.361 239.634 200.462 239.692 200.547Z" fill="#0287CC"/>
<path d="M261.664 172.396C261.721 172.349 261.768 172.289 261.799 172.223C261.831 172.156 261.848 172.083 261.849 172.008C261.664 172.079 261.674 172.241 261.664 172.396Z" fill="#061111"/>
<path d="M263.496 174.349L263.567 174.18L263.387 174.263L263.496 174.349Z" fill="#061111"/>
<path d="M263.132 173.61C263.085 173.638 263.048 173.678 263.023 173.727C262.999 173.775 262.989 173.83 262.995 173.883C263.041 173.855 263.078 173.814 263.102 173.766C263.126 173.718 263.136 173.664 263.132 173.61Z" fill="#061111"/>
<path d="M262.013 171.611C262.035 171.614 262.058 171.608 262.076 171.595C262.094 171.582 262.106 171.562 262.11 171.54C262.011 171.472 262.003 171.533 262.013 171.611Z" fill="#061111"/>
<path d="M274.914 181.867C274.899 181.855 274.884 181.844 274.868 181.834C274.868 181.834 274.848 181.834 274.838 181.834L274.924 181.852L274.914 181.867Z" fill="#02ABEB"/>
<path d="M264.24 172.168L264.432 172.272L264.24 172.168Z" fill="#061111"/>
<path d="M264.015 172.168L263.979 172.11L264.012 172.168H264.015Z" fill="#061111"/>
<path d="M263.122 174.936L263.258 174.762L263.122 174.936Z" fill="#061111"/>
<path d="M227.462 185.984C227.447 185.984 227.426 185.984 227.416 185.984C227.404 185.995 227.395 186.011 227.394 186.027C227.424 186.088 227.457 186.088 227.485 186.027C227.487 186.017 227.469 185.997 227.462 185.984Z" fill="#BFD52E"/>
<path d="M252.215 194.826C252.595 194.765 252.942 194.576 253.2 194.289C253.634 193.835 253.968 193.294 254.181 192.703C254.285 192.45 254.394 192.171 254.057 192.025C253.721 191.878 253.551 192.08 253.443 192.354C253.286 192.786 253.063 193.191 252.78 193.553C252.225 194.178 251.618 194.135 251.216 193.399C251.034 193.005 250.875 192.601 250.74 192.189C250.631 191.916 250.457 191.719 250.133 191.85C249.809 191.982 249.88 192.214 249.958 192.46C250.135 193.063 250.405 193.635 250.758 194.155C251.044 194.563 251.436 194.821 252.215 194.826Z" fill="#050D15"/>
<path d="M242.877 176.315C242.994 175.759 243.72 175.505 243.862 175.908C244.211 176.89 244.963 177.661 245.221 178.636C245.388 179.271 244.616 179.764 243.778 179.711C243.08 179.668 242.549 179.068 242.619 178.193C242.683 177.692 242.736 176.993 242.877 176.315ZM244.274 179.099C244.72 179.015 244.897 178.636 244.573 178.34C244.112 177.902 243.614 177.532 243.74 176.791C243.753 176.73 243.642 176.601 243.573 176.586C243.416 176.553 243.386 176.69 243.368 176.814L243.229 177.892C243.191 178.937 243.52 179.253 244.274 179.106V179.099Z" fill="#071312"/>
<path d="M255.616 188.631C255.607 188.897 255.7 189.157 255.876 189.357C256.052 189.556 256.298 189.682 256.563 189.707C257.069 189.727 257.464 189.239 257.453 188.606C257.443 187.973 256.99 187.419 256.522 187.411C256.054 187.404 255.621 188.009 255.616 188.631Z" fill="#050D15"/>
<path d="M248.323 188.527C248.323 187.842 248.02 187.49 247.471 187.515C247.207 187.547 246.967 187.681 246.801 187.888C246.635 188.096 246.558 188.36 246.585 188.624C246.638 189.13 246.765 189.664 247.428 189.714C247.956 189.747 248.333 189.231 248.323 188.527Z" fill="#050D15"/>
<path d="M245.889 177.864C245.408 177.879 244.877 177.284 244.826 176.763C244.786 176.338 245.023 176.204 245.37 176.179C245.836 176.143 246.357 176.644 246.362 177.166C246.253 177.403 246.372 177.849 245.889 177.864ZM245.745 177.31C245.944 177.358 245.98 177.196 245.977 177.057C245.977 176.758 245.742 176.664 245.517 176.581C245.292 176.497 245.264 176.619 245.264 176.791C245.241 177.11 245.466 177.244 245.732 177.31H245.745Z" fill="#071312"/>
<path d="M262.696 206.294C262.736 206.069 262.702 205.837 262.598 205.634C262.552 205.866 262.481 206.102 262.696 206.294Z" fill="#0287CC"/>
<path d="M239.874 178.537L239.907 178.593L239.877 178.537H239.874Z" fill="#060807"/>
<path d="M243.229 177.889C243.191 178.937 243.52 179.251 244.274 179.106C244.72 179.023 244.897 178.643 244.573 178.347C244.112 177.91 243.614 177.54 243.74 176.799C243.753 176.738 243.642 176.609 243.573 176.594C243.417 176.561 243.386 176.697 243.368 176.821L243.229 177.889Z" fill="#B1DDB2"/>
<path d="M245.241 176.781C245.241 177.11 245.466 177.244 245.732 177.31C245.932 177.358 245.967 177.196 245.965 177.057C245.965 176.758 245.73 176.665 245.504 176.581C245.279 176.498 245.246 176.609 245.241 176.781Z" fill="#B1DDB2"/>
<defs>
<filter id="filter0_d_456_3" x="0" y="0" width="260" height="208" filterUnits="userSpaceOnUse" color-interpolation-filters="sRGB">
<feFlood flood-opacity="0" result="BackgroundImageFix"/>
<feColorMatrix in="SourceAlpha" type="matrix" values="0 0 0 0 0 0 0 0 0 0 0 0 0 0 0 0 0 0 127 0" result="hardAlpha"/>
<feOffset dy="1"/>
<feGaussianBlur stdDeviation="2"/>
<feComposite in2="hardAlpha" operator="out"/>
<feColorMatrix type="matrix" values="0 0 0 0 0 0 0 0 0 0 0 0 0 0 0 0 0 0 0.25 0"/>
<feBlend mode="normal" in2="BackgroundImageFix" result="effect1_dropShadow_456_3"/>
<feBlend mode="normal" in="SourceGraphic" in2="effect1_dropShadow_456_3" result="shape"/>
</filter>
</defs>
</svg>
