<svg width="414" height="203" viewBox="0 0 414 203" fill="none" xmlns="http://www.w3.org/2000/svg">
<path d="M414 200C413.6 198.175 410.4 184.361 399.5 180.412C397.571 179.722 395.542 178.992 393.5 179H20.5C18.4579 178.992 16.4292 179.722 14.5 180.412C3.6 184.361 0.4 198.175 0 200V0H414V200Z" fill="url(#paint0_linear_483_54)"/>
<path d="M396.161 163.056C396.157 162.408 395.428 162.643 395.072 162.395C395.108 161.955 395.852 161.602 395.352 161.164C394.814 160.699 394.313 161.206 393.912 161.57C393.545 161.893 393.397 161.82 393.257 161.396C393.179 161.208 393.074 161.031 392.946 160.871C392.793 160.649 392.604 160.437 392.297 160.566C392.172 160.613 392.069 160.703 392.006 160.82C391.942 160.937 391.923 161.072 391.95 161.202C391.95 161.29 391.958 161.377 391.972 161.463C392.399 162.904 391.678 163.772 390.571 164.555C389.533 165.287 388.591 166.157 387.486 167.07C387.488 166.07 387.543 165.222 387.485 164.4C386.748 153.209 380.922 145.63 370.757 141.342C364.315 138.619 357.613 137.99 350.925 140.4C342.058 143.597 336.391 149.757 334.406 159.1C334.386 159.215 334.352 159.323 334.309 159.496C333.749 159.277 333.471 158.779 333.081 158.423C332.306 157.714 331.567 156.963 330.784 156.265C330.618 156.151 330.495 155.984 330.433 155.792C330.371 155.599 330.375 155.392 330.443 155.202C330.549 154.748 330.62 154.286 330.657 153.821C330.695 153.496 330.58 153.212 330.241 153.15C329.94 153.098 329.748 153.293 329.656 153.571C329.352 154.479 329.049 154.209 328.659 153.608C328.406 153.251 328.111 152.926 327.781 152.64C327.578 152.45 327.34 152.203 327.015 152.429C326.691 152.654 326.777 152.926 326.862 153.22C326.91 153.383 326.944 153.544 326.982 153.718C326.617 153.893 326.332 153.663 326.027 153.635C325.722 153.606 325.433 153.667 325.343 154.005C325.253 154.342 325.474 154.492 325.717 154.612C326.048 154.775 326.392 154.916 326.828 155.116C326.482 155.322 326.199 155.486 325.92 155.664C325.802 155.724 325.708 155.823 325.655 155.945C325.602 156.067 325.593 156.204 325.63 156.332C325.709 156.609 325.955 156.636 326.191 156.668C326.86 156.742 327.537 156.691 328.188 156.518C328.406 156.453 328.64 156.456 328.857 156.527C329.074 156.597 329.265 156.732 329.404 156.913C330.639 158.198 331.885 159.469 333.187 160.672C333.477 160.925 333.7 161.246 333.834 161.608C333.968 161.969 334.009 162.358 333.953 162.739C333.555 167.446 334.414 172.175 336.442 176.442C339.142 182.145 343.296 186.399 349.132 188.924C349.541 189.101 349.632 189.272 349.522 189.702C348.972 191.824 348.44 193.946 347.95 196.081C347.832 196.597 347.665 196.753 347.14 196.637C346.456 196.479 345.748 196.452 345.054 196.557C344.792 196.602 344.489 196.617 344.475 196.961C344.455 197.11 344.493 197.261 344.58 197.383C344.668 197.506 344.798 197.59 344.946 197.62C346.148 197.83 347.344 198.079 348.592 198.027C349.194 198.002 349.221 197.493 349.297 197.075C349.689 194.833 350.123 192.595 350.473 190.345C350.598 189.626 350.826 189.548 351.48 189.756C353.443 190.336 355.463 190.7 357.505 190.839C358.213 190.901 358.308 191.1 358.145 191.75C357.638 193.609 357.236 195.496 356.941 197.401C356.861 198.006 356.628 198.223 356.036 198.011C355.708 197.887 355.37 197.79 355.027 197.72C354.762 197.674 354.436 197.558 354.318 197.986C354.235 198.316 354.206 198.627 354.571 198.821C355.506 199.309 356.533 199.594 357.585 199.657C358.133 199.694 358.252 199.299 358.323 198.875C358.7 196.627 359.14 194.39 359.42 192.131C359.543 191.145 359.934 190.96 360.832 190.965C365.394 190.99 369.767 190.109 373.85 188.015C379.879 184.927 383.764 180.01 385.971 173.686C386.459 172.339 386.829 170.953 387.076 169.542C387.12 169.254 387.277 168.995 387.512 168.822C389.114 167.506 390.716 166.194 392.287 164.842C392.674 164.507 392.938 164.466 393.32 164.799C393.737 165.173 394.259 165.41 394.815 165.479C395.158 165.52 395.553 165.58 395.738 165.178C395.947 164.725 395.553 164.573 395.258 164.379C395.139 164.296 395.025 164.205 394.902 164.112C395.312 163.716 396.164 163.803 396.161 163.056ZM365.5 199C365.218 199.691 366.524 198.832 365.687 198.875C364.922 198.924 363.037 198.315 363.621 198.875C364.11 199.338 365.725 197.282 365.687 198C365.665 198.149 371.059 186.485 365 200.5C365.08 200.627 366.542 198.829 366.685 198.875C367.047 198.969 366.41 198.751 366.5 198.5C366.83 197.607 364.966 199.876 365.795 199.745C366.014 199.712 365.956 199.287 366 199C366.044 198.713 366.312 198.973 366.106 198.875C365.392 198.53 366.101 200.249 366.106 199.407C366.132 199.248 365.544 199.552 365.472 199.407C365.4 199.263 365.643 201.575 365.5 201.5C365.122 201.484 365.592 198.756 365.5 199ZM392.697 183.172C393.032 182.357 393.644 181.99 394.494 181.894C394.716 181.868 395.078 181.85 395.123 181.524C395.168 181.197 394.85 181.048 394.642 180.975C393.828 180.675 393.611 180.054 393.56 179.277C393.544 179.014 393.554 178.657 393.16 178.588C392.767 178.519 392.616 178.849 392.535 179.098C392.289 179.854 391.831 180.187 391.017 180.233C390.36 180.27 390.251 180.738 390.727 181.186C391.272 181.7 391.709 182.216 391.618 183.04C391.612 183.174 391.658 183.305 391.745 183.406C391.833 183.508 391.956 183.572 392.089 183.587C392.22 183.587 392.349 183.547 392.457 183.473C392.566 183.399 392.649 183.295 392.697 183.172ZM387.312 135.027C387.119 135.65 386.781 135.935 386.125 135.913C385.817 135.906 385.43 135.99 385.309 136.316C385.187 136.641 385.5 136.851 385.703 137.035C386.215 137.496 386.596 137.99 386.508 138.725C386.495 138.857 386.532 138.989 386.611 139.095C386.691 139.201 386.807 139.274 386.938 139.299C387.054 139.317 387.172 139.292 387.272 139.23C387.372 139.168 387.445 139.072 387.48 138.96C387.876 138.038 388.612 137.655 389.558 137.526C389.875 137.485 390.321 137.204 389.817 136.933C388.833 136.408 388.473 135.595 388.35 134.582C388.331 134.424 388.288 134.225 388.051 134.22C387.866 134.275 387.699 134.378 387.569 134.521C387.438 134.663 387.35 134.838 387.312 135.027ZM316.818 156.307C317.359 156.758 317.704 157.264 317.629 157.998C317.606 158.13 317.631 158.266 317.699 158.382C317.768 158.498 317.875 158.586 318.002 158.63C318.313 158.728 318.525 158.47 318.615 158.26C319.004 157.358 319.696 156.965 320.639 156.9C320.834 156.885 321.06 156.816 321.122 156.585C321.143 156.483 321.125 156.376 321.07 156.287C321.015 156.198 320.929 156.133 320.828 156.106C319.91 155.754 319.623 155.022 319.544 154.129C319.523 153.911 319.476 153.627 319.208 153.565C318.941 153.503 318.742 153.734 318.679 153.934C318.405 154.831 317.847 155.313 316.89 155.313C316.791 155.316 316.695 155.345 316.611 155.397C316.527 155.45 316.459 155.523 316.413 155.611C316.428 155.749 316.472 155.882 316.542 156.002C316.612 156.122 316.706 156.226 316.818 156.307ZM349.788 119.294C349.58 120.026 349.154 120.354 348.357 120.395C347.56 120.435 347.452 120.856 348.028 121.409C348.539 121.889 348.928 122.353 348.88 123.107C348.848 123.245 348.871 123.39 348.945 123.511C349.02 123.632 349.139 123.718 349.277 123.751C349.415 123.784 349.561 123.76 349.682 123.686C349.802 123.611 349.889 123.492 349.921 123.354C350.051 122.969 350.301 122.636 350.633 122.404C350.966 122.172 351.365 122.052 351.77 122.063C352.011 122.052 352.348 122.018 352.393 121.691C352.44 121.421 352.153 121.29 351.957 121.206C351.13 120.848 350.855 120.174 350.804 119.345C350.812 119.213 350.783 119.081 350.722 118.964C350.661 118.847 350.569 118.749 350.456 118.68C350.3 118.713 350.155 118.787 350.038 118.895C349.92 119.004 349.834 119.141 349.788 119.294ZM338.16 196.369C338.405 196.422 338.661 196.377 338.874 196.244C339.087 196.111 339.239 195.901 339.3 195.658C339.46 195.029 338.965 194.67 338.456 194.55C337.947 194.43 337.565 194.723 337.443 195.383C337.417 195.495 337.416 195.612 337.439 195.725C337.462 195.838 337.509 195.944 337.576 196.038C337.644 196.131 337.731 196.209 337.831 196.266C337.931 196.323 338.042 196.358 338.157 196.369L338.16 196.369ZM312.343 181.665C312.308 181.778 312.299 181.898 312.316 182.015C312.332 182.132 312.373 182.244 312.437 182.344C312.501 182.443 312.586 182.527 312.686 182.591C312.785 182.655 312.898 182.696 313.015 182.712C313.143 182.741 313.276 182.744 313.405 182.721C313.535 182.698 313.659 182.65 313.769 182.579C313.88 182.507 313.975 182.415 314.049 182.306C314.123 182.198 314.175 182.075 314.202 181.947C314.334 181.369 313.937 181.051 313.402 180.905C312.793 180.808 312.456 181.121 312.34 181.665L312.343 181.665ZM392.121 202.665C392.668 202.724 393.163 202.466 393.252 201.952C393.276 201.822 393.272 201.689 393.24 201.561C393.207 201.433 393.147 201.313 393.064 201.21C392.981 201.108 392.877 201.024 392.759 200.965C392.64 200.907 392.511 200.874 392.379 200.87C391.843 200.798 391.492 201.05 391.389 201.676C391.339 202.16 391.488 202.598 392.118 202.665L392.121 202.665ZM332.598 140.225C332.496 140.806 332.778 141.23 333.342 141.285C333.853 141.337 334.36 141.116 334.439 140.522C334.517 139.929 334.095 139.654 333.659 139.485C333.058 139.451 332.69 139.681 332.596 140.219L332.598 140.225ZM329.019 166.675C329.142 166.704 329.269 166.708 329.394 166.687C329.518 166.666 329.637 166.62 329.744 166.552C329.85 166.484 329.942 166.395 330.013 166.291C330.084 166.187 330.134 166.069 330.159 165.945C330.28 165.362 329.841 165.016 329.349 164.89C328.857 164.764 328.453 165.018 328.295 165.604C328.257 166.121 328.427 166.585 329.017 166.666L329.019 166.675ZM404.946 159.104C404.834 159.623 405.008 160.115 405.633 160.194C406.157 160.257 406.645 160.089 406.761 159.495C406.877 158.902 406.467 158.611 406.043 158.41C405.426 158.327 405.051 158.608 404.946 159.104Z" fill="#0287CC"/>
<path d="M395.25 164.39C395.526 164.581 395.927 164.734 395.73 165.189C395.545 165.591 395.15 165.531 394.807 165.49C394.251 165.421 393.729 165.184 393.312 164.81C392.93 164.477 392.666 164.518 392.279 164.853C390.708 166.205 389.106 167.517 387.504 168.833C387.269 169.006 387.113 169.265 387.068 169.553C386.821 170.964 386.451 172.35 385.964 173.697C383.756 180.021 379.871 184.938 373.842 188.026C369.759 190.12 365.386 191.001 360.824 190.976C359.921 190.97 359.535 191.156 359.412 192.142C359.132 194.401 358.692 196.638 358.315 198.886C358.241 199.31 358.125 199.705 357.577 199.668C356.525 199.605 355.498 199.32 354.563 198.832C354.207 198.636 354.224 198.329 354.321 197.987C354.43 197.557 354.766 197.671 355.03 197.721C355.374 197.791 355.711 197.888 356.039 198.011C356.622 198.222 356.863 198.013 356.945 197.401C357.24 195.497 357.641 193.61 358.148 191.75C358.312 191.101 358.216 190.901 357.508 190.839C355.466 190.7 353.446 190.337 351.483 189.756C350.829 189.549 350.577 189.623 350.476 190.345C350.12 192.594 349.692 194.833 349.3 197.076C349.227 197.494 349.2 197.988 348.595 198.028C347.347 198.079 346.15 197.839 344.949 197.62C344.801 197.591 344.671 197.506 344.583 197.384C344.496 197.262 344.458 197.111 344.478 196.962C344.492 196.617 344.795 196.602 345.057 196.558C345.751 196.452 346.459 196.479 347.143 196.637C347.668 196.754 347.835 196.597 347.953 196.082C348.444 193.946 348.975 191.824 349.526 189.702C349.635 189.272 349.544 189.101 349.135 188.925C343.303 186.4 339.148 182.146 336.445 176.442C334.417 172.175 333.558 167.447 333.957 162.739C334.012 162.358 333.971 161.969 333.837 161.608C333.703 161.247 333.481 160.925 333.19 160.672C331.891 159.454 330.645 158.183 329.407 156.914C329.268 156.733 329.077 156.598 328.86 156.527C328.643 156.457 328.41 156.454 328.191 156.519C327.54 156.691 326.863 156.742 326.194 156.669C325.96 156.628 325.712 156.609 325.633 156.332C325.596 156.204 325.605 156.068 325.658 155.946C325.711 155.824 325.805 155.724 325.924 155.664C326.202 155.487 326.491 155.323 326.831 155.116C326.394 154.922 326.05 154.782 325.72 154.613C325.478 154.493 325.243 154.328 325.346 154.005C325.449 153.682 325.725 153.607 326.03 153.635C326.335 153.664 326.62 153.893 326.985 153.718C326.946 153.55 326.911 153.396 326.865 153.22C326.78 152.927 326.722 152.635 327.018 152.429C327.314 152.224 327.582 152.45 327.784 152.64C328.115 152.926 328.409 153.251 328.662 153.608C329.052 154.209 329.355 154.479 329.659 153.572C329.754 153.279 329.95 153.096 330.244 153.151C330.584 153.21 330.698 153.496 330.66 153.821C330.624 154.286 330.552 154.748 330.446 155.203C330.378 155.393 330.374 155.6 330.436 155.792C330.498 155.985 330.621 156.151 330.787 156.266C331.57 156.963 332.309 157.715 333.084 158.423C333.474 158.78 333.753 159.278 334.312 159.496C334.343 159.322 334.389 159.2 334.409 159.101C336.394 149.758 342.073 143.6 350.928 140.4C357.616 137.991 364.318 138.619 370.76 141.343C380.92 145.639 386.746 153.218 387.488 164.4C387.544 165.231 387.491 166.071 387.489 167.071C388.594 166.158 389.536 165.288 390.574 164.555C391.681 163.773 392.411 162.906 391.976 161.464C391.961 161.377 391.953 161.29 391.953 161.203C391.926 161.073 391.946 160.937 392.009 160.821C392.073 160.704 392.176 160.614 392.3 160.566C392.607 160.437 392.796 160.653 392.949 160.872C393.077 161.031 393.182 161.208 393.26 161.397C393.4 161.821 393.555 161.894 393.915 161.57C394.316 161.206 394.808 160.698 395.355 161.165C395.857 161.59 395.111 161.956 395.075 162.395C395.431 162.643 396.16 162.408 396.164 163.056C396.167 163.804 395.3 163.714 394.897 164.124C395.017 164.216 395.131 164.307 395.25 164.39ZM371.131 143.886C370.831 143.917 370.847 144.146 370.825 144.359C370.591 144.405 370.569 144.599 370.525 144.781C370.044 145.242 369.443 145.558 368.79 145.693C368.137 145.827 367.46 145.775 366.836 145.543C365.719 145.09 365.733 145.099 365.181 146.146C364.743 146.908 364.558 147.791 364.655 148.665C364.721 149.222 364.689 149.765 364.037 150.057C363.15 150.453 362.85 150.398 362.493 149.477C362.136 148.557 361.416 148.032 360.74 147.452C360.182 146.973 359.986 146.447 360.401 145.844C361.325 144.496 360.559 143.006 360.832 141.604C360.9 141.216 360.484 141.311 360.246 141.309C356.913 141.276 353.601 141.834 350.463 142.956C348.181 143.78 346.04 144.954 344.118 146.435C343.663 146.167 343.754 146.551 343.711 146.779L343.618 147.225L342.92 147.103L343.374 147.541C343.128 147.529 342.857 147.358 342.66 147.652C340.896 149.345 339.205 151.1 338.048 153.29C337.958 153.439 337.877 153.593 337.806 153.753C337.688 154.042 337.316 154.379 337.688 154.661C338.014 154.92 338.403 154.786 338.726 154.514C339.089 154.212 339.498 153.788 339.652 154.676C339.467 154.954 338.956 154.669 338.857 155.116C338.646 155.204 338.418 155.396 338.225 155.362C336.993 155.147 336.823 156.047 336.566 156.882C336.016 158.644 336.014 158.675 337.839 158.566C339.604 158.463 341.329 158.522 342.969 159.345C343.511 159.616 343.886 159.951 343.977 160.546C344.129 161.473 344.545 162.336 345.175 163.032C345.813 163.763 346.071 164.592 345.612 165.534C345.573 165.644 345.543 165.757 345.522 165.871C344.889 168.239 343.698 170.125 341.06 170.563C339.656 170.795 339.093 171.768 338.711 172.941C338.625 173.03 338.567 173.144 338.546 173.267C338.525 173.389 338.54 173.515 338.591 173.629L338.569 174.074C338.411 174.511 338.348 174.975 338.382 175.438C338.417 175.9 338.549 176.35 338.769 176.758C341.263 181.884 345.347 185.215 350.575 187.203C356.256 189.398 362.485 189.74 368.372 188.18C373.198 186.944 376.944 184.082 380.011 180.253C380.367 179.807 380.824 179.407 380.98 178.818C383.489 175.51 385.005 171.557 385.353 167.42C385.66 164.488 385.306 161.525 384.318 158.748C384.304 158.73 384.288 158.714 384.271 158.699C384.271 158.699 384.247 158.695 384.235 158.693L384.333 158.732C384.208 160.584 383.015 162.163 382.991 164.042C382.019 164.074 382.656 163.194 382.326 162.864C382.216 162.436 382.246 161.984 382.412 161.575C383.086 160.001 382.993 158.334 383.141 156.69C383.173 155.991 382.985 155.301 382.603 154.715C380.525 150.856 377.521 147.573 373.86 145.162L373.653 144.999L373.385 144.952L373.355 144.875L373.382 144.951C373.235 145.793 373.175 146.668 372.433 147.264L372.203 147.326L372.314 147.45L371.946 147.891L371.747 148.07C370.936 149.168 370.751 149.2 369.908 148.437L370.057 147.583C370.126 147.592 370.191 147.618 370.246 147.661C370.3 147.703 370.343 147.759 370.368 147.823C370.405 147.913 370.419 148.046 370.49 148.086C370.56 148.126 370.672 148.037 370.714 147.936L371.306 147.42C371.723 147.462 371.732 147.166 371.754 146.879C371.751 146.87 371.75 146.86 371.752 146.85C371.753 146.841 371.757 146.832 371.763 146.824C371.769 146.817 371.777 146.811 371.786 146.807C371.795 146.803 371.804 146.802 371.814 146.802C371.874 146.778 371.927 146.738 371.965 146.685C372.004 146.633 372.027 146.571 372.033 146.506C372.189 146.106 372.349 145.709 372.505 145.312C372.816 145.038 373.123 144.767 372.546 144.452L372.418 144.303C372.254 143.964 372.05 143.693 371.607 143.888L371.249 143.826C371.146 143.724 371.123 143.804 371.12 143.89L371.131 143.886ZM341.909 169.299C342.308 169.233 342.681 169.056 342.984 168.789C343.287 168.521 343.509 168.174 343.623 167.786C343.921 166.967 344.309 166.183 344.619 165.364C344.743 165.083 344.785 164.773 344.742 164.469C344.699 164.166 344.571 163.88 344.374 163.645C343.815 162.866 343.338 162.031 342.951 161.154C342.398 159.991 341.195 159.732 340.084 159.618C338.866 159.495 337.643 159.65 336.422 159.676C335.965 159.683 335.917 160.049 335.869 160.338C335.409 163.167 335.089 165.995 335.9 168.819C335.917 168.934 335.919 169.051 335.907 169.167C336.039 170.699 336.595 172.075 337.313 173.672C337.538 173.039 337.689 172.62 337.837 172.199C338.563 170.35 340.148 169.679 341.909 169.299ZM362.754 141.453C361.72 141.347 361.124 141.918 361.53 142.878C361.966 143.927 361.63 144.754 361.223 145.612C360.952 146.185 361.027 146.57 361.529 146.961C362.17 147.46 362.834 147.951 363.148 148.758C363.215 148.928 363.235 149.272 363.562 149.175C363.626 149.157 363.685 149.125 363.736 149.083C363.787 149.041 363.829 148.988 363.858 148.929C363.887 148.869 363.904 148.804 363.906 148.738C363.909 148.672 363.898 148.606 363.873 148.544C363.577 147.21 364.206 146.124 364.765 144.983C365.08 144.347 365.458 144.227 366.096 144.456C367.113 144.826 368.144 145.148 369.229 144.647C369.475 144.563 369.7 144.424 369.885 144.241C370.445 143.571 370.387 143.338 369.556 143.038C368.871 142.791 368.185 142.535 367.485 142.338C366.557 142.08 365.614 141.875 364.714 141.656C364.032 141.589 363.394 141.518 362.754 141.453ZM382.715 162.907L382.826 162.926C382.831 162.899 382.855 162.869 382.84 162.845C382.823 162.807 382.804 162.771 382.782 162.736L382.715 162.907ZM327.032 153.804C327.015 153.814 327.002 153.831 326.996 153.85C327.02 153.929 327.059 153.936 327.104 153.869C327.104 153.869 327.093 153.83 327.087 153.81C327.081 153.791 327.033 153.798 327.032 153.804Z" fill="#060807"/>
<path d="M392.087 183.599C392.22 183.598 392.35 183.557 392.459 183.481C392.568 183.405 392.651 183.297 392.697 183.172C393.032 182.357 393.644 181.99 394.494 181.894C394.716 181.868 395.078 181.85 395.123 181.524C395.168 181.197 394.85 181.048 394.642 180.975C393.828 180.675 393.611 180.054 393.56 179.277C393.544 179.014 393.554 178.657 393.16 178.588C392.767 178.519 392.616 178.849 392.535 179.098C392.289 179.854 391.831 180.187 391.017 180.233C390.36 180.27 390.251 180.738 390.727 181.186C391.272 181.7 391.709 182.216 391.618 183.04C391.609 183.175 391.653 183.309 391.74 183.413C391.827 183.517 391.952 183.584 392.087 183.599Z" fill="white"/>
<path d="M388.049 134.226C387.865 134.28 387.7 134.383 387.57 134.524C387.44 134.665 387.35 134.839 387.312 135.027C387.119 135.65 386.781 135.935 386.125 135.913C385.817 135.906 385.43 135.99 385.309 136.316C385.187 136.641 385.5 136.851 385.703 137.035C386.215 137.496 386.596 137.99 386.508 138.725C386.495 138.857 386.532 138.989 386.611 139.095C386.691 139.201 386.807 139.274 386.938 139.299C387.054 139.317 387.172 139.292 387.272 139.23C387.372 139.168 387.445 139.072 387.48 138.96C387.876 138.038 388.612 137.655 389.558 137.526C389.875 137.485 390.321 137.204 389.817 136.933C388.833 136.408 388.473 135.595 388.35 134.582C388.344 134.439 388.286 134.237 388.049 134.226Z" fill="white"/>
<path d="M316.411 155.623C316.427 155.76 316.472 155.892 316.541 156.011C316.611 156.13 316.705 156.233 316.817 156.313C317.358 156.764 317.703 157.27 317.628 158.004C317.605 158.136 317.63 158.272 317.698 158.388C317.767 158.504 317.874 158.592 318.001 158.636C318.312 158.734 318.524 158.476 318.614 158.266C319.003 157.364 319.695 156.971 320.638 156.906C320.833 156.891 321.059 156.822 321.121 156.591C321.142 156.489 321.124 156.382 321.069 156.293C321.014 156.204 320.928 156.139 320.827 156.112C319.909 155.76 319.622 155.028 319.543 154.135C319.522 153.917 319.475 153.633 319.207 153.571C318.939 153.509 318.741 153.741 318.678 153.94C318.404 154.837 317.846 155.319 316.888 155.319C316.789 155.322 316.692 155.352 316.608 155.406C316.524 155.459 316.456 155.534 316.411 155.623Z" fill="white"/>
<path d="M350.456 118.677C350.298 118.71 350.152 118.785 350.034 118.895C349.915 119.005 349.829 119.144 349.784 119.3C349.575 120.031 349.149 120.36 348.352 120.4C347.555 120.441 347.448 120.862 348.023 121.415C348.534 121.894 348.924 122.359 348.876 123.112C348.86 123.181 348.857 123.252 348.868 123.321C348.88 123.39 348.904 123.457 348.941 123.517C348.978 123.576 349.026 123.628 349.083 123.67C349.14 123.711 349.205 123.74 349.273 123.756C349.342 123.773 349.412 123.775 349.482 123.764C349.551 123.753 349.618 123.728 349.677 123.691C349.737 123.654 349.789 123.606 349.83 123.549C349.872 123.492 349.901 123.428 349.917 123.359C350.047 122.975 350.296 122.642 350.629 122.409C350.962 122.177 351.36 122.058 351.766 122.068C352.006 122.058 352.344 122.024 352.388 121.697C352.436 121.426 352.149 121.296 351.953 121.212C351.126 120.854 350.851 120.18 350.8 119.35C350.81 119.217 350.783 119.084 350.722 118.966C350.661 118.847 350.569 118.747 350.456 118.677Z" fill="white"/>
<path d="M337.425 195.395C337.399 195.508 337.398 195.625 337.421 195.738C337.444 195.851 337.491 195.958 337.559 196.052C337.627 196.145 337.714 196.223 337.815 196.28C337.915 196.337 338.027 196.372 338.142 196.382C338.387 196.434 338.643 196.389 338.856 196.256C339.069 196.124 339.222 195.913 339.282 195.67C339.442 195.041 338.947 194.682 338.438 194.562C337.929 194.443 337.561 194.722 337.425 195.395Z" fill="white"/>
<path d="M313.399 180.905C312.797 180.8 312.458 181.109 312.337 181.664C312.302 181.777 312.293 181.897 312.31 182.014C312.326 182.131 312.367 182.243 312.431 182.342C312.495 182.442 312.58 182.526 312.68 182.59C312.779 182.654 312.892 182.695 313.009 182.711C313.137 182.74 313.27 182.743 313.399 182.72C313.529 182.697 313.652 182.649 313.763 182.577C313.874 182.506 313.969 182.414 314.043 182.305C314.117 182.197 314.169 182.074 314.196 181.945C314.331 181.368 313.934 181.051 313.399 180.905Z" fill="white"/>
<path d="M333.663 139.479C333.049 139.449 332.699 139.682 332.604 140.223C332.51 140.765 332.785 141.228 333.348 141.283C333.86 141.335 334.366 141.114 334.445 140.52C334.524 139.927 334.099 139.648 333.663 139.479Z" fill="white"/>
<path d="M328.297 165.611C328.257 166.121 328.436 166.586 329.017 166.666C329.14 166.695 329.268 166.699 329.392 166.678C329.517 166.656 329.636 166.61 329.742 166.542C329.848 166.474 329.94 166.385 330.011 166.281C330.083 166.177 330.133 166.06 330.158 165.936C330.278 165.353 329.84 165.007 329.348 164.88C328.855 164.754 328.45 165.018 328.297 165.611Z" fill="white"/>
<path d="M406.043 158.41C405.438 158.326 405.051 158.608 404.946 159.104C404.841 159.6 405.008 160.115 405.633 160.194C406.157 160.257 406.645 160.089 406.761 159.495C406.877 158.902 406.467 158.611 406.043 158.41Z" fill="white"/>
<path d="M372.413 144.311L372.542 144.461L372.5 145.321L372.028 146.514C371.967 146.538 371.914 146.578 371.875 146.631C371.836 146.683 371.813 146.746 371.809 146.811C371.799 146.81 371.79 146.812 371.781 146.815C371.772 146.819 371.764 146.825 371.758 146.833C371.752 146.84 371.749 146.849 371.747 146.859C371.745 146.868 371.746 146.878 371.749 146.887C371.545 147.015 371.388 147.204 371.301 147.428L370.709 147.945L370.364 147.832C370.338 147.767 370.295 147.711 370.241 147.669C370.186 147.627 370.121 147.6 370.052 147.591C369.259 147.062 368.396 147.215 367.371 148.012C366.693 148.541 366.964 149.149 367.171 149.755C367.274 150.055 367.429 150.339 367.554 150.634C368.012 151.702 367.715 152.388 366.65 152.793C366.199 152.965 366.124 152.614 366.085 152.36C366.01 151.845 366.025 151.315 365.98 150.793C365.929 150.198 365.608 149.962 365.127 150.356C364.465 150.833 363.717 151.177 362.924 151.371C362.176 151.593 361.368 153.327 361.61 154.069C361.652 154.179 361.722 154.276 361.812 154.352C361.903 154.427 362.011 154.478 362.127 154.5C363.599 154.94 364.246 156.252 365.17 157.277C365.199 157.311 365.22 157.349 365.234 157.391C365.247 157.433 365.252 157.477 365.248 157.52C365.029 158.777 365.802 159.671 366.363 160.646C366.654 161.161 366.677 161.63 366.284 162.088C365.424 163.112 365.335 164.4 365.218 165.619C365.184 165.96 365.012 166.447 365.5 166.616C365.988 166.785 366.518 167.026 367.084 166.679C367.905 166.181 368.217 165.371 368.49 164.536C368.615 164.158 368.748 163.962 369.205 163.989C371.04 164.124 372.874 164.267 374.623 164.895C375.404 165.174 375.686 165.728 375.47 166.517C375.382 166.843 375.158 166.8 374.93 166.826C374.052 166.923 373.776 167.244 374.008 168.062C374.169 168.645 373.992 168.722 373.487 168.649C372.735 168.54 371.964 168.501 371.232 168.348C370.924 168.258 370.598 168.247 370.284 168.315C369.97 168.383 369.678 168.528 369.435 168.738C368.119 169.886 366.489 170.333 364.873 170.841C363.257 171.348 363.152 171.596 363.524 173.247C363.772 174.27 364.173 175.25 364.714 176.153C365.069 176.662 365.216 177.287 365.127 177.901C364.675 179.92 365.143 181.978 364.819 183.994C364.794 184.138 364.766 184.294 364.744 184.424C364.641 184.691 364.508 184.956 364.724 185.229C364.738 185.249 364.745 185.272 364.745 185.297C364.745 185.321 364.738 185.345 364.725 185.365C363.977 185.925 363.103 185.64 362.293 185.665C360.132 185.731 358.012 185.348 355.888 184.934C352.715 184.3 349.679 183.111 346.92 181.422C343.811 179.593 341.126 177.125 339.042 174.182C338.914 173.995 338.721 174.126 338.566 174.074L338.588 173.629C338.628 173.4 338.668 173.169 338.708 172.94C339.089 171.768 339.653 170.791 341.056 170.562C343.695 170.125 344.869 168.245 345.519 165.871C345.54 165.756 345.57 165.643 345.609 165.533C346.067 164.591 345.807 163.774 345.172 163.032C344.542 162.335 344.126 161.472 343.974 160.545C343.883 159.95 343.516 159.617 342.966 159.344C341.334 158.523 339.61 158.464 337.836 158.566C336.011 158.674 336.012 158.65 336.562 156.881C336.819 156.049 336.989 155.149 338.222 155.362C338.414 155.395 338.643 155.203 338.853 155.116C339.135 155.081 339.261 155.215 339.334 155.488C339.46 155.862 339.704 156.186 340.029 156.41C340.355 156.635 340.744 156.748 341.139 156.732C341.725 156.677 341.501 156.223 341.419 155.945C341.253 155.389 340.988 154.869 340.937 154.272C340.886 153.674 341.083 153.433 341.685 153.643C342.126 153.798 342.564 153.93 343.016 154.074C343.682 154.289 344.051 154.676 343.877 155.439C343.704 156.202 344.325 156.425 344.859 156.648C345.393 156.871 346 157.21 346.507 156.524C346.662 156.312 346.805 156.093 346.973 155.893C347.506 155.255 347.449 154.693 346.789 154.185C346.3 153.808 346.181 153.459 346.698 152.93C347.532 152.041 347.176 150.315 346.12 149.731C345.968 149.645 345.812 149.567 345.652 149.497C344.842 149.173 344.173 148.725 343.978 147.786C343.894 147.573 343.779 147.374 343.635 147.196L343.728 146.751C343.817 146.727 343.9 146.684 343.97 146.624C344.04 146.565 344.097 146.491 344.135 146.407C346.053 144.925 348.188 143.75 350.466 142.922C353.604 141.8 356.916 141.243 360.248 141.276C360.486 141.277 360.909 141.183 360.835 141.57C360.571 142.974 361.336 144.464 360.404 145.81C359.991 146.401 360.184 146.927 360.743 147.418C361.419 147.998 362.148 148.54 362.495 149.444C362.843 150.347 363.152 150.42 364.039 150.023C364.691 149.731 364.724 149.188 364.657 148.632C364.561 147.757 364.745 146.875 365.184 146.112C365.747 145.067 365.733 145.059 366.838 145.509C367.463 145.742 368.14 145.794 368.793 145.659C369.445 145.524 370.046 145.208 370.528 144.747C370.605 144.703 370.673 144.642 370.724 144.569C370.776 144.497 370.811 144.413 370.827 144.325C370.909 144.273 370.979 144.203 371.031 144.122C371.084 144.04 371.119 143.948 371.133 143.852L371.129 143.876C371.154 143.884 371.182 143.882 371.206 143.87C371.23 143.858 371.249 143.837 371.258 143.812L371.616 143.874C371.838 144.088 372.113 144.239 372.413 144.311ZM355.926 169.002C356.536 168.552 357.045 167.979 357.421 167.321C357.597 167.042 357.784 166.734 357.415 166.49C357.045 166.245 356.802 166.451 356.616 166.753C356.341 167.234 355.991 167.669 355.58 168.04C354.792 168.668 354.079 168.491 353.754 167.532C353.62 167.027 353.515 166.514 353.44 165.997C353.367 165.649 353.201 165.379 352.789 165.468C352.376 165.557 352.412 165.848 352.455 166.156C352.54 166.909 352.742 167.645 353.053 168.336C353.323 168.882 353.735 169.27 354.645 169.435C355.106 169.445 355.557 169.298 355.923 169.017L355.926 169.002ZM347.774 149.732C348.758 149.969 349.777 149.542 349.71 148.753C349.612 147.543 348.87 146.469 348.662 145.231C348.577 144.723 347.662 144.873 347.408 145.51C347.099 146.287 346.891 147.105 346.721 147.673C346.444 148.728 346.95 149.551 347.771 149.747L347.774 149.732ZM360.887 164.258C361.484 164.387 362.054 163.889 362.173 163.136C362.293 162.382 361.869 161.63 361.315 161.523C360.76 161.417 360.121 162.046 359.986 162.784C359.916 163.101 359.97 163.431 360.137 163.709C360.304 163.986 360.572 164.188 360.884 164.273L360.887 164.258ZM350.542 159.76C350.223 159.743 349.909 159.852 349.669 160.064C349.43 160.276 349.283 160.573 349.26 160.892C349.218 161.505 349.258 162.165 350.035 162.363C350.655 162.521 351.21 161.986 351.344 161.148C351.477 160.31 351.195 159.867 350.539 159.775L350.542 159.76ZM350.383 145.863C349.966 145.821 349.655 145.931 349.615 146.444C349.57 147.075 350.075 147.891 350.649 147.972C351.224 148.054 351.193 147.504 351.356 147.241C351.456 146.636 350.94 145.932 350.38 145.878L350.383 145.863Z" fill="#0287CC"/>
<path d="M382.319 162.887C382.209 162.459 382.239 162.007 382.404 161.598C383.079 160.024 382.986 158.357 383.134 156.713C383.166 156.015 382.978 155.324 382.596 154.739C380.518 150.879 377.513 147.596 373.852 145.185L373.645 145.022L373.378 144.975C373.231 145.817 373.171 146.692 372.429 147.288L372.309 147.474L371.941 147.915L371.743 148.094C370.931 149.192 370.746 149.224 369.904 148.461C369.483 148.282 369.196 147.761 368.585 148.1C367.734 148.571 367.567 148.945 368.058 150.019C369.156 152.422 368.158 152.747 366.546 153.689C366.163 153.913 365.888 153.822 365.72 153.399C365.468 152.871 365.357 152.287 365.397 151.704C365.465 151.173 365.214 150.978 364.747 151.311C364.272 151.596 363.767 151.825 363.24 151.993C362.612 152.233 362.527 152.866 362.322 153.382C362.302 153.43 362.292 153.482 362.294 153.534C362.296 153.586 362.309 153.637 362.333 153.684C362.357 153.731 362.39 153.772 362.431 153.804C362.472 153.836 362.52 153.859 362.571 153.871C363.888 154.278 364.546 155.455 365.469 156.326C365.734 156.583 366.041 156.918 365.992 157.303C365.827 158.569 366.473 159.537 367.095 160.513C367.294 160.782 367.401 161.109 367.398 161.444C367.396 161.779 367.284 162.103 367.081 162.369C366.567 163.147 366.068 163.946 365.965 164.91C365.93 165.235 365.739 165.617 366.265 165.765C366.719 165.894 367.063 165.808 367.289 165.364C367.52 164.891 367.677 164.386 367.755 163.866C367.875 163.18 368.28 162.917 368.936 163.028C370.719 163.339 372.512 163.591 374.284 163.962C375.987 164.321 376.626 165.61 376.034 167.279C375.949 167.521 375.843 167.555 375.597 167.568C374.634 167.564 374.49 167.715 374.827 168.605C375.089 169.27 374.85 169.448 374.247 169.405C373.43 169.393 372.614 169.319 371.808 169.183C371.311 169.062 370.791 169.064 370.295 169.19C369.799 169.315 369.341 169.56 368.962 169.904C368.177 170.511 367.27 170.942 366.303 171.168C363.832 171.851 363.772 172.055 364.774 174.476C365.212 175.519 365.855 176.467 365.931 177.664C365.98 178.447 365.59 179.153 365.693 179.912C365.942 181.749 365.28 183.733 365.393 185.566L365.563 186.37L367.137 187.109L368.733 185.065C370.175 183.337 371.375 181.524 371.914 179.27C371.988 178.892 372.221 178.685 372.523 178.447C373.715 177.561 374.842 176.748 376.302 176.319C377.609 175.927 378.426 174.286 378.285 172.948C378.143 171.609 377.394 170.757 376.3 170.123C375.634 169.734 375.815 169.511 376.307 169.195C377.162 168.677 377.831 167.837 378.106 166.876C378.194 166.505 378.283 166.284 378.564 166.026C378.845 165.769 379.173 165.653 379.55 165.597C379.888 165.523 380.207 165.381 380.552 165.289C381.682 164.991 382.334 164.148 382.319 162.887Z" fill="#B1DDB2"/>
<path d="M370.352 184.418C370.957 183.17 372.017 182.156 372.326 180.76C372.81 178.574 374.495 177.704 376.368 177.129C377.275 176.873 378.051 176.282 378.541 175.476C379.03 174.67 379.197 173.709 379.007 172.786C378.797 171.696 378.518 170.708 377.382 170.203C376.908 169.993 376.819 169.687 377.335 169.337C377.651 169.129 377.923 168.86 378.134 168.546C378.344 168.231 378.49 167.878 378.563 167.507C378.715 166.796 379.175 166.393 379.916 166.194C380.67 165.969 381.403 165.682 382.11 165.338C382.641 165.121 383.035 164.725 382.989 164.07C382.017 164.101 382.654 163.221 382.324 162.891C382.339 164.152 381.604 164.782 380.48 165.094C380.154 165.189 379.82 165.329 379.479 165.402C379.101 165.457 378.75 165.625 378.469 165.882C378.188 166.14 377.991 166.476 377.903 166.846C377.628 167.808 377 168.63 376.145 169.148C375.665 169.466 375.488 169.749 376.155 170.137C377.252 170.772 377.985 171.647 378.129 173.02C378.274 174.392 377.585 175.712 376.26 176.116C374.8 176.546 373.61 177.432 372.418 178.317C372.116 178.555 371.91 178.894 371.836 179.272C371.297 181.525 369.937 183.301 368.498 185.03C368.297 185.558 367.861 185.91 367.508 186.316C367.073 186.819 366.517 186.666 365.991 186.491C365.464 186.315 365.507 185.852 365.584 185.413C365.47 183.581 365.956 181.76 365.705 179.929C365.602 179.171 365.992 178.465 365.943 177.682C365.867 176.485 365.218 175.535 364.787 174.493C363.785 172.072 363.845 171.869 366.316 171.185C367.282 170.96 368.189 170.528 368.974 169.921C369.354 169.578 369.812 169.333 370.308 169.207C370.804 169.082 371.323 169.079 371.82 169.201C372.626 169.337 373.442 169.411 374.26 169.422C374.871 169.467 375.098 169.302 374.839 168.622C374.502 167.733 374.646 167.582 375.609 167.586C375.853 167.588 375.961 167.539 376.047 167.297C376.646 165.639 375.999 164.339 374.296 163.98C372.524 163.608 370.731 163.357 368.949 163.046C368.293 162.931 367.881 163.197 367.768 163.883C367.689 164.404 367.532 164.909 367.301 165.382C367.075 165.826 366.733 165.902 366.277 165.782C365.752 165.635 365.942 165.253 365.977 164.928C366.081 163.964 366.578 163.174 367.093 162.387C367.297 162.121 367.408 161.796 367.411 161.461C367.413 161.127 367.307 160.8 367.108 160.531C366.485 159.555 365.84 158.587 366.005 157.321C366.054 156.936 365.759 156.603 365.482 156.344C364.558 155.476 363.9 154.295 362.583 153.889C362.532 153.877 362.485 153.854 362.444 153.821C362.403 153.789 362.369 153.748 362.345 153.702C362.322 153.655 362.308 153.604 362.307 153.552C362.305 153.499 362.314 153.447 362.334 153.399C362.542 152.869 362.627 152.236 363.252 152.011C363.779 151.842 364.285 151.614 364.759 151.329C365.238 150.998 365.477 151.191 365.409 151.721C365.369 152.305 365.481 152.889 365.733 153.417C365.9 153.839 366.176 153.931 366.559 153.706C368.17 152.764 369.168 152.44 368.07 150.036C367.579 148.962 367.747 148.589 368.597 148.118C369.208 147.778 369.495 148.299 369.916 148.478L370.065 147.625C369.272 147.096 368.409 147.248 367.383 148.045C366.705 148.574 366.977 149.182 367.184 149.789C367.287 150.088 367.442 150.373 367.567 150.667C368.024 151.735 367.728 152.421 366.663 152.826C366.212 152.998 366.137 152.648 366.097 152.393C366.023 151.878 366.038 151.348 365.993 150.826C365.942 150.231 365.621 149.996 365.14 150.389C364.478 150.866 363.73 151.211 362.937 151.404C362.189 151.627 361.381 153.36 361.623 154.102C361.665 154.212 361.735 154.309 361.825 154.385C361.915 154.46 362.024 154.511 362.139 154.533C363.611 154.973 364.259 156.285 365.183 157.311C365.211 157.344 365.233 157.382 365.247 157.424C365.26 157.466 365.265 157.51 365.261 157.553C365.042 158.81 365.815 159.704 366.376 160.679C366.667 161.194 366.69 161.663 366.297 162.121C365.437 163.145 365.348 164.433 365.231 165.652C365.197 165.993 365.025 166.48 365.513 166.649C366 166.818 366.531 167.06 367.097 166.712C367.918 166.214 368.23 165.405 368.503 164.569C368.628 164.192 368.761 163.995 369.218 164.022C371.053 164.157 372.887 164.3 374.636 164.928C375.417 165.207 375.698 165.761 375.483 166.551C375.395 166.876 375.17 166.834 374.943 166.859C374.065 166.957 373.789 167.277 374.021 168.095C374.182 168.678 374.004 168.755 373.5 168.682C372.748 168.573 371.977 168.534 371.245 168.382C370.936 168.291 370.611 168.28 370.297 168.348C369.983 168.416 369.691 168.561 369.448 168.771C368.132 169.92 366.502 170.366 364.886 170.874C363.27 171.381 363.165 171.629 363.536 173.28C363.784 174.304 364.186 175.283 364.727 176.187C365.081 176.696 365.229 177.321 365.14 177.935C364.688 179.953 365.156 182.011 364.832 184.027C364.806 184.171 364.779 184.328 364.757 184.457C364.838 184.72 364.831 185.003 364.737 185.262C364.751 185.282 364.758 185.306 364.758 185.33C364.758 185.354 364.751 185.378 364.738 185.398C364.764 185.45 364.783 185.506 364.793 185.563C364.837 186.162 364.519 186.9 365.36 187.211C366.314 187.563 367.284 187.795 368.102 186.922C368.867 186.092 369.603 185.244 370.352 184.418Z" fill="#061111"/>
<path d="M337.828 172.198C338.562 170.35 340.148 169.679 341.909 169.299C342.308 169.233 342.681 169.056 342.984 168.789C343.287 168.521 343.509 168.174 343.623 167.786C343.921 166.967 344.309 166.183 344.619 165.364C344.743 165.083 344.785 164.773 344.742 164.469C344.699 164.166 344.571 163.88 344.374 163.645C343.815 162.866 343.338 162.031 342.951 161.154C342.398 159.991 341.195 159.732 340.084 159.618C338.866 159.495 337.643 159.65 336.422 159.676C335.965 159.683 335.917 160.049 335.869 160.338C335.409 163.167 335.089 165.995 335.9 168.819C335.917 168.934 335.919 169.051 335.907 169.167C336.084 169.235 336.137 169.409 336.242 169.535C336.862 170.369 336.948 171.524 337.828 172.198Z" fill="#B1DDB2"/>
<path d="M342.666 147.653C340.902 149.346 339.211 151.101 338.054 153.291C337.964 153.44 337.883 153.594 337.812 153.754C337.693 154.043 337.322 154.38 337.694 154.662C338.02 154.921 338.409 154.787 338.732 154.515C339.095 154.213 339.504 153.789 339.658 154.677C339.954 155.039 339.673 155.937 340.646 155.692C340.488 154.961 340.245 154.244 340.248 153.482C340.251 152.863 340.536 152.56 341.179 152.694C342.244 152.878 343.259 153.284 344.159 153.883C344.513 154.14 344.874 154.454 344.735 154.966C344.596 155.478 344.873 155.696 345.305 155.852C345.807 156.03 346.042 155.746 346.314 155.394C346.631 154.966 346.441 154.669 346.114 154.429C345.339 153.845 345.473 153.326 346.038 152.632C346.83 151.642 346.573 150.687 345.403 150.216C344.329 149.784 343.44 149.216 343.081 148.045C343.006 147.87 342.918 147.666 342.666 147.653Z" fill="#B1DDB2"/>
<path d="M364.709 141.664C364.032 141.589 363.394 141.518 362.754 141.453C361.72 141.347 361.124 141.918 361.53 142.878C361.966 143.927 361.63 144.754 361.223 145.612C360.952 146.185 361.027 146.57 361.529 146.961C362.17 147.46 362.834 147.951 363.148 148.758C363.215 148.928 363.235 149.272 363.562 149.175C363.626 149.157 363.685 149.125 363.736 149.083C363.787 149.041 363.829 148.988 363.858 148.929C363.887 148.869 363.904 148.804 363.906 148.738C363.909 148.672 363.898 148.606 363.873 148.544C363.577 147.21 364.206 146.124 364.765 144.983C365.08 144.347 365.458 144.227 366.096 144.456C367.113 144.826 368.144 145.148 369.229 144.647C369.475 144.563 369.7 144.424 369.885 144.241C370.445 143.571 370.387 143.338 369.556 143.038C368.871 142.791 368.185 142.535 367.485 142.338C366.562 142.09 365.61 141.884 364.709 141.664Z" fill="#F6F6F6"/>
<path d="M342.666 147.653C342.921 147.667 343.009 147.871 343.066 148.058C343.426 149.229 344.312 149.796 345.389 150.229C346.546 150.697 346.824 151.657 346.023 152.645C345.459 153.339 345.325 153.858 346.099 154.442C346.417 154.683 346.624 154.983 346.3 155.407C346.039 155.761 345.804 156.045 345.29 155.865C344.859 155.709 344.573 155.52 344.72 154.979C344.867 154.438 344.499 154.153 344.144 153.896C343.244 153.298 342.229 152.894 341.164 152.71C340.521 152.576 340.239 152.858 340.233 153.498C340.23 154.26 340.473 154.977 340.63 155.708C339.658 155.953 339.94 155.052 339.643 154.693C339.458 154.971 338.947 154.686 338.847 155.133C339.129 155.099 339.255 155.232 339.328 155.505C339.454 155.88 339.698 156.204 340.023 156.428C340.349 156.652 340.738 156.765 341.133 156.75C341.719 156.694 341.495 156.24 341.413 155.963C341.247 155.407 340.982 154.887 340.931 154.289C340.88 153.692 341.077 153.45 341.679 153.661C342.12 153.815 342.558 153.948 343.01 154.092C343.676 154.307 344.045 154.694 343.871 155.456C343.698 156.219 344.319 156.442 344.853 156.666C345.387 156.889 345.994 157.227 346.501 156.541C346.656 156.33 346.799 156.11 346.967 155.91C347.5 155.272 347.443 154.711 346.783 154.202C346.294 153.826 346.175 153.477 346.692 152.947C347.526 152.058 347.17 150.333 346.114 149.748C345.962 149.662 345.806 149.585 345.646 149.515C344.836 149.191 344.167 148.742 343.972 147.804C343.888 147.591 343.773 147.392 343.629 147.214L342.931 147.092L343.385 147.531L343.409 147.603L343.382 147.53C343.131 147.53 342.86 147.359 342.666 147.653Z" fill="#071312"/>
<path d="M337.828 172.198C336.945 171.523 337.075 170.338 336.444 169.512C336.341 169.376 336.373 169.035 335.896 169.175C336.028 170.706 336.584 172.083 337.303 173.68C337.529 173.038 337.686 172.619 337.828 172.198Z" fill="#B1DDB2"/>
<path d="M371.602 143.897C371.831 144.105 372.111 144.248 372.413 144.311C372.25 143.967 372.045 143.702 371.602 143.897Z" fill="#061111"/>
<path d="M372.542 144.461L372.5 145.321C372.811 145.047 373.119 144.775 372.542 144.461Z" fill="#061111"/>
<path d="M343.717 146.78C343.806 146.756 343.888 146.713 343.959 146.653C344.029 146.594 344.085 146.52 344.124 146.436C343.669 146.168 343.76 146.552 343.717 146.78Z" fill="#071312"/>
<path d="M371.749 146.887C371.545 147.015 371.388 147.204 371.301 147.428C371.716 147.482 371.727 147.174 371.749 146.887Z" fill="#061111"/>
<path d="M370.708 147.954L370.362 147.841C370.399 147.931 370.413 148.063 370.483 148.104C370.554 148.144 370.665 148.055 370.708 147.954Z" fill="#061111"/>
<path d="M370.813 144.357C370.894 144.304 370.964 144.235 371.017 144.153C371.069 144.072 371.104 143.98 371.118 143.884C370.83 143.92 370.849 144.149 370.813 144.357Z" fill="#061111"/>
<path d="M382.782 162.736L382.714 162.928L382.825 162.948C382.83 162.921 382.854 162.891 382.84 162.867C382.824 162.822 382.804 162.778 382.782 162.736Z" fill="#061111"/>
<path d="M338.593 173.651C338.633 173.423 338.673 173.191 338.713 172.963C338.627 173.052 338.569 173.166 338.548 173.289C338.527 173.411 338.542 173.537 338.593 173.651Z" fill="#0287CC"/>
<path d="M370.536 144.767C370.614 144.723 370.681 144.662 370.733 144.59C370.785 144.517 370.82 144.433 370.836 144.345C370.602 144.391 370.58 144.586 370.536 144.767Z" fill="#061111"/>
<path d="M372.308 147.468L372.427 147.281L372.196 147.343L372.308 147.468Z" fill="#061111"/>
<path d="M372.028 146.514C371.967 146.538 371.914 146.578 371.875 146.631C371.836 146.683 371.813 146.746 371.809 146.811C371.869 146.787 371.922 146.746 371.961 146.694C371.999 146.641 372.023 146.579 372.028 146.514Z" fill="#061111"/>
<path d="M371.114 143.908C371.14 143.916 371.168 143.913 371.192 143.902C371.216 143.89 371.234 143.869 371.243 143.843C371.14 143.742 371.119 143.812 371.114 143.908Z" fill="#061111"/>
<path d="M384.311 158.768C384.297 158.751 384.281 158.734 384.264 158.72C384.264 158.72 384.24 158.715 384.228 158.713L384.326 158.752L384.311 158.768Z" fill="#02ABEB"/>
<path d="M373.377 144.984L373.347 144.908L373.374 144.984L373.377 144.984Z" fill="#061111"/>
<path d="M327.086 153.813C327.068 153.81 327.044 153.806 327.032 153.804C327.015 153.814 327.002 153.831 326.996 153.85C327.02 153.929 327.059 153.936 327.104 153.869C327.11 153.858 327.093 153.83 327.086 153.813Z" fill="#BFD52E"/>
<path d="M354.658 169.453C355.121 169.459 355.573 169.306 355.938 169.02C356.548 168.569 357.057 167.997 357.434 167.339C357.61 167.06 357.797 166.751 357.427 166.507C357.058 166.263 356.814 166.468 356.628 166.771C356.353 167.252 356.003 167.686 355.592 168.058C354.804 168.685 354.091 168.508 353.766 167.55C353.632 167.044 353.528 166.532 353.452 166.014C353.38 165.667 353.213 165.396 352.801 165.486C352.389 165.575 352.425 165.866 352.467 166.174C352.553 166.927 352.754 167.662 353.065 168.354C353.32 168.897 353.733 169.285 354.658 169.453Z" fill="#050D15"/>
<path d="M347.406 145.525C347.659 144.888 348.575 144.738 348.66 145.246C348.871 146.485 349.603 147.557 349.708 148.768C349.774 149.557 348.755 149.984 347.771 149.747C346.95 149.551 346.444 148.728 346.709 147.702C346.889 147.12 347.097 146.302 347.406 145.525ZM348.487 149.122C349.034 149.115 349.323 148.701 349 148.282C348.543 147.667 348.028 147.124 348.332 146.27C348.36 146.2 348.254 146.024 348.176 145.992C347.997 145.92 347.932 146.076 347.885 146.22L347.496 147.471C347.234 148.705 347.56 149.149 348.486 149.131L348.487 149.122Z" fill="#071312"/>
<path d="M359.983 162.799C359.917 163.114 359.974 163.441 360.141 163.715C360.309 163.989 360.574 164.189 360.884 164.273C361.481 164.402 362.051 163.904 362.171 163.151C362.29 162.397 361.867 161.645 361.312 161.538C360.758 161.432 360.118 162.061 359.983 162.799Z" fill="#050D15"/>
<path d="M351.341 161.163C351.483 160.348 351.195 159.867 350.538 159.784C350.218 159.767 349.905 159.876 349.665 160.088C349.425 160.3 349.278 160.597 349.256 160.916C349.214 161.529 349.253 162.189 350.031 162.387C350.652 162.536 351.207 162.001 351.341 161.163Z" fill="#050D15"/>
<path d="M350.662 147.99C350.087 147.908 349.579 147.092 349.628 146.462C349.668 145.949 349.978 145.839 350.395 145.88C350.956 145.935 351.471 146.638 351.369 147.259C351.19 147.519 351.239 148.072 350.662 147.99ZM350.605 147.302C350.833 147.4 350.909 147.215 350.934 147.05C350.996 146.695 350.736 146.535 350.486 146.389C350.236 146.243 350.177 146.381 350.142 146.586C350.049 146.96 350.288 147.166 350.59 147.299L350.605 147.302Z" fill="#071312"/>
<path d="M364.729 185.251C364.824 184.992 364.831 184.71 364.749 184.446C364.647 184.713 364.514 184.978 364.729 185.251Z" fill="#0287CC"/>
<path d="M343.376 147.542L343.404 147.615L343.379 147.542L343.376 147.542Z" fill="#060807"/>
<path d="M347.497 147.468C347.235 148.705 347.56 149.146 348.486 149.131C349.032 149.124 349.322 148.71 348.998 148.291C348.542 147.676 348.026 147.133 348.331 146.279C348.358 146.209 348.253 146.033 348.175 146.001C347.995 145.929 347.931 146.085 347.884 146.229L347.497 147.468Z" fill="#B1DDB2"/>
<path d="M350.117 146.569C350.049 146.96 350.288 147.166 350.59 147.299C350.818 147.398 350.894 147.213 350.919 147.047C350.981 146.692 350.721 146.532 350.471 146.386C350.221 146.24 350.159 146.366 350.117 146.569Z" fill="#B1DDB2"/>
<path d="M305 179H394V203H305V179Z" fill="white"/>
<defs>
<linearGradient id="paint0_linear_483_54" x1="207" y1="0" x2="207" y2="203" gradientUnits="userSpaceOnUse">
<stop stop-color="#408847"/>
<stop offset="1" stop-color="#81CD88"/>
</linearGradient>
</defs>
</svg>
