<svg width="134" height="136" viewBox="0 0 134 136" fill="none" xmlns="http://www.w3.org/2000/svg">
<g id="Group 52">
<path id="Vector" d="M119.256 53.5541C119.083 52.6015 118.071 53.1348 117.483 52.8613C117.424 52.2049 118.426 51.4938 117.578 50.9788C116.667 50.4318 116.061 51.307 115.564 51.9451C115.108 52.5149 114.871 52.4465 114.556 51.8585C114.392 51.6009 114.193 51.3676 113.964 51.1656C113.681 50.8785 113.348 50.6141 112.929 50.883C112.759 50.9849 112.63 51.144 112.567 51.332C112.503 51.52 112.509 51.7244 112.583 51.9086C112.606 52.0372 112.639 52.1638 112.683 52.287C113.681 54.2971 112.843 55.7603 111.416 57.1961C110.076 58.5408 108.913 60.0632 107.523 61.6905C107.268 60.2182 107.131 58.9556 106.835 57.7613C102.874 41.484 92.3535 31.8298 76.295 28.1331C66.1165 25.7811 56.0931 26.5788 46.8719 31.8435C34.6468 38.8266 27.8916 49.3469 27.3719 63.6049C27.3719 63.7781 27.3491 63.9468 27.3309 64.2112C26.4512 64.0334 25.9133 63.3725 25.2478 62.9486C23.9259 62.1053 22.6451 61.1891 21.3141 60.3641C21.0401 60.2378 20.8156 60.0246 20.6754 59.7575C20.5353 59.4903 20.4874 59.1844 20.5392 58.8872C20.5779 58.1913 20.5642 57.4934 20.4982 56.7996C20.4708 56.3118 20.2292 55.9244 19.7142 55.9198C19.2583 55.9198 19.0259 56.2571 18.9621 56.6902C18.7478 58.1032 18.2328 57.7841 17.5034 57.0001C17.0403 56.5397 16.5229 56.1371 15.9628 55.8013C15.6164 55.5734 15.2016 55.2726 14.7822 55.6874C14.3628 56.1022 14.5589 56.4805 14.7594 56.8907C14.8734 57.1186 14.9645 57.3465 15.0648 57.5927C14.5725 57.9437 14.0939 57.6793 13.6381 57.7158C13.1823 57.7522 12.772 57.9163 12.7265 58.436C12.6809 58.9556 13.0455 59.1197 13.433 59.2336C13.9617 59.3886 14.5042 59.5071 15.197 59.6895C14.7412 60.0815 14.3674 60.396 14.0028 60.7287C13.8437 60.8476 13.7311 61.0184 13.6845 61.2115C13.6379 61.4045 13.6602 61.6078 13.7475 61.7862C13.9344 62.1737 14.3036 62.1509 14.6591 62.1372C15.6625 62.0737 16.6454 61.8249 17.5581 61.4033C17.8637 61.2516 18.208 61.1961 18.5457 61.2441C18.8834 61.2921 19.1987 61.4414 19.4498 61.6723C21.5967 63.2448 23.7573 64.7946 25.9817 66.2305C26.4742 66.5278 26.8842 66.944 27.1741 67.441C27.464 67.9379 27.6245 68.4997 27.6409 69.0748C28.2648 76.1036 30.7438 82.8407 34.8246 88.5975C40.2625 96.2963 47.469 101.488 56.7039 103.703C57.3511 103.858 57.5289 104.086 57.4788 104.747C57.2144 108.011 56.9774 111.27 56.8041 114.538C56.7631 115.327 56.558 115.6 55.7558 115.564C54.7084 115.507 53.6597 115.649 52.6653 115.983C52.2915 116.115 51.8494 116.216 51.9178 116.726C51.927 116.95 52.0211 117.163 52.181 117.32C52.341 117.478 52.5549 117.568 52.7793 117.574C54.6025 117.574 56.4258 117.633 58.2491 117.237C59.1288 117.045 59.0377 116.288 59.0422 115.655C59.0422 112.254 59.106 108.85 59.0422 105.449C59.0422 104.36 59.3567 104.186 60.3732 104.323C63.4102 104.673 66.4766 104.689 69.5169 104.369C70.5744 104.278 70.7659 104.547 70.6929 105.545C70.4248 108.411 70.3183 111.291 70.3739 114.169C70.4103 115.081 70.1232 115.459 69.1979 115.299C68.6835 115.202 68.1622 115.146 67.639 115.131C67.2378 115.131 66.7273 115.044 66.6635 115.705C66.627 116.211 66.6635 116.676 67.2515 116.867C68.7518 117.346 70.3363 117.501 71.9009 117.323C72.7168 117.237 72.7897 116.626 72.7852 115.983C72.7624 112.578 72.8353 109.173 72.6666 105.777C72.5937 104.296 73.1225 103.922 74.4443 103.699C81.1631 102.564 87.3714 100.143 92.8412 96.0137C100.918 89.9194 105.372 81.6873 106.994 71.8142C107.366 69.7073 107.553 67.5722 107.555 65.4328C107.546 64.9974 107.71 64.5761 108.011 64.2613C110.03 61.9138 112.049 59.5709 114.014 57.1779C114.497 56.5853 114.875 56.4577 115.523 56.8497C116.233 57.2922 117.062 57.507 117.898 57.4651C118.413 57.4377 119.01 57.424 119.178 56.7859C119.37 56.0657 118.75 55.9426 118.267 55.733C118.071 55.6418 117.879 55.5369 117.674 55.4321C118.176 54.7438 119.452 54.6527 119.256 53.5541ZM82.5488 128.509C82.3118 129.598 81.8651 130.332 80.6435 130.61C79.5313 130.879 79.4857 131.522 80.4885 132.197C81.3272 132.753 81.979 133.322 82.1067 134.389C82.1133 134.614 82.1994 134.828 82.3496 134.995C82.4999 135.162 82.7045 135.271 82.9271 135.301C83.4832 135.346 83.6975 134.845 83.7658 134.453C84.0211 133.053 85.0239 132.516 86.209 132.11C86.5235 132.005 86.9292 131.896 86.9201 131.463C86.911 131.03 86.5144 130.929 86.1862 130.838C85.0467 130.515 84.3128 129.876 84.1031 128.637C84.101 128.395 84.0227 128.161 83.8795 127.967C83.7362 127.773 83.5353 127.629 83.3055 127.556C82.7448 127.629 82.6217 128.126 82.5488 128.509ZM119.329 84.0439C119.611 82.7585 120.418 82.061 121.644 81.7009C121.963 81.6052 122.492 81.4867 122.474 80.9944C122.456 80.5022 121.95 80.3654 121.626 80.3107C120.35 80.0782 119.871 79.2213 119.598 78.0909C119.507 77.708 119.429 77.1792 118.832 77.1792C118.235 77.1792 118.098 77.7034 118.043 78.0909C117.875 79.2669 117.287 79.8731 116.102 80.1512C115.144 80.3745 115.103 81.0902 115.919 81.628C116.854 82.2434 117.629 82.8906 117.706 84.1259C117.732 84.3245 117.833 84.5057 117.988 84.6327C118.143 84.7597 118.34 84.8229 118.54 84.8096C118.733 84.776 118.912 84.685 119.053 84.5484C119.193 84.4118 119.29 84.236 119.329 84.0439ZM99.0312 14.5862C98.9081 15.5525 98.4842 16.0585 97.5133 16.1952C97.0575 16.2636 96.5105 16.4869 96.4148 16.9974C96.3191 17.508 96.8342 17.7359 97.1806 17.9547C98.0512 18.5017 98.7395 19.1307 98.7987 20.2338C98.8135 20.4314 98.9017 20.6162 99.046 20.7521C99.1902 20.8879 99.3801 20.9648 99.5782 20.9676C99.7537 20.9646 99.9222 20.8984 100.053 20.7812C100.183 20.664 100.267 20.5036 100.289 20.3295C100.636 18.8709 101.62 18.1188 102.979 17.6857C103.434 17.5444 104.018 17.0157 103.207 16.7468C101.625 16.2271 100.886 15.124 100.444 13.6654C100.376 13.4375 100.262 13.1549 99.9109 13.2096C99.6526 13.3369 99.434 13.5324 99.2789 13.7751C99.1239 14.0178 99.0382 14.2983 99.0312 14.5862ZM0.774891 64.0152C1.68653 64.5394 2.32467 65.1958 2.40216 66.2943C2.40277 66.495 2.47457 66.689 2.60477 66.8417C2.73498 66.9945 2.91516 67.0961 3.11324 67.1284C3.59641 67.1922 3.84255 66.7592 3.92004 66.4265C4.2619 64.9997 5.1781 64.2431 6.55012 63.9058C6.83272 63.8329 7.14724 63.6733 7.17915 63.3178C7.18443 63.1617 7.12973 63.0096 7.02631 62.8926C6.92288 62.7756 6.77858 62.7027 6.62305 62.6888C5.18266 62.4062 4.57186 61.4033 4.22544 60.1088C4.13883 59.7943 3.99753 59.3886 3.58729 59.3658C3.17706 59.343 2.94459 59.735 2.90356 60.045C2.73035 61.4352 2.03295 62.2876 0.62447 62.5338C0.479934 62.5633 0.345876 62.6307 0.23611 62.7293C0.126344 62.8278 0.0448423 62.9539 0 63.0944C0.05781 63.2934 0.156611 63.4782 0.290062 63.6368C0.423512 63.7953 0.58866 63.9242 0.774891 64.0152ZM39.7748 1.08026C39.6562 2.21069 39.1138 2.80326 37.9515 3.06764C36.7891 3.33201 36.739 3.97927 37.7281 4.64477C38.6033 5.2191 39.2961 5.80255 39.4192 6.92386C39.4065 7.13542 39.4784 7.34335 39.619 7.50192C39.7596 7.66049 39.9575 7.7567 40.169 7.76939C40.3806 7.78209 40.5885 7.71023 40.7471 7.56961C40.9057 7.42899 41.0019 7.23115 41.0146 7.01959C41.1065 6.42041 41.3881 5.86647 41.818 5.43905C42.2478 5.01164 42.8034 4.73326 43.4031 4.64477C43.7541 4.56728 44.2418 4.43054 44.2235 3.93825C44.2235 3.52801 43.7677 3.4095 43.4578 3.33657C42.1496 3.02205 41.5707 2.10129 41.2835 0.89337C41.2604 0.697306 41.1846 0.511158 41.0642 0.354673C40.9438 0.198187 40.7834 0.0772045 40.5998 0.00453186C40.3785 0.0934777 40.1852 0.240243 40.04 0.429483C39.8949 0.618724 39.8033 0.843481 39.7748 1.08026ZM42.4732 117.478C42.8475 117.492 43.2126 117.36 43.4915 117.11C43.7704 116.86 43.9414 116.512 43.9683 116.138C44.0412 115.172 43.2207 114.771 42.4413 114.725C41.6618 114.679 41.1741 115.208 41.165 116.211C41.156 116.383 41.1838 116.555 41.2467 116.715C41.3095 116.875 41.4059 117.02 41.5293 117.14C41.6528 117.26 41.8005 117.353 41.9625 117.411C42.1245 117.469 42.297 117.492 42.4686 117.478H42.4732ZM0.706514 102.477C0.685303 102.653 0.702371 102.83 0.756536 102.998C0.810701 103.167 0.900673 103.321 1.02026 103.451C1.13984 103.581 1.2862 103.683 1.44922 103.751C1.61225 103.819 1.78807 103.851 1.96458 103.845C2.16079 103.854 2.35698 103.825 2.54167 103.758C2.72635 103.691 2.89582 103.588 3.04014 103.455C3.18447 103.321 3.30075 103.161 3.38218 102.982C3.4636 102.803 3.50854 102.61 3.51436 102.413C3.55994 101.529 2.89445 101.164 2.06941 101.087C1.14866 101.101 0.733865 101.648 0.701958 102.477H0.706514ZM123.49 112.874C124.311 112.82 124.972 112.314 124.972 111.534C124.974 111.337 124.933 111.142 124.853 110.961C124.772 110.781 124.653 110.621 124.505 110.491C124.356 110.361 124.181 110.265 123.992 110.209C123.803 110.153 123.604 110.139 123.408 110.167C122.602 110.199 122.15 110.659 122.159 111.607C122.21 112.332 122.542 112.938 123.486 112.874H123.49ZM19.86 36.2968C19.86 37.1766 20.3842 37.7281 21.2275 37.6643C21.9933 37.6096 22.6815 37.1538 22.6451 36.2604C22.6086 35.367 21.9158 35.0707 21.232 34.9339C20.3386 35.0388 19.8555 35.4718 19.8555 36.2877L19.86 36.2968ZM21.3916 76.1354C21.5799 76.1465 21.7686 76.1196 21.9463 76.0563C22.1241 75.9931 22.2873 75.8948 22.4263 75.7672C22.5654 75.6397 22.6773 75.4855 22.7556 75.3138C22.8339 75.1422 22.8769 74.9566 22.8821 74.768C22.9095 73.8791 22.1756 73.4825 21.4189 73.4233C20.6623 73.364 20.1335 73.8426 20.0515 74.7451C20.129 75.5155 20.4982 76.1536 21.387 76.1217L21.3916 76.1354ZM131.166 45.4816C131.135 46.2747 131.517 46.9539 132.456 46.9083C133.245 46.8673 133.92 46.4935 133.938 45.591C133.956 44.6885 133.277 44.3648 132.602 44.1779C131.672 44.2144 131.194 44.7249 131.166 45.4816Z" fill="#0287CC"/>
<path id="Vector_2" d="M118.258 55.7512C118.714 55.9609 119.343 56.084 119.169 56.8042C119.001 57.4423 118.404 57.456 117.889 57.4834C117.053 57.5253 116.224 57.3106 115.514 56.868C114.866 56.476 114.488 56.6036 114.005 57.1962C112.04 59.5892 110.021 61.9322 108.002 64.2796C107.701 64.5944 107.537 65.0157 107.546 65.4511C107.544 67.5905 107.357 69.7257 106.985 71.8325C105.363 81.7056 100.909 89.9377 92.8322 96.032C87.3623 100.162 81.1541 102.582 74.4353 103.717C73.1043 103.94 72.5847 104.314 72.6576 105.796C72.8263 109.191 72.7533 112.596 72.7761 116.001C72.7761 116.644 72.7077 117.255 71.8918 117.341C70.3272 117.519 68.7428 117.364 67.2425 116.886C66.6682 116.69 66.6135 116.234 66.6682 115.705C66.7183 115.044 67.2425 115.126 67.6436 115.131C68.1669 115.146 68.6881 115.202 69.2025 115.299C70.1141 115.459 70.415 115.09 70.3785 114.169C70.3229 111.291 70.4295 108.411 70.6976 105.545C70.7705 104.547 70.5791 104.278 69.5216 104.369C66.4812 104.689 63.4149 104.674 60.3779 104.323C59.3614 104.187 59.0104 104.36 59.0469 105.449C59.1016 108.85 59.0469 112.255 59.0469 115.655C59.0469 116.289 59.1335 117.022 58.2537 117.237C56.4305 117.633 54.6072 117.588 52.7839 117.574C52.5595 117.568 52.3457 117.478 52.1857 117.32C52.0257 117.163 51.9316 116.95 51.9224 116.726C51.854 116.216 52.2962 116.115 52.67 115.983C53.6644 115.649 54.713 115.507 55.7604 115.564C56.5626 115.6 56.7678 115.327 56.8088 114.538C56.982 111.27 57.219 108.011 57.4834 104.747C57.5335 104.086 57.3558 103.858 56.7085 103.703C47.4782 101.488 40.2717 96.2963 34.8292 88.5976C30.7485 82.8407 28.2694 76.1036 27.6455 69.0748C27.6291 68.4997 27.4686 67.938 27.1787 67.441C26.8888 66.9441 26.4788 66.5279 25.9863 66.2305C23.7619 64.7719 21.6013 63.2221 19.4544 61.6723C19.2033 61.4415 18.8881 61.2922 18.5504 61.2442C18.2126 61.1961 17.8683 61.2517 17.5628 61.4034C16.6501 61.8249 15.6671 62.0738 14.6638 62.1373C14.3082 62.1373 13.939 62.1737 13.7521 61.7863C13.6648 61.6079 13.6425 61.4046 13.6891 61.2115C13.7357 61.0185 13.8483 60.8477 14.0074 60.7288C14.3721 60.396 14.7549 60.0815 15.2016 59.6895C14.5088 59.5163 13.9664 59.3978 13.4376 59.2337C13.0502 59.1198 12.6627 58.9374 12.7311 58.436C12.7995 57.9346 13.1869 57.7523 13.6427 57.7158C14.0986 57.6794 14.5772 57.9437 15.0695 57.5927C14.9692 57.3557 14.878 57.1369 14.7641 56.8908C14.5635 56.4806 14.404 56.0658 14.7868 55.6874C15.1697 55.3091 15.621 55.5735 15.9674 55.8014C16.5276 56.1372 17.0449 56.5397 17.5081 57.0002C18.2374 57.7842 18.7525 58.1033 18.9667 56.6902C19.0305 56.2344 19.2721 55.9153 19.7188 55.9199C20.2339 55.9199 20.4755 56.3119 20.5028 56.7996C20.5688 57.4935 20.5825 58.1914 20.5438 58.8873C20.492 59.1844 20.5399 59.4904 20.6801 59.7575C20.8202 60.0246 21.0448 60.2379 21.3187 60.3641C22.6497 61.1892 23.9306 62.1053 25.2524 62.9486C25.9179 63.3725 26.4558 64.0335 27.3355 64.2112C27.3355 63.9469 27.372 63.7554 27.3766 63.605C27.8962 49.347 34.6697 38.8267 46.8765 31.8435C56.0977 26.5788 66.1212 25.7811 76.2996 28.1332C92.3535 31.8435 102.874 41.4978 106.839 57.7614C107.136 58.9693 107.273 60.2183 107.528 61.6906C108.918 60.0633 110.08 58.5408 111.42 57.1962C112.847 55.7604 113.7 54.2972 112.688 52.287C112.644 52.1638 112.61 52.0373 112.587 51.9087C112.514 51.7245 112.508 51.52 112.572 51.3321C112.635 51.1441 112.763 50.9849 112.934 50.8831C113.353 50.6142 113.686 50.8831 113.968 51.1657C114.198 51.3677 114.397 51.601 114.561 51.8586C114.876 52.4466 115.122 52.5149 115.568 51.9452C116.065 51.307 116.658 50.4319 117.583 50.9788C118.431 51.4757 117.428 52.205 117.487 52.8613C118.075 53.1348 119.087 52.6015 119.261 53.5542C119.457 54.6527 118.157 54.7439 117.67 55.4504C117.87 55.5553 118.062 55.6601 118.258 55.7512ZM77.4984 31.7797C77.0654 31.9028 77.1474 32.2355 77.1702 32.5546C76.8375 32.6822 76.8557 32.974 76.8375 33.252C76.2481 34.0542 75.4445 34.6738 74.5189 35.0399C73.5933 35.4059 72.5832 35.5035 71.6047 35.3214C69.8452 34.9431 69.868 34.9522 69.3256 36.6342C68.8762 37.869 68.8315 39.2148 69.1979 40.4767C69.4395 41.279 69.5307 42.0858 68.6464 42.6829C67.443 43.4943 66.9872 43.4897 66.226 42.2271C65.4648 40.9645 64.2705 40.3765 63.1264 39.6973C62.1829 39.1367 61.759 38.4119 62.2148 37.4182C63.2267 35.1984 61.718 33.2019 61.759 31.0686C61.759 30.4806 61.171 30.7268 60.82 30.786C55.9083 31.5943 51.1783 33.2656 46.8491 35.7226C43.7029 37.5224 40.855 39.7998 38.4074 42.4732C37.669 42.1952 37.9014 42.7376 37.8969 43.084L37.8741 43.7632H36.8166L37.596 44.2919C37.2314 44.3375 36.7892 44.1552 36.575 44.6384C34.4144 47.583 32.3769 50.6005 31.2374 54.1194C31.1426 54.3618 31.0634 54.6099 31.0003 54.8624C30.9 55.3182 30.4397 55.9108 31.0596 56.2298C31.6066 56.5261 32.1444 56.2298 32.5501 55.7467C33.0059 55.2088 33.4982 54.4795 33.954 55.7467C33.7535 56.2025 32.9284 55.9153 32.8965 56.5991C32.6094 56.7814 32.3222 57.1233 32.0305 57.1233C30.1616 57.1233 30.1434 58.4907 29.9793 59.7852C29.6237 62.5201 29.6283 62.5657 32.2857 61.9367C34.8566 61.3305 37.4091 60.9749 40.0347 61.7635C40.9007 62.0233 41.5389 62.4199 41.826 63.2723C42.2879 64.5968 43.1219 65.76 44.2282 66.6225C45.3541 67.5342 45.9466 68.6874 45.5136 70.1916C45.4845 70.3633 45.4692 70.5371 45.468 70.7112C45.1444 74.3578 43.8772 77.4391 40.1076 78.761C38.102 79.4629 37.5231 81.0401 37.2633 82.8633C37.1594 83.0176 37.1039 83.1993 37.1039 83.3853C37.1039 83.5712 37.1594 83.7529 37.2633 83.9072L37.3453 84.5681C37.2257 85.2504 37.2516 85.9503 37.4213 86.6219C37.591 87.2935 37.9006 87.9217 38.3299 88.4654C43.3166 95.3665 50.1812 99.2181 58.3859 100.8C67.3086 102.569 76.5623 101.472 84.8234 97.6638C91.606 94.6053 96.383 89.4317 99.911 83.0092C100.321 82.2617 100.891 81.5552 100.969 80.6481C103.81 75.1359 105.026 68.9295 104.474 62.7526C104.172 58.3601 102.89 54.0909 100.722 50.2586C100.697 50.2363 100.669 50.2165 100.64 50.1994C100.64 50.1994 100.604 50.1994 100.586 50.1994L100.741 50.2313C101.032 52.989 99.6831 55.619 100.13 58.3904C98.7077 58.6867 99.4187 57.2281 98.849 56.827C98.5775 56.2256 98.5056 55.5532 98.6438 54.908C99.2318 52.4192 98.6666 49.9897 98.4615 47.5328C98.3297 46.4971 97.8752 45.529 97.1624 44.766C93.1128 39.6211 87.8485 35.5628 81.8424 32.9557L81.4959 32.7689H81.0903L81.0264 32.664L81.0857 32.7689C81.0857 34.0452 81.2224 35.3488 80.2835 36.4154L79.9598 36.5658L80.1558 36.7208L79.7274 37.4638L79.4812 37.7783C78.5696 39.6016 78.3052 39.6973 76.8694 38.7902V37.4957C76.9725 37.4908 77.0751 37.5136 77.1665 37.5617C77.2578 37.6098 77.3347 37.6814 77.389 37.7692C77.4665 37.8923 77.5212 38.0837 77.6352 38.1247C77.7491 38.1658 77.8904 38.0062 77.9269 37.8467L78.6653 36.9351C79.2898 36.8895 79.226 36.4519 79.1849 36.0234C79.1781 36.0108 79.1745 35.9967 79.1744 35.9823C79.1744 35.9679 79.1779 35.9538 79.1847 35.9411C79.1915 35.9285 79.2013 35.9177 79.2133 35.9098C79.2252 35.9019 79.239 35.8971 79.2533 35.8958C79.3359 35.8446 79.4027 35.7715 79.4462 35.6845C79.4897 35.5976 79.5081 35.5003 79.4994 35.4035C79.6271 34.7745 79.7593 34.15 79.8869 33.5255C80.2743 33.0423 80.6572 32.5637 79.7274 32.2492L79.4994 32.0623C79.1713 31.6065 78.802 31.2601 78.2004 31.6612H77.6579C77.4802 31.5382 77.4665 31.6612 77.4847 31.7888L77.4984 31.7797ZM41.0329 76.6824C41.6031 76.4834 42.1057 76.1276 42.483 75.656C42.8603 75.1844 43.0971 74.6159 43.1661 74.0159C43.394 72.7351 43.7632 71.4816 44.0094 70.1961C44.1189 69.7512 44.1019 69.2845 43.9601 68.8487C43.8184 68.4129 43.5575 68.0255 43.2072 67.7302C42.1841 66.7275 41.2675 65.6215 40.4722 64.43C39.36 62.862 37.5231 62.7891 35.8594 62.9076C34.0361 63.0398 32.2766 63.5822 30.4852 63.9332C29.8152 64.0608 29.838 64.6124 29.8425 65.05C29.8927 69.3301 30.1479 73.5738 32.0669 77.5212C32.1217 77.6864 32.1554 77.858 32.1672 78.0317C32.7552 80.2515 33.9267 82.134 35.3944 84.2992C35.5631 83.3101 35.677 82.6537 35.7864 81.9973C36.379 79.0892 38.5396 77.6944 41.0329 76.6824V76.6824ZM64.5486 30.353C62.9988 30.4624 62.2695 31.4561 63.1128 32.7643C64.0244 34.1956 63.7418 35.4992 63.3635 36.8667C63.1128 37.7783 63.3224 38.3253 64.1611 38.772C65.2323 39.3418 66.3354 39.8933 67.0055 41.001C67.1468 41.2334 67.2653 41.7348 67.7211 41.5069C67.8104 41.4641 67.8896 41.403 67.9538 41.3276C68.0179 41.2522 68.0655 41.1641 68.0935 41.0692C68.1214 40.9742 68.1291 40.8744 68.116 40.7763C68.1028 40.6781 68.0693 40.5839 68.0174 40.4995C67.2379 38.6124 67.8852 36.853 68.4139 35.0297C68.7148 34.0132 69.239 33.7398 70.2372 33.913C71.828 34.1956 73.4279 34.4052 74.8957 33.3888C75.237 33.2019 75.5316 32.9401 75.7572 32.623C76.409 31.4926 76.2631 31.1644 74.9641 30.9365C73.8929 30.7496 72.8171 30.549 71.7369 30.4396C70.3056 30.2983 68.8652 30.2391 67.4841 30.1479C66.463 30.2254 65.5058 30.2847 64.5486 30.353V30.353ZM99.4324 56.7905H99.6011C99.6011 56.7495 99.6284 56.6994 99.6011 56.6674C99.5662 56.6165 99.5281 56.5677 99.4871 56.5216L99.4324 56.7905ZM15.1606 57.7067C15.1375 57.7263 15.1229 57.7541 15.1196 57.7842C15.1743 57.8936 15.2336 57.8936 15.2837 57.7842C15.2837 57.7842 15.2563 57.7295 15.2427 57.7022C15.229 57.6748 15.1606 57.6976 15.1606 57.7067Z" fill="#060807"/>
<path id="Vector_3" d="M83.3054 127.547C82.7448 127.634 82.6308 128.126 82.5488 128.509C82.3117 129.598 81.865 130.332 80.6435 130.61C79.5313 130.879 79.4857 131.522 80.4885 132.197C81.3272 132.753 81.979 133.322 82.1066 134.389C82.1132 134.614 82.1993 134.828 82.3496 134.995C82.4999 135.162 82.7045 135.271 82.9271 135.301C83.4832 135.346 83.6974 134.845 83.7658 134.453C84.0211 133.053 85.0239 132.516 86.209 132.11C86.5235 132.005 86.9292 131.896 86.9201 131.463C86.911 131.03 86.5144 130.929 86.1862 130.838C85.0467 130.515 84.3128 129.876 84.1031 128.637C84.1029 128.394 84.0255 128.157 83.8821 127.962C83.7387 127.766 83.5368 127.621 83.3054 127.547V127.547Z" fill="white"/>
<path id="Vector_4" d="M118.54 84.828C118.736 84.7932 118.916 84.6995 119.057 84.5594C119.198 84.4193 119.293 84.2394 119.329 84.044C119.611 82.7586 120.418 82.0612 121.644 81.7011C121.963 81.6053 122.492 81.4868 122.474 80.9946C122.456 80.5023 121.95 80.3655 121.626 80.3108C120.35 80.0784 119.871 79.2214 119.598 78.091C119.506 77.7081 119.429 77.1794 118.832 77.1794C118.235 77.1794 118.098 77.7035 118.043 78.091C117.875 79.267 117.287 79.8733 116.101 80.1513C115.144 80.3747 115.103 81.0903 115.919 81.6281C116.854 82.2435 117.628 82.8908 117.706 84.126C117.728 84.3279 117.827 84.5136 117.982 84.6444C118.138 84.7752 118.337 84.8409 118.54 84.828V84.828Z" fill="white"/>
<path id="Vector_5" d="M99.9108 13.2188C99.6538 13.3453 99.4361 13.5395 99.2811 13.7804C99.1261 14.0213 99.0397 14.2999 99.0311 14.5862C98.908 15.5526 98.4841 16.0586 97.5132 16.1953C97.0574 16.2637 96.5104 16.487 96.4147 16.9975C96.319 17.508 96.834 17.736 97.1804 17.9548C98.0511 18.5017 98.7393 19.1308 98.7986 20.2338C98.8134 20.4314 98.9016 20.6163 99.0458 20.7521C99.1901 20.8879 99.3799 20.9648 99.5781 20.9677C99.7535 20.9647 99.922 20.8985 100.053 20.7813C100.183 20.6641 100.267 20.5037 100.289 20.3296C100.636 18.8709 101.62 18.1188 102.978 17.6858C103.434 17.5445 104.018 17.0158 103.206 16.7468C101.625 16.2272 100.886 15.1241 100.444 13.6655C100.399 13.4558 100.262 13.1732 99.9108 13.2188Z" fill="white"/>
<path id="Vector_6" d="M0 63.1128C0.0589276 63.3101 0.158236 63.4931 0.291633 63.65C0.42503 63.8069 0.5896 63.9344 0.774891 64.0244C1.68653 64.5486 2.32467 65.205 2.40216 66.3035C2.40277 66.5042 2.47457 66.6982 2.60477 66.8509C2.73498 67.0037 2.91516 67.1052 3.11324 67.1376C3.59641 67.2014 3.84255 66.7684 3.92004 66.4357C4.2619 65.009 5.1781 64.2523 6.55012 63.915C6.83272 63.842 7.14724 63.6825 7.17915 63.327C7.18443 63.1709 7.12973 63.0188 7.02631 62.9018C6.92288 62.7848 6.77858 62.7118 6.62305 62.6979C5.18266 62.4153 4.57186 61.4125 4.22544 60.118C4.13883 59.8035 3.99753 59.3978 3.58729 59.375C3.17706 59.3522 2.94459 59.7442 2.90356 60.0542C2.73035 61.4444 2.03295 62.2968 0.62447 62.543C0.478866 62.5733 0.344079 62.6421 0.234218 62.7423C0.124356 62.8426 0.0434619 62.9705 0 63.1128Z" fill="white"/>
<path id="Vector_7" d="M40.5996 0C40.3756 0.0893848 40.1801 0.237953 40.034 0.429834C39.8879 0.621715 39.7966 0.849703 39.77 1.08941C39.6515 2.21984 39.1091 2.8124 37.9468 3.07678C36.7844 3.34115 36.7343 3.98841 37.7234 4.65391C38.5986 5.22824 39.2914 5.8117 39.4145 6.93302C39.4082 7.03777 39.4226 7.14273 39.4569 7.24191C39.4912 7.3411 39.5447 7.43256 39.6143 7.51108C39.6839 7.5896 39.7683 7.65362 39.8627 7.69951C39.9571 7.74541 40.0596 7.77227 40.1643 7.77855C40.2691 7.78484 40.374 7.77043 40.4732 7.73615C40.5724 7.70187 40.6639 7.6484 40.7424 7.57877C40.8209 7.50914 40.8849 7.42473 40.9308 7.33035C40.9767 7.23598 41.0036 7.13347 41.0099 7.02872C41.1018 6.42954 41.3834 5.87561 41.8132 5.4482C42.2431 5.02078 42.7987 4.7424 43.3984 4.65391C43.7493 4.57642 44.2371 4.43968 44.2188 3.94739C44.2188 3.53716 43.763 3.41864 43.4531 3.34571C42.1449 3.03119 41.566 2.11045 41.2788 0.902526C41.2584 0.704539 41.1844 0.515867 41.0647 0.356832C40.945 0.197797 40.7842 0.0744199 40.5996 0V0Z" fill="white"/>
<path id="Vector_8" d="M41.1419 116.234C41.1329 116.406 41.1608 116.579 41.2239 116.739C41.287 116.9 41.3838 117.045 41.5078 117.165C41.6317 117.285 41.78 117.377 41.9425 117.435C42.1051 117.493 42.2782 117.516 42.4501 117.501C42.8244 117.515 43.1895 117.383 43.4684 117.133C43.7474 116.883 43.9183 116.535 43.9452 116.161C44.0181 115.195 43.1977 114.794 42.4182 114.748C41.6388 114.702 41.1693 115.208 41.1419 116.234Z" fill="white"/>
<path id="Vector_9" d="M2.06471 101.087C1.15308 101.087 0.733723 101.629 0.697257 102.477C0.676046 102.653 0.693108 102.83 0.747272 102.999C0.801437 103.167 0.891416 103.321 1.011 103.451C1.13059 103.581 1.27693 103.684 1.43996 103.751C1.60299 103.819 1.77881 103.851 1.95531 103.845C2.15153 103.854 2.34772 103.825 2.53241 103.758C2.71709 103.691 2.88656 103.588 3.03088 103.455C3.1752 103.321 3.29148 103.161 3.37291 102.982C3.45434 102.803 3.49928 102.61 3.5051 102.413C3.55524 101.529 2.88975 101.164 2.06471 101.087Z" fill="white"/>
<path id="Vector_10" d="M122.155 111.603C122.209 112.332 122.542 112.938 123.486 112.875C124.306 112.82 124.967 112.314 124.967 111.534C124.969 111.337 124.928 111.142 124.848 110.962C124.767 110.781 124.648 110.621 124.5 110.491C124.351 110.361 124.177 110.265 123.987 110.209C123.798 110.153 123.599 110.139 123.404 110.167C122.597 110.194 122.146 110.655 122.155 111.603Z" fill="white"/>
<path id="Vector_11" d="M21.2365 34.9249C20.3248 35.0388 19.869 35.4719 19.869 36.2923C19.869 37.1128 20.3932 37.7236 21.2365 37.6598C22.0023 37.6051 22.6905 37.1493 22.6541 36.2559C22.6176 35.3625 21.9202 35.0616 21.2365 34.9249Z" fill="white"/>
<path id="Vector_12" d="M20.056 74.7544C20.1289 75.5156 20.5118 76.1538 21.387 76.1219C21.5753 76.1329 21.764 76.106 21.9417 76.0428C22.1195 75.9795 22.2827 75.8812 22.4217 75.7537C22.5607 75.6261 22.6727 75.472 22.751 75.3003C22.8293 75.1287 22.8723 74.943 22.8775 74.7544C22.9048 73.8656 22.171 73.469 21.4143 73.4097C20.6576 73.3505 20.1289 73.8428 20.056 74.7544Z" fill="white"/>
<path id="Vector_13" d="M132.602 44.178C131.691 44.2099 131.194 44.725 131.166 45.4817C131.139 46.2384 131.517 46.954 132.456 46.9084C133.245 46.8674 133.92 46.4936 133.938 45.5911C133.956 44.6886 133.277 44.3649 132.602 44.178Z" fill="white"/>
<path id="Vector_14" d="M79.4945 32.076L79.7225 32.2629L79.882 33.5391L79.4945 35.4171C79.4108 35.4671 79.3431 35.54 79.2995 35.6272C79.2558 35.7145 79.2381 35.8124 79.2484 35.9094C79.2341 35.9107 79.2203 35.9155 79.2084 35.9234C79.1964 35.9313 79.1866 35.9421 79.1798 35.9548C79.173 35.9674 79.1695 35.9816 79.1695 35.9959C79.1695 36.0103 79.1732 36.0244 79.18 36.037C78.913 36.2769 78.7307 36.5967 78.6604 36.9487L77.922 37.8603L77.3841 37.7828C77.3298 37.695 77.2529 37.6234 77.1615 37.5753C77.0702 37.5272 76.9676 37.5044 76.8645 37.5093C75.5608 36.935 74.3301 37.3817 73.0265 38.8175C72.165 39.7702 72.7211 40.5952 73.1815 41.4339C73.4094 41.8487 73.7102 42.2271 73.97 42.6282C74.9181 44.0822 74.6583 45.1671 73.1951 46.0377C72.5752 46.4069 72.3747 45.9101 72.2516 45.5454C72.01 44.807 71.896 44.023 71.6955 43.2663C71.4676 42.4048 70.9343 42.1404 70.328 42.8424C69.4762 43.7146 68.464 44.4142 67.347 44.9027C66.3031 45.4223 65.5602 48.1801 66.1071 49.2102C66.1974 49.3611 66.3248 49.4864 66.4772 49.5742C66.6296 49.662 66.8019 49.7093 66.9778 49.7116C69.2568 49.9805 70.5468 51.7445 72.1695 53.0163C72.2203 53.0577 72.2622 53.1089 72.2927 53.1668C72.3233 53.2248 72.3418 53.2883 72.3473 53.3536C72.3473 55.2589 73.7148 56.3757 74.7905 57.6656C75.3512 58.3494 75.5061 59.0331 75.0458 59.808C74.043 61.5355 74.2435 63.4545 74.3848 65.2778C74.4213 65.7883 74.2936 66.5496 75.0549 66.6726C75.8161 66.7957 76.6593 67.0145 77.4023 66.3581C78.4826 65.4146 78.7333 64.1428 78.9202 62.8437C79.0068 62.2557 79.1527 61.9321 79.8319 61.8546C82.5668 61.5811 85.3017 61.3213 88.0366 61.7954C89.2582 62.005 89.8143 62.748 89.7003 63.9651C89.6547 64.4665 89.3129 64.4619 88.9847 64.5576C87.7175 64.9268 87.3939 65.4693 87.9454 66.6134C88.3329 67.4293 88.0913 67.5888 87.3301 67.6116C86.1951 67.6435 85.051 67.7848 83.9342 67.7483C83.4576 67.6951 82.9753 67.7619 82.531 67.9426C82.0868 68.1233 81.6948 68.4122 81.3907 68.7831C79.7498 70.8115 77.4662 71.8872 75.219 73.0495C72.9718 74.2119 72.8806 74.6039 73.8515 76.9376C74.4792 78.3794 75.3213 79.718 76.3494 80.9078C77.0025 81.5656 77.3806 82.4473 77.4069 83.3738C77.261 86.4597 78.4781 89.3678 78.5191 92.4173C78.5191 92.6361 78.5191 92.8731 78.5191 93.0691C78.437 93.4884 78.3094 93.9123 78.6969 94.2588C78.7222 94.2848 78.7392 94.3178 78.7457 94.3535C78.7522 94.3892 78.7479 94.4261 78.7333 94.4593C77.7761 95.4758 76.4178 95.2798 75.2326 95.526C72.0693 96.1778 68.8512 96.1595 65.6194 96.0957C60.7881 95.9786 56.0154 95.0095 51.5209 93.2332C46.4773 91.3408 41.8926 88.3998 38.0697 84.6045C37.8327 84.3629 37.582 84.6045 37.3404 84.5681L37.2584 83.9071C37.2584 83.5607 37.2584 83.2097 37.2584 82.8633C37.5182 81.04 38.0971 79.4583 40.1027 78.7609C43.8723 77.439 45.1167 74.3714 45.4631 70.7112C45.4643 70.537 45.4795 70.3632 45.5087 70.1915C45.9417 68.6873 45.3491 67.5523 44.2233 66.6225C43.117 65.76 42.283 64.5967 41.8211 63.2722C41.5339 62.4198 40.9095 62.0233 40.0297 61.7634C37.4179 60.9749 34.8653 61.3304 32.2808 61.9367C29.6234 62.5657 29.6188 62.5292 29.9744 59.7852C30.1385 58.4952 30.1567 57.1278 32.0256 57.1232C32.3173 57.1232 32.6044 56.7813 32.8916 56.599C33.2973 56.4759 33.5161 56.64 33.6939 57.0229C33.9759 57.5416 34.4182 57.9551 34.9547 58.2016C35.4912 58.448 36.0931 58.5143 36.6704 58.3904C37.5182 58.1579 37.0715 57.5471 36.88 57.1597C36.4926 56.3848 35.9684 55.6874 35.7405 54.8213C35.5126 53.9553 35.7405 53.5496 36.6795 53.7046C37.3678 53.8185 38.0469 53.9006 38.7489 53.9963C39.7836 54.1422 40.4263 54.6162 40.367 55.7831C40.3078 56.95 41.2787 57.1186 42.1219 57.3101C42.9652 57.5015 43.9452 57.8434 44.515 56.7039C44.6882 56.3529 44.8432 55.9928 45.0392 55.6555C45.6591 54.5797 45.4312 53.7684 44.3281 53.1895C43.5122 52.761 43.2478 52.2779 43.8723 51.3662C44.8705 49.8438 43.9042 47.396 42.1994 46.808C41.9544 46.7204 41.7048 46.6459 41.4519 46.5847C40.1756 46.3157 39.0771 45.828 38.5483 44.497C38.3705 44.2053 38.1492 43.9424 37.8919 43.7176L37.9147 43.0384C38.0394 42.9802 38.1497 42.8953 38.2379 42.7898C38.3261 42.6842 38.3901 42.5606 38.4253 42.4276C40.8657 39.7544 43.7057 37.4756 46.8442 35.6724C51.1734 33.2154 55.9033 31.5441 60.8151 30.7358C61.1661 30.6766 61.7632 30.4304 61.7541 31.0185C61.7267 33.1517 63.2355 35.1482 62.2099 37.368C61.7541 38.3435 62.1734 39.0682 63.1215 39.6471C64.2656 40.3263 65.4781 40.9371 66.2211 42.1769C66.9641 43.4167 67.4381 43.4441 68.6415 42.6327C69.5258 42.0356 69.4346 41.2288 69.193 40.4266C68.8266 39.1646 68.8713 37.8188 69.3207 36.584C69.8813 34.902 69.8585 34.8929 71.5998 35.2713C72.5783 35.4533 73.5884 35.3557 74.514 34.9897C75.4396 34.6236 76.2432 34.004 76.8326 33.2018C76.9357 33.1171 77.019 33.0106 77.0765 32.8901C77.134 32.7696 77.1643 32.6379 77.1653 32.5044C77.2722 32.4062 77.3567 32.2862 77.4134 32.1525C77.47 32.0189 77.4973 31.8746 77.4935 31.7295V31.766C77.5333 31.7713 77.5735 31.761 77.6059 31.7372C77.6382 31.7133 77.66 31.6779 77.6667 31.6384H78.2091C78.591 31.896 79.0348 32.0471 79.4945 32.076ZM61.5809 72.6438C62.3624 71.8243 62.9648 70.851 63.3494 69.7858C63.5363 69.33 63.7323 68.8286 63.1261 68.5643C62.5199 68.2999 62.2144 68.6645 62.0184 69.1568C61.7372 69.9357 61.3341 70.6649 60.8242 71.3174C59.826 72.4433 58.732 72.3658 58.0072 71.0393C57.6805 70.3299 57.3944 69.6025 57.1503 68.8605C56.9543 68.3683 56.6398 68.0127 56.0563 68.2497C55.4729 68.4868 55.6005 68.9061 55.7418 69.3483C56.0614 70.4345 56.5473 71.4647 57.1822 72.4023C57.7201 73.1361 58.4266 73.6011 59.8077 73.6102C60.4888 73.5063 61.1142 73.1735 61.5809 72.6666V72.6438ZM44.6335 46.3841C46.1423 46.4798 47.5325 45.591 47.2317 44.4469C46.7759 42.692 45.4084 41.3017 44.7839 39.5331C44.5287 38.8084 43.2205 39.2642 43.0108 40.267C42.7555 41.4886 42.6598 42.7467 42.555 43.6264C42.4182 45.2491 43.3755 46.3294 44.6335 46.4069V46.3841ZM67.6615 64.389C68.5731 64.4254 69.2842 63.5457 69.266 62.4061C69.2477 61.2666 68.4318 60.2684 67.5885 60.2547C66.7453 60.241 65.9658 61.3304 65.9567 62.4517C65.9347 62.9349 66.0995 63.408 66.4169 63.7729C66.7343 64.1378 67.1799 64.3666 67.6615 64.4118V64.389ZM51.2839 60.4279C50.8094 60.4851 50.3763 60.7265 50.0779 61.0999C49.7795 61.4733 49.6397 61.9489 49.6885 62.4244C49.7843 63.336 50.0122 64.2978 51.2064 64.389C52.1591 64.4619 52.8382 63.532 52.82 62.2648C52.8018 60.9977 52.273 60.4188 51.2839 60.4507V60.4279ZM47.4778 40.0209C46.8533 40.0665 46.4249 40.308 46.4978 41.0738C46.5935 42.0128 47.5462 43.084 48.4123 43.0566C49.2783 43.0293 49.0914 42.2271 49.2646 41.7986C49.2555 40.8824 48.3165 39.9798 47.4778 40.0437V40.0209Z" fill="#0287CC"/>
<path id="Vector_15" d="M98.8441 56.8634C98.5726 56.262 98.5008 55.5895 98.639 54.9444C99.227 52.4556 98.6618 50.0261 98.4566 47.5692C98.3248 46.5335 97.8703 45.5654 97.1576 44.8024C93.1079 39.6575 87.8436 35.5992 81.8375 32.9922L81.4911 32.8053H81.0854C81.0854 34.0815 81.2221 35.3852 80.2831 36.4518L80.1555 36.7572L79.727 37.5002L79.4809 37.8147C78.5693 39.638 78.3049 39.7337 76.8691 38.8266C76.2036 38.6717 75.6475 37.9788 74.8361 38.6352C73.7057 39.5468 73.5553 40.1394 74.5535 41.5935C76.787 44.848 75.4013 45.5819 73.2726 47.3824C72.7667 47.8108 72.3382 47.747 71.9827 47.1681C71.4763 46.4562 71.1622 45.6257 71.071 44.7568C71.0346 43.9592 70.6152 43.7358 70.0135 44.3466C69.3888 44.8873 68.7036 45.3539 67.9715 45.7369C67.11 46.2519 67.1464 47.2046 66.9778 48.016C66.9604 48.0921 66.9599 48.171 66.9761 48.2474C66.9924 48.3238 67.0251 48.3957 67.0719 48.4581C67.1188 48.5206 67.1786 48.5721 67.2474 48.6091C67.3162 48.6461 67.3921 48.6677 67.4701 48.6723C69.5121 48.9322 70.7839 50.4956 72.3656 51.5394C72.8214 51.8494 73.3593 52.2642 73.3866 52.8431C73.4686 54.7484 74.6675 56.0064 75.8343 57.2827C76.1966 57.6276 76.4369 58.0808 76.5191 58.5741C76.6013 59.0674 76.521 59.574 76.2902 60.0176C75.7341 61.2939 75.2053 62.5976 75.301 64.0425C75.333 64.5303 75.1506 65.1411 75.962 65.2231C76.664 65.2961 77.1471 65.0818 77.3659 64.3707C77.5839 63.6156 77.6854 62.8317 77.6667 62.046C77.6667 61.0068 78.1955 60.5145 79.1892 60.5099C81.8922 60.5099 84.5952 60.4188 87.2982 60.5099C89.8964 60.6011 91.1681 62.3332 90.726 64.9405C90.6621 65.3188 90.5163 65.3963 90.1562 65.4784C88.7386 65.72 88.5654 65.9798 89.2901 67.2014C89.8462 68.113 89.5408 68.4366 88.6429 68.5278C87.4368 68.7206 86.2177 68.8212 84.9963 68.8286C84.2337 68.7778 83.4702 68.9145 82.7726 69.2268C82.0749 69.539 81.4644 70.0174 80.9942 70.62C79.9948 71.7154 78.7713 72.5829 77.4069 73.1635C73.9473 74.8044 73.9108 75.1189 76.0076 78.4236C76.9192 79.8458 78.1089 81.0765 78.5282 82.8177C78.8017 83.9573 78.4097 85.0968 78.7561 86.1862C79.5949 88.8254 79.1301 91.9159 79.7682 94.5824L80.2241 95.722L82.7311 96.4057L84.5543 92.987C86.2318 90.0744 87.5308 87.0979 87.7451 83.6427C87.7562 83.0683 88.0459 82.7037 88.4288 82.2753C89.9558 80.6663 91.4053 79.1803 93.4428 78.1729C95.2661 77.2613 96.0455 74.6358 95.494 72.7031C94.9424 70.7704 93.6206 69.7084 91.8474 69.0565C90.7671 68.6554 90.9768 68.2817 91.6195 67.6891C92.7449 66.7071 93.5127 65.2999 93.6707 63.8146C93.7043 63.2465 93.7795 62.8983 94.1265 62.4472C94.4736 61.9961 94.9261 61.7409 95.4666 61.5629C95.9453 61.3669 96.3783 61.0752 96.8614 60.8518C98.4477 60.1225 99.1905 58.714 98.8441 56.8634Z" fill="#B1DDB2"/>
<path id="Vector_16" d="M86.7696 91.6195C87.3394 89.6276 88.6384 87.8636 88.7342 85.7304C88.8846 82.3892 91.1409 80.6753 93.7482 79.3489C95.0171 78.7379 96.0077 77.6693 96.521 76.3578C97.0343 75.0463 97.0321 73.5891 96.515 72.2792C95.927 70.7294 95.2615 69.3482 93.461 68.897C92.7089 68.7101 92.4992 68.2816 93.1693 67.6344C93.581 67.2471 93.9113 66.7815 94.1406 66.2649C94.37 65.7483 94.4938 65.1911 94.5048 64.626C94.5459 63.5411 95.1202 62.83 96.1595 62.3469C97.2099 61.8214 98.216 61.2117 99.1678 60.5236C99.8926 60.0678 100.371 59.384 100.134 58.4314C98.712 58.7277 99.4231 57.269 98.8533 56.8679C99.1998 58.7185 98.279 59.8353 96.7064 60.5828C96.2506 60.8062 95.7948 61.0979 95.3116 61.2939C94.771 61.472 94.2964 61.8084 93.9494 62.2595C93.6023 62.7106 93.3988 63.2556 93.3653 63.8237C93.2073 65.3089 92.4942 66.6797 91.3688 67.6617C90.7443 68.2543 90.5574 68.7146 91.6377 69.1158C93.4154 69.7676 94.7191 70.8661 95.2843 72.8489C95.8495 74.8317 95.1749 76.9513 93.3288 77.8857C91.2913 78.8931 89.7689 80.5021 88.2419 82.1112C87.8589 82.5396 87.6422 83.091 87.6311 83.6655C87.4168 87.1206 85.8716 90.0834 84.1988 92.9961C84.0392 93.8257 83.4877 94.4547 83.0729 95.143C82.5624 95.9954 81.7054 95.9134 80.885 95.7903C80.0645 95.6672 80.0098 94.9744 80.0098 94.3089C79.3716 91.6423 79.6178 88.8391 78.7791 86.209C78.4327 85.1196 78.8247 83.98 78.5512 82.8405C78.1318 81.0992 76.933 79.8685 76.0305 78.4464C73.9337 75.1417 73.9702 74.8272 77.4298 73.1862C78.7942 72.6056 80.0177 71.7381 81.0171 70.6427C81.4873 70.0401 82.0978 69.5618 82.7955 69.2495C83.4931 68.9373 84.2566 68.8006 85.0192 68.8514C86.2406 68.8439 87.4597 68.7434 88.6658 68.5506C89.5774 68.4594 89.8691 68.1585 89.313 67.2241C88.5883 66.0025 88.7615 65.7427 90.1791 65.5011C90.5392 65.4419 90.6851 65.3416 90.7489 64.9633C91.2047 62.3697 89.9193 60.6239 87.3211 60.5327C84.6181 60.4415 81.9151 60.5327 79.2121 60.5327C78.2184 60.5327 77.6805 61.0295 77.6897 62.0688C77.7083 62.8545 77.6068 63.6384 77.3888 64.3935C77.17 65.1046 76.6869 65.3051 75.9849 65.2459C75.1735 65.1638 75.3559 64.553 75.324 64.0653C75.2282 62.6203 75.757 61.3304 76.3131 60.0404C76.5439 59.5967 76.6242 59.0901 76.542 58.5968C76.4598 58.1035 76.2195 57.6503 75.8573 57.3055C74.6904 56.0292 73.4916 54.7711 73.4095 52.8658C73.3822 52.2869 72.8625 51.8721 72.3885 51.5622C70.8068 50.5229 69.5351 48.9549 67.493 48.6951C67.4151 48.6904 67.3391 48.6688 67.2703 48.6318C67.2016 48.5949 67.1417 48.5433 67.0948 48.4809C67.048 48.4184 67.0153 48.3465 66.9991 48.2702C66.9828 48.1938 66.9834 48.1148 67.0007 48.0387C67.1694 47.2046 67.1329 46.2519 67.9944 45.7596C68.7265 45.3766 69.4118 44.9101 70.0365 44.3694C70.6564 43.7586 71.0575 43.9819 71.094 44.7796C71.1852 45.6484 71.4992 46.479 72.0056 47.1909C72.3611 47.7698 72.7896 47.8336 73.2956 47.4051C75.4242 45.6046 76.8099 44.8708 74.5764 41.6162C73.5782 40.1621 73.7286 39.5696 74.859 38.6579C75.6704 38.0016 76.2265 38.6944 76.892 38.8494V37.5549C75.5883 36.9805 74.3576 37.4272 73.054 38.8631C72.1925 39.8157 72.7486 40.6408 73.209 41.4795C73.4369 41.8943 73.7377 42.2726 73.9975 42.6737C74.9456 44.1278 74.6858 45.2126 73.2226 46.0832C72.6027 46.4524 72.4022 45.9556 72.2791 45.591C72.0375 44.8525 71.9236 44.0685 71.723 43.3119C71.4951 42.4504 70.9618 42.186 70.3555 42.888C69.5037 43.7602 68.4915 44.4597 67.3745 44.9482C66.3307 45.4679 65.5877 48.2256 66.1346 49.2557C66.2249 49.4067 66.3523 49.532 66.5047 49.6198C66.6571 49.7075 66.8294 49.7548 67.0053 49.7571C69.2844 50.0261 70.5743 51.7901 72.197 53.0618C72.2478 53.1032 72.2897 53.1544 72.3203 53.2124C72.3508 53.2703 72.3694 53.3339 72.3748 53.3991C72.3748 55.3045 73.7423 56.4212 74.818 57.7112C75.3787 58.3949 75.5336 59.0786 75.0733 59.8535C74.0705 61.5811 74.271 63.5001 74.4123 65.3233C74.4488 65.8339 74.3212 66.5951 75.0824 66.7182C75.8436 66.8412 76.6869 67.06 77.4298 66.4036C78.5101 65.4601 78.7608 64.1883 78.9477 62.8893C79.0343 62.3013 79.1802 61.9776 79.8594 61.9001C82.5943 61.6267 85.3292 61.3668 88.0641 61.8409C89.2857 62.0506 89.8418 62.7936 89.7278 64.0106C89.6823 64.512 89.3404 64.5074 89.0122 64.6031C87.745 64.9724 87.4214 65.5148 87.9729 66.6589C88.3604 67.4748 88.1188 67.6344 87.3576 67.6571C86.2226 67.689 85.0785 67.8303 83.9617 67.7939C83.4851 67.7406 83.0028 67.8074 82.5586 67.9881C82.1143 68.1688 81.7223 68.4578 81.4183 68.8286C79.7773 70.857 77.4937 71.9327 75.2465 73.0951C72.9993 74.2574 72.9081 74.6494 73.879 76.9832C74.5067 78.425 75.3489 79.7635 76.3769 80.9534C77.03 81.6111 77.4081 82.4928 77.4344 83.4194C77.2885 86.5053 78.5056 89.4134 78.5466 92.4628C78.5466 92.6816 78.5466 92.9186 78.5466 93.1146C78.734 93.4812 78.7965 93.899 78.7244 94.3043C78.7497 94.3303 78.7668 94.3633 78.7732 94.399C78.7797 94.4348 78.7754 94.4716 78.7608 94.5049C78.8132 94.5742 78.8547 94.651 78.8839 94.7328C79.1027 95.6034 78.8247 96.7703 80.142 97.0119C81.6371 97.2854 83.123 97.3765 84.103 95.8814C85.0147 94.4638 85.8807 93.028 86.7696 91.6195Z" fill="#061111"/>
<path id="Vector_17" d="M35.7724 81.9972C36.3787 79.0891 38.5392 77.6943 41.0326 76.6824C41.6028 76.4833 42.1054 76.1276 42.4827 75.6559C42.86 75.1843 43.0968 74.6159 43.1658 74.0158C43.3937 72.735 43.7629 71.4815 44.0091 70.1961C44.1186 69.7511 44.1016 69.2844 43.9598 68.8486C43.818 68.4129 43.5572 68.0254 43.2068 67.7301C42.1837 66.7274 41.2672 65.6214 40.4719 64.43C39.3597 62.8619 37.5228 62.789 35.859 62.9075C34.0358 63.0397 32.2763 63.5822 30.4849 63.9331C29.8149 64.0608 29.8377 64.6123 29.8422 65.0499C29.8924 69.33 30.1476 73.5737 32.0666 77.5211C32.1214 77.6864 32.1551 77.8579 32.1669 78.0316C32.4449 78.0863 32.568 78.3279 32.7549 78.4874C33.8808 79.554 34.3047 81.2315 35.7724 81.9972Z" fill="#B1DDB2"/>
<path id="Vector_18" d="M36.584 44.6383C34.4234 47.5829 32.3859 50.6004 31.2464 54.1193C31.1517 54.3617 31.0725 54.6099 31.0094 54.8623C30.9091 55.3181 30.4487 55.9107 31.0686 56.2298C31.6156 56.5261 32.1535 56.2298 32.5591 55.7466C33.015 55.2088 33.5072 54.4794 33.9631 55.7466C34.4918 56.2024 34.3095 57.5973 35.6769 56.9865C35.2576 55.9518 34.7152 54.958 34.5237 53.8367C34.3687 52.9251 34.7106 52.4055 35.6906 52.4374C37.3056 52.4356 38.9031 52.771 40.381 53.422C40.969 53.7091 41.5798 54.0783 41.5069 54.8669C41.4339 55.6555 41.8989 55.9061 42.5735 56.0247C43.3575 56.1568 43.631 55.6782 43.9409 55.0902C44.2965 54.3792 43.9409 53.9917 43.3985 53.7228C42.1086 53.0618 42.1724 52.2642 42.8242 51.0973C43.7358 49.4381 43.1114 48.098 41.2698 47.706C39.5788 47.3459 38.1247 46.7397 37.2951 45.1078C37.1401 44.8708 36.9578 44.5927 36.584 44.6383Z" fill="#B1DDB2"/>
<path id="Vector_19" d="M67.4794 30.1615C66.4629 30.2254 65.5057 30.2846 64.5485 30.353C62.9987 30.4624 62.2694 31.4561 63.1126 32.7643C64.0243 34.1956 63.7417 35.4992 63.3633 36.8667C63.1126 37.7783 63.3223 38.3253 64.161 38.772C65.2322 39.3417 66.3353 39.8933 67.0053 41.0009C67.1466 41.2334 67.2651 41.7348 67.7209 41.5069C67.8102 41.4641 67.8895 41.403 67.9537 41.3276C68.0178 41.2522 68.0654 41.1641 68.0933 41.0691C68.1213 40.9742 68.1289 40.8744 68.1158 40.7762C68.1027 40.6781 68.0691 40.5838 68.0172 40.4995C67.2378 38.6124 67.885 36.853 68.4138 35.0297C68.7146 34.0132 69.2388 33.7397 70.2371 33.913C71.8279 34.1956 73.4278 34.4052 74.8955 33.3888C75.2369 33.2019 75.5314 32.94 75.757 32.623C76.4089 31.4925 76.263 31.1644 74.9639 30.9364C73.8927 30.7496 72.817 30.549 71.7367 30.4396C70.3146 30.312 68.8605 30.2527 67.4794 30.1615Z" fill="#F6F6F6"/>
<path id="Vector_20" d="M36.584 44.6384C36.9623 44.5929 37.1447 44.8709 37.2769 45.1307C38.1065 46.7626 39.556 47.3688 41.2516 47.7289C43.0749 48.1209 43.7313 49.461 42.8059 51.1202C42.1541 52.2871 42.0903 53.0847 43.3803 53.7457C43.909 54.0192 44.2919 54.4066 43.9227 55.1131C43.631 55.7011 43.3575 56.1798 42.5553 56.0476C41.8806 55.9291 41.4111 55.7239 41.4886 54.8898C41.5661 54.0556 40.9508 53.732 40.3628 53.4449C38.8845 52.7955 37.287 52.4617 35.6724 52.4648C34.6924 52.4329 34.3505 52.9207 34.5055 53.8642C34.6969 54.9855 35.2394 55.9792 35.6587 57.0139C34.2913 57.6247 34.4736 56.2253 33.9448 55.7741C33.7443 56.2299 32.9192 55.9427 32.8873 56.6265C33.293 56.5034 33.5118 56.6675 33.6896 57.0504C33.9716 57.569 34.414 57.9825 34.9505 58.229C35.487 58.4755 36.0888 58.5417 36.6661 58.4178C37.5139 58.1854 37.0672 57.5746 36.8757 57.1871C36.4883 56.4122 35.9641 55.7148 35.7362 54.8488C35.5083 53.9827 35.7362 53.577 36.6752 53.732C37.3635 53.846 38.0426 53.928 38.7446 54.0238C39.7793 54.1696 40.422 54.6437 40.3628 55.8106C40.3035 56.9775 41.2744 57.1461 42.1177 57.3375C42.9609 57.529 43.9409 57.8709 44.5107 56.7313C44.6839 56.3803 44.8389 56.0202 45.0349 55.6829C45.6548 54.6072 45.4269 53.7958 44.3238 53.2169C43.5079 52.7885 43.2435 52.3053 43.868 51.3937C44.8662 49.8712 43.8999 47.4235 42.1951 46.8355C41.9501 46.7479 41.7006 46.6734 41.4476 46.6121C40.1713 46.3432 39.0728 45.8555 38.544 44.5245C38.3662 44.2328 38.1449 43.9699 37.8877 43.745H36.8302L37.6096 44.2738L37.6643 44.3741L37.6051 44.2738C37.2358 44.3376 36.7937 44.1553 36.584 44.6384Z" fill="#071312"/>
<path id="Vector_21" d="M35.7728 81.9973C34.3005 81.2315 34.1865 79.4538 33.047 78.4008C32.8601 78.2276 32.819 77.7171 32.1536 78.0453C32.7416 80.2651 33.913 82.1477 35.3808 84.3128C35.5494 83.31 35.6725 82.6536 35.7728 81.9973Z" fill="#B1DDB2"/>
<path id="Vector_22" d="M78.1956 31.6749C78.5851 31.9219 79.0336 32.0604 79.4946 32.076C79.1665 31.611 78.7972 31.2737 78.1956 31.6749Z" fill="#061111"/>
<path id="Vector_23" d="M79.7226 32.2629L79.8821 33.5392C80.2696 33.0561 80.6525 32.5775 79.7226 32.2629Z" fill="#061111"/>
<path id="Vector_24" d="M37.9057 43.084C38.0303 43.0258 38.1406 42.9409 38.2288 42.8354C38.3171 42.7298 38.381 42.6062 38.4162 42.4732C37.6778 42.1952 37.9102 42.7376 37.9057 43.084Z" fill="#071312"/>
<path id="Vector_25" d="M79.1803 36.037C78.9133 36.2769 78.731 36.5967 78.6606 36.9487C79.2851 36.9213 79.2213 36.4655 79.1803 36.037Z" fill="#061111"/>
<path id="Vector_26" d="M77.922 37.8741L77.3842 37.7966C77.4616 37.9197 77.5163 38.1111 77.6303 38.1521C77.7442 38.1932 77.8856 38.0336 77.922 37.8741Z" fill="#061111"/>
<path id="Vector_27" d="M77.1518 32.5547C77.2587 32.4564 77.3432 32.3364 77.3999 32.2028C77.4565 32.0691 77.4838 31.9249 77.48 31.7798C77.0652 31.9074 77.1518 32.2401 77.1518 32.5547Z" fill="#061111"/>
<path id="Vector_28" d="M99.4871 56.5216L99.437 56.8224H99.6056C99.6056 56.7814 99.633 56.7313 99.6056 56.6994C99.5705 56.6373 99.5309 56.5779 99.4871 56.5216Z" fill="#061111"/>
<path id="Vector_29" d="M37.272 83.9391C37.272 83.5927 37.272 83.2417 37.272 82.8952C37.1681 83.0495 37.1127 83.2312 37.1127 83.4172C37.1127 83.6031 37.1681 83.7848 37.272 83.9391Z" fill="#0287CC"/>
<path id="Vector_30" d="M76.851 33.2292C76.9541 33.1445 77.0374 33.038 77.0949 32.9175C77.1524 32.797 77.1827 32.6654 77.1837 32.5318C76.851 32.6595 76.8692 32.9512 76.851 33.2292Z" fill="#061111"/>
<path id="Vector_31" d="M80.1511 36.748L80.2787 36.4426L79.9551 36.5931L80.1511 36.748Z" fill="#061111"/>
<path id="Vector_32" d="M79.4948 35.4171C79.411 35.4671 79.3433 35.54 79.2997 35.6273C79.2561 35.7145 79.2383 35.8124 79.2486 35.9094C79.3313 35.8583 79.3981 35.7851 79.4415 35.6982C79.485 35.6112 79.5034 35.5139 79.4948 35.4171Z" fill="#061111"/>
<path id="Vector_33" d="M77.4802 31.8161C77.52 31.8214 77.5603 31.8111 77.5926 31.7873C77.6249 31.7635 77.6467 31.7281 77.6534 31.6885C77.4757 31.5654 77.462 31.6748 77.4802 31.8161Z" fill="#061111"/>
<path id="Vector_34" d="M100.718 50.2906C100.692 50.2683 100.665 50.2485 100.636 50.2313C100.636 50.2313 100.599 50.2313 100.581 50.2313L100.736 50.2632L100.718 50.2906Z" fill="#02ABEB"/>
<path id="Vector_35" d="M81.4911 32.819L81.8376 33.0058L81.4911 32.819Z" fill="#061111"/>
<path id="Vector_36" d="M81.0857 32.8189L81.0219 32.7141L81.0811 32.8189H81.0857Z" fill="#061111"/>
<path id="Vector_37" d="M79.4766 37.8056L79.7227 37.4911L79.4766 37.8056Z" fill="#061111"/>
<path id="Vector_38" d="M15.2426 57.7068C15.2152 57.7068 15.1788 57.7068 15.1605 57.7068C15.1375 57.7264 15.1228 57.7542 15.1195 57.7843C15.1742 57.8937 15.2335 57.8937 15.2836 57.7843C15.2882 57.7661 15.2562 57.7296 15.2426 57.7068Z" fill="#BFD52E"/>
<path id="Vector_39" d="M59.8307 73.6331C60.5148 73.5231 61.1406 73.1821 61.6038 72.6667C62.3854 71.8472 62.9877 70.8739 63.3724 69.8088C63.5593 69.353 63.7553 68.8515 63.149 68.5872C62.5428 68.3228 62.2374 68.6875 62.0414 69.1797C61.7601 69.9586 61.357 70.6878 60.8471 71.3403C59.8489 72.4662 58.7549 72.3887 58.0302 71.0623C57.7034 70.3529 57.4173 69.6254 57.1732 68.8835C56.9772 68.3912 56.6627 68.0356 56.0793 68.2727C55.4958 68.5097 55.6235 68.929 55.7648 69.3712C56.0844 70.4574 56.5702 71.4876 57.2051 72.4252C57.7202 73.159 58.4267 73.624 59.8307 73.6331Z" fill="#050D15"/>
<path id="Vector_40" d="M43.0108 40.2898C43.2205 39.287 44.5287 38.8312 44.784 39.5559C45.413 41.3245 46.7668 42.7147 47.2317 44.4696C47.5326 45.6137 46.1423 46.5026 44.6336 46.4069C43.3755 46.3294 42.4183 45.2491 42.5459 43.672C42.6599 42.7694 42.7556 41.5114 43.0108 40.2898ZM45.527 45.3038C46.3292 45.1534 46.6483 44.4696 46.0648 43.9363C45.2352 43.1478 44.3373 42.4823 44.5652 41.1467C44.588 41.0373 44.3874 40.8049 44.2644 40.7775C43.9817 40.7183 43.927 40.9644 43.8951 41.1877L43.6444 43.1295C43.5761 45.0121 44.1686 45.5818 45.527 45.3174V45.3038Z" fill="#071312"/>
<path id="Vector_41" d="M65.9567 62.4746C65.9406 62.9539 66.1081 63.4213 66.4249 63.7813C66.7417 64.1413 67.184 64.3668 67.6614 64.4119C68.5731 64.4483 69.2842 63.5686 69.2659 62.4291C69.2477 61.2895 68.4318 60.2913 67.5885 60.2776C66.7452 60.2639 65.9658 61.3533 65.9567 62.4746Z" fill="#050D15"/>
<path id="Vector_42" d="M52.8201 62.2876C52.8201 61.0523 52.2731 60.4187 51.284 60.4643C50.8095 60.5216 50.3764 60.7628 50.078 61.1363C49.7796 61.5097 49.6398 61.9853 49.6886 62.4608C49.7844 63.3724 50.0123 64.3342 51.2065 64.4254C52.1592 64.4846 52.8383 63.5548 52.8201 62.2876Z" fill="#050D15"/>
<path id="Vector_43" d="M48.4352 43.0795C47.5692 43.1069 46.6119 42.0357 46.5208 41.0967C46.4478 40.3309 46.8763 40.0893 47.5008 40.0438C48.3395 39.9799 49.2785 40.8825 49.2876 41.8215C49.0916 42.2499 49.3058 43.0522 48.4352 43.0795ZM48.1754 42.0813C48.5355 42.1679 48.5993 41.8762 48.5948 41.6255C48.5948 41.0876 48.1708 40.9189 47.7652 40.7685C47.3595 40.6181 47.3093 40.8369 47.3093 41.1469C47.2683 41.7212 47.674 41.9628 48.1526 42.0813H48.1754Z" fill="#071312"/>
<path id="Vector_44" d="M78.7108 94.2906C78.7829 93.8853 78.7204 93.4675 78.533 93.101C78.451 93.5203 78.3233 93.9442 78.7108 94.2906Z" fill="#0287CC"/>
<path id="Vector_45" d="M37.6003 44.292L37.6596 44.3923L37.6049 44.292H37.6003Z" fill="#060807"/>
<path id="Vector_46" d="M43.6446 43.125C43.5763 45.0121 44.1688 45.5773 45.5272 45.3175C46.3294 45.167 46.6485 44.4833 46.065 43.95C45.2354 43.1614 44.3375 42.496 44.5654 41.1604C44.5882 41.051 44.3876 40.8185 44.2645 40.7912C43.9819 40.7319 43.9272 40.9781 43.8953 41.2014L43.6446 43.125Z" fill="#B1DDB2"/>
<path id="Vector_47" d="M47.2684 41.1285C47.2684 41.7211 47.6741 41.9627 48.1527 42.0812C48.5128 42.1678 48.5766 41.8761 48.572 41.6254C48.572 41.0875 48.1481 40.9188 47.7424 40.7684C47.3367 40.618 47.2775 40.8185 47.2684 41.1285Z" fill="#B1DDB2"/>
<g id="Ellipse 21" filter="url(#filter0_f_303_188)">
<ellipse cx="86.5" cy="106.5" rx="35.5" ry="7.5" fill="black" fill-opacity="0.1"/>
</g>
</g>
<defs>
<filter id="filter0_f_303_188" x="47" y="95" width="79" height="23" filterUnits="userSpaceOnUse" color-interpolation-filters="sRGB">
<feFlood flood-opacity="0" result="BackgroundImageFix"/>
<feBlend mode="normal" in="SourceGraphic" in2="BackgroundImageFix" result="shape"/>
<feGaussianBlur stdDeviation="2" result="effect1_foregroundBlur_303_188"/>
</filter>
</defs>
</svg>
