<svg width="62" height="61" viewBox="0 0 62 61" fill="none" xmlns="http://www.w3.org/2000/svg">
<circle cx="31.5" cy="30.5" r="29" stroke="#7AA37E" stroke-width="3"/>
<line x1="31.5" y1="18.5" x2="31.5" y2="33.5" stroke="#7AA37E" stroke-width="3" stroke-linecap="round"/>
<line x1="40.0742" y1="37.4917" x2="31.7928" y2="33.9676" stroke="#7AA37E" stroke-width="3" stroke-linecap="round"/>
<path d="M2.67736 20.3068C2.79002 21.1275 3.54667 21.7015 4.36741 21.5888L17.742 19.753C18.5627 19.6404 19.1367 18.8837 19.0241 18.063C18.9114 17.2422 18.1548 16.6682 17.334 16.7809L5.44551 18.4127L3.81367 6.5242C3.70101 5.70347 2.94435 5.12946 2.12362 5.24211C1.30289 5.35477 0.728877 6.11143 0.841533 6.93216L2.67736 20.3068ZM3.80496 18.0934L2.96838 19.1962L5.35847 21.0093L6.19504 19.9066L3.80496 18.0934Z" fill="#7AA37E"/>
</svg>
