<svg width="64" height="62" viewBox="0 0 64 62" fill="none" xmlns="http://www.w3.org/2000/svg">
<path d="M14.5371 15.2048L18.8952 8.20762L22.0343 3.15905C23.2229 1.24 26.0876 1.24 27.2762 3.15905L31.7867 10.4219L28.0381 16.5038L24.9905 21.2867L14.5371 15.2048ZM63.1467 32.3876L58.2705 24.5343L47.7257 30.439L54.461 41.3333H57.9048C59.5213 41.3333 61.0717 40.7112 62.2147 39.6039C63.3578 38.4965 64 36.9946 64 35.4286C64 34.3657 63.6952 33.3324 63.1467 32.3876ZM45.7143 56.0952H50.2857C51.4197 56.0947 52.531 55.7876 53.4947 55.2087C54.4584 54.6298 55.2363 53.8019 55.741 52.8181L60.16 44.2857H45.7143V38.381L33.5238 50.1905L45.7143 62V56.0952ZM27.4286 44.2857H14.3238L11.7638 48.4486C10.8495 49.9248 10.7886 51.7552 11.581 53.32C12.4343 55.0029 14.2324 56.0952 16.2133 56.0952H27.4286V44.2857ZM15.6038 36.4619L20.8762 39.5324L16.701 23.3238L0 27.3686L5.18095 30.38L3.93143 32.4171C2.86476 34.159 2.77333 36.2848 3.7181 38.0857L8.68571 47.7105L15.6038 36.4619ZM48.8229 9.27048L44.861 2.86381C43.7333 1.09238 41.7524 0 39.619 0H28.861L38.3695 15.3524L33.1276 18.3933L49.8591 22.4381L54.0343 6.22952L48.8229 9.27048Z" fill="#7AA37E"/>
</svg>
