<svg id="Calque_1" data-name="Calque 1" xmlns="http://www.w3.org/2000/svg" viewBox="0 0 39.95 47.11"><defs><style>.cls-1{fill:#fff;}</style></defs><path class="cls-1" d="M7.53,7.79,8.67,9h0ZM22.81,6.56,23.13,5h0Zm8.94,1.23,0,1.64h.16l.17,0ZM41.27,5.5,42.83,5l-.47-1.55-1.55.46ZM39,16.49l-1.07-1.23h0Zm-9.76,2.3.11-1.63-1.44-.1-.27,1.42ZM27.75,46.3l1,1.31,1.2-.9-.79-1.27Zm-12.82.47-1.31,1h0Zm1.77-30,1.61.29.39-2.21-2.22.3Zm-11.17,2L4,19.28l.47,1.46,1.48-.37ZM6.69,15c0-2.91.75-4.81,2-6L6.39,6.62c-2.07,2-3,4.9-3,8.35Zm2-6A6.48,6.48,0,0,1,13.41,7V3.75a9.74,9.74,0,0,0-7,2.87ZM13.41,7a49.29,49.29,0,0,1,9.08,1.14L23.13,5a52.28,52.28,0,0,0-9.72-1.21Zm9.08,1.14a58.5,58.5,0,0,0,9.23,1.27l.06-3.27A55.13,55.13,0,0,1,23.13,5ZM32.05,9.4a96.72,96.72,0,0,0,9.69-2.34l-.93-3.13a91.58,91.58,0,0,1-9.36,2.26ZM39.71,6a11.58,11.58,0,0,1,.4,3.34h3.27A14.67,14.67,0,0,0,42.83,5Zm.4,3.34c0,2.85-.82,4.73-2.2,5.94l2.14,2.46c2.3-2,3.33-4.9,3.33-8.4Zm-2.22,5.95a8.37,8.37,0,0,1-5.85,2v3.27a11.67,11.67,0,0,0,8-2.83Zm-5.85,2c-.65,0-1.55,0-2.71-.11l-.22,3.26c1.19.08,2.17.12,2.93.12Zm-4.42,1.21Q26,27,25.19,31.76c-.28,1.59-.48,2.87-.62,3.85a18.84,18.84,0,0,0-.22,2.17h3.27a16.14,16.14,0,0,1,.19-1.71c.13-.94.33-2.19.6-3.77q.8-4.72,2.41-13.21Zm-3.27,19.3c0,3.91.6,7.12,2,9.39l2.77-1.73c-.94-1.5-1.52-4-1.52-7.66ZM26.77,45a10.48,10.48,0,0,1-6.37,2.31v3.27a13.72,13.72,0,0,0,8.33-3ZM20.4,47.31c-2.25,0-3.49-.63-4.16-1.52l-2.61,2c1.52,2,3.93,2.82,6.77,2.82ZM16.25,45.8c-.8-1.09-1.33-2.88-1.33-5.61H11.65c0,3.06.58,5.66,2,7.55Zm-1.33-5.61c0-2.76,1.1-10.39,3.39-23.11l-3.22-.58c-2.26,12.6-3.44,20.57-3.44,23.69Zm1.56-25a107.51,107.51,0,0,0-11.34,2l.78,3.17a105,105,0,0,1,11-2Zm-9.4,3.12A11.39,11.39,0,0,1,6.69,15H3.42A14.52,14.52,0,0,0,4,19.28Z" transform="translate(-3.42 -3.47)"/></svg>